<svg width="298" height="18" viewBox="0 0 298 18" fill="none" xmlns="http://www.w3.org/2000/svg">
<path d="M289.581 16.9999V0.991943H297.381V2.43194H291.189V7.71194H296.301V9.15194H291.189V15.5599H297.381V16.9999H289.581Z" fill="#161616"/>
<path d="M275.574 2.43194H274.278V0.991943H278.502C279.366 0.991943 280.086 1.10394 280.662 1.32794C281.254 1.55194 281.782 1.95194 282.246 2.52794C282.71 3.08794 283.054 3.90394 283.278 4.97594C283.502 6.04794 283.614 7.39194 283.614 9.00794C283.614 9.63194 283.606 10.1599 283.59 10.5919C283.574 11.0079 283.526 11.5199 283.446 12.1279C283.382 12.7359 283.286 13.2479 283.158 13.6639C283.03 14.0639 282.838 14.4959 282.582 14.9599C282.342 15.4079 282.046 15.7679 281.694 16.0399C281.342 16.3119 280.894 16.5439 280.35 16.7359C279.822 16.9119 279.222 16.9999 278.55 16.9999H274.278V15.5599H275.574V2.43194ZM277.182 2.43194V15.5599H278.502C278.95 15.5599 279.318 15.5279 279.606 15.4639C279.91 15.3999 280.222 15.2479 280.542 15.0079C280.862 14.7519 281.11 14.3919 281.286 13.9279C281.478 13.4639 281.63 12.8239 281.742 12.0079C281.87 11.1919 281.934 10.1919 281.934 9.00794C281.934 7.83994 281.87 6.83994 281.742 6.00794C281.614 5.15994 281.454 4.51194 281.262 4.06394C281.086 3.59994 280.846 3.24794 280.542 3.00794C280.254 2.75194 279.99 2.59194 279.75 2.52794C279.51 2.46394 279.222 2.43194 278.886 2.43194H277.182Z" fill="#161616"/>
<path d="M263.415 15.5599V2.43194H261.255V0.991943H267.207V2.43194H265.023V15.5599H267.207V16.9999H261.255V15.5599H263.415Z" fill="#161616"/>
<path d="M253.225 0.680054L254.833 0.992053L253.225 17.3121H252.529L249.865 7.64005H249.817L247.153 17.3121H246.457L244.849 0.992053L246.457 0.680054L247.225 12.7041H247.273L249.601 4.28005H250.081L252.409 12.7041H252.457L253.225 0.680054Z" fill="#161616"/>
<path d="M221.059 7.78395L223.363 0.991943H225.379L225.859 16.9999H224.155L223.843 3.65594H223.795L221.059 11.6959L218.323 3.65594H218.275L217.963 16.9999H216.283L216.763 0.991943H218.755L221.059 7.78395Z" fill="#161616"/>
<path d="M208.853 12.0559H204.485L203.237 17.3119L201.653 16.8799L205.709 0.991943H207.629L211.685 16.8799L210.101 17.3119L208.853 12.0559ZM208.469 10.6159L206.693 3.12794H206.645L204.869 10.6159H208.469Z" fill="#161616"/>
<path d="M189.134 16.9999V0.991943H190.742V15.5599H197.318V16.9999H189.134Z" fill="#161616"/>
<path d="M174.456 16.9999V0.991943H182.256V2.43194H176.064V7.71194H181.176V9.15194H176.064V15.5599H182.256V16.9999H174.456Z" fill="#161616"/>
<path d="M161.793 2.43194V8.43194H164.145C164.865 8.43194 165.417 8.16794 165.801 7.63994C166.201 7.09594 166.401 6.29594 166.401 5.23994C166.401 4.23194 166.177 3.51194 165.729 3.07994C165.281 2.64794 164.625 2.43194 163.761 2.43194H161.793ZM160.185 16.9999V0.991943H164.505C165.401 0.991943 166.217 1.36794 166.953 2.11994C167.705 2.87194 168.081 3.91194 168.081 5.23994C168.081 6.29594 167.849 7.23194 167.385 8.04794C166.937 8.86394 166.249 9.43194 165.321 9.75194L168.633 16.6159L167.193 17.3119L163.593 9.87194H161.793V16.9999H160.185Z" fill="#161616"/>
<path d="M130.54 16.9999V0.991943H132.556L137.308 14.4559L137.356 14.4079L137.284 10.8319V0.991943H138.892V16.9999H136.876L132.124 3.51194L132.076 3.55994L132.148 7.18394V16.9999H130.54Z" fill="#161616"/>
<path d="M122.509 12.0559H118.141L116.893 17.3119L115.309 16.8799L119.365 0.991943H121.285L125.341 16.8799L123.757 17.3119L122.509 12.0559ZM122.125 10.6159L120.349 3.12794H120.301L118.525 10.6159H122.125Z" fill="#161616"/>
<path d="M105.118 15.5599V2.43194H102.958V0.991943H108.91V2.43194H106.726V15.5599H108.91V16.9999H102.958V15.5599H105.118Z" fill="#161616"/>
<path d="M88.3999 16.9999V0.991943H90.0079V15.5599H96.5839V16.9999H88.3999Z" fill="#161616"/>
<path d="M76.3372 15.5599V2.43194H74.1772V0.991943H80.1292V2.43194H77.9452V15.5599H80.1292V16.9999H74.1772V15.5599H76.3372Z" fill="#161616"/>
<path d="M62.7623 7.78395L65.0663 0.991943H67.0823L67.5623 16.9999H65.8583L65.5463 3.65594H65.4983L62.7623 11.6959L60.0263 3.65594H59.9783L59.6663 16.9999H57.9863L58.4663 0.991943H60.4583L62.7623 7.78395Z" fill="#161616"/>
<path d="M47.556 15.5599V2.43194H45.396V0.991943H51.348V2.43194H49.164V15.5599H51.348V16.9999H45.396V15.5599H47.556Z" fill="#161616"/>
<path d="M34.0052 9.99205L30.4532 17.3121L29.0132 16.6401L33.1892 8.28805L29.7572 1.42405L31.2452 0.680054L33.9812 6.65605L36.7172 0.680054L38.2052 1.42405L34.7732 8.28805L38.9492 16.6401L37.5092 17.3121L34.0052 9.99205Z" fill="#161616"/>
<path d="M21.7747 12.0559H17.4067L16.1587 17.3119L14.5747 16.8799L18.6307 0.991943H20.5507L24.6067 16.8799L23.0227 17.3119L21.7747 12.0559ZM21.3907 10.6159L19.6147 3.12794H19.5667L17.7907 10.6159H21.3907Z" fill="#161616"/>
<path d="M5.19983 7.78395L7.50383 0.991943H9.51983L9.99983 16.9999H8.29583L7.98383 3.65594H7.93583L5.19983 11.6959L2.46383 3.65594H2.41583L2.10383 16.9999H0.423828L0.903828 0.991943H2.89583L5.19983 7.78395Z" fill="#161616"/>
</svg>
