<svg width="298" height="17" viewBox="0 0 298 17" fill="none" xmlns="http://www.w3.org/2000/svg">
<path d="M289.581 16V3.49597H297.381V4.93597H291.189V8.67997H296.301V10.12H291.189V14.56H297.381V16H289.581Z" fill="#161616"/>
<path d="M274.278 4.93597V3.49597H278.454C280.278 3.49597 281.59 3.95197 282.39 4.86397C283.206 5.75997 283.614 7.33597 283.614 9.59197C283.614 10.44 283.574 11.168 283.494 11.776C283.43 12.368 283.294 12.952 283.086 13.528C282.878 14.088 282.582 14.544 282.198 14.896C281.83 15.232 281.334 15.504 280.71 15.712C280.086 15.904 279.334 16 278.454 16H274.278V14.56H275.574V4.93597H274.278ZM277.182 4.93597V14.56H278.886C279.958 14.56 280.734 14.2 281.214 13.48C281.694 12.76 281.934 11.52 281.934 9.75997C281.934 7.93597 281.678 6.67997 281.166 5.99197C280.67 5.28797 279.894 4.93597 278.838 4.93597H277.182Z" fill="#161616"/>
<path d="M261.663 16V14.56H263.415V4.93597H261.663V3.49597H266.799V4.93597H265.023V14.56H266.799V16H261.663Z" fill="#161616"/>
<path d="M244.873 3.37596L246.529 3.18396L247.489 11.968H247.537L249.625 5.82396H250.057L252.145 11.968H252.193L253.177 3.18396L254.809 3.37596L253.009 16.312H252.457L249.841 8.60796L247.225 16.312H246.673L244.873 3.37596Z" fill="#161616"/>
<path d="M221.059 12.472L218.251 5.87197H218.203L217.891 16H216.188L216.691 3.49597H218.803L221.059 8.91997L223.315 3.49597H225.427L225.932 16H224.227L223.915 5.87197H223.867L221.059 12.472Z" fill="#161616"/>
<path d="M208.901 12.592H204.461L203.285 16.312L201.701 15.736L205.637 3.49597H207.701L211.637 15.736L210.053 16.312L208.901 12.592ZM208.445 11.152L206.669 5.36797L204.893 11.152H208.445Z" fill="#161616"/>
<path d="M189.158 16V3.49597H190.766V14.56H197.318V16H189.158Z" fill="#161616"/>
<path d="M174.456 16V3.49597H182.256V4.93597H176.064V8.67997H181.176V10.12H176.064V14.56H182.256V16H174.456Z" fill="#161616"/>
<path d="M161.481 9.20797H163.593C164.377 9.20797 165.001 8.99997 165.465 8.58397C165.945 8.16797 166.185 7.60797 166.185 6.90397C166.185 6.31197 166.001 5.83997 165.633 5.48797C165.281 5.11997 164.761 4.93597 164.073 4.93597H161.481V9.20797ZM159.873 16V3.49597H164.121C165.241 3.49597 166.145 3.77597 166.833 4.33597C167.521 4.89597 167.865 5.75197 167.865 6.90397C167.865 7.68797 167.625 8.41597 167.145 9.08797C166.681 9.74397 166.073 10.184 165.321 10.408L168.393 15.472L167.001 16.312L163.809 10.648H161.481V16H159.873Z" fill="#161616"/>
<path d="M130.54 16V3.49597H132.532L137.38 14.032L137.428 13.984L137.284 10.744V3.49597H138.892V16H136.9L132.052 5.46397L132.004 5.51197L132.148 8.77597V16H130.54Z" fill="#161616"/>
<path d="M122.557 12.592H118.117L116.941 16.312L115.357 15.736L119.293 3.49597H121.357L125.293 15.736L123.709 16.312L122.557 12.592ZM122.101 11.152L120.325 5.36797L118.549 11.152H122.101Z" fill="#161616"/>
<path d="M103.366 16V14.56H105.118V4.93597H103.366V3.49597H108.502V4.93597H106.726V14.56H108.502V16H103.366Z" fill="#161616"/>
<path d="M88.4238 16V3.49597H90.0318V14.56H96.5838V16H88.4238Z" fill="#161616"/>
<path d="M74.585 16V14.56H76.337V4.93597H74.585V3.49597H79.721V4.93597H77.945V14.56H79.721V16H74.585Z" fill="#161616"/>
<path d="M62.7626 12.472L59.9546 5.87197H59.9066L59.5946 16H57.8906L58.3946 3.49597H60.5066L62.7626 8.91997L65.0186 3.49597H67.1306L67.6346 16H65.9306L65.6186 5.87197H65.5706L62.7626 12.472Z" fill="#161616"/>
<path d="M45.8037 16V14.56H47.5557V4.93597H45.8037V3.49597H50.9397V4.93597H49.1637V14.56H50.9397V16H45.8037Z" fill="#161616"/>
<path d="M33.9811 10.792L30.6451 16.312L29.2051 15.496L33.0691 9.37596L29.5411 4.02396L31.0051 3.18396L33.9811 7.93596L36.9571 3.18396L38.4211 4.02396L34.8931 9.37596L38.7571 15.496L37.3171 16.312L33.9811 10.792Z" fill="#161616"/>
<path d="M21.8226 12.592H17.3826L16.2066 16.312L14.6226 15.736L18.5586 3.49597H20.6226L24.5586 15.736L22.9746 16.312L21.8226 12.592ZM21.3666 11.152L19.5906 5.36797L17.8146 11.152H21.3666Z" fill="#161616"/>
<path d="M5.19983 6.78395L7.50383 -0.00805664H9.51983L9.99983 15.9999H8.29583L7.98383 2.65594H7.93583L5.19983 10.6959L2.46383 2.65594H2.41583L2.10383 15.9999H0.423828L0.903828 -0.00805664H2.89583L5.19983 6.78395Z" fill="#161616"/>
</svg>
