<svg width="307" height="17" viewBox="0 0 307 17" fill="none" xmlns="http://www.w3.org/2000/svg">
<path d="M299.181 16V3.49597H306.981V4.93597H300.789V8.67997H305.901V10.12H300.789V14.56H306.981V16H299.181Z" fill="#161616"/>
<path d="M283.398 4.93597V3.49597H287.574C289.398 3.49597 290.71 3.95197 291.51 4.86397C292.326 5.75997 292.734 7.33597 292.734 9.59197C292.734 10.44 292.694 11.168 292.614 11.776C292.55 12.368 292.414 12.952 292.206 13.528C291.998 14.088 291.702 14.544 291.318 14.896C290.95 15.232 290.454 15.504 289.83 15.712C289.206 15.904 288.454 16 287.574 16H283.398V14.56H284.694V4.93597H283.398ZM286.302 4.93597V14.56H288.006C289.078 14.56 289.854 14.2 290.334 13.48C290.814 12.76 291.054 11.52 291.054 9.75997C291.054 7.93597 290.798 6.67997 290.286 5.99197C289.79 5.28797 289.014 4.93597 287.958 4.93597H286.302Z" fill="#161616"/>
<path d="M270.303 16V14.56H272.055V4.93597H270.303V3.49597H275.439V4.93597H273.663V14.56H275.439V16H270.303Z" fill="#161616"/>
<path d="M253.033 3.37596L254.689 3.18396L255.649 11.968H255.697L257.785 5.82396H258.217L260.305 11.968H260.353L261.337 3.18396L262.969 3.37596L261.169 16.312H260.617L258.001 8.60796L255.385 16.312H254.833L253.033 3.37596Z" fill="#161616"/>
<path d="M228.259 12.472L225.451 5.87197H225.403L225.091 16H223.387L223.891 3.49597H226.003L228.259 8.91997L230.515 3.49597H232.627L233.131 16H231.427L231.115 5.87197H231.067L228.259 12.472Z" fill="#161616"/>
<path d="M215.621 12.592H211.181L210.005 16.312L208.421 15.736L212.357 3.49597H214.421L218.357 15.736L216.773 16.312L215.621 12.592ZM215.165 11.152L213.389 5.36797L211.613 11.152H215.165Z" fill="#161616"/>
<path d="M195.398 16V3.49597H197.006V14.56H203.558V16H195.398Z" fill="#161616"/>
<path d="M180.215 16V3.49597H188.015V4.93597H181.823V8.67997H186.935V10.12H181.823V14.56H188.015V16H180.215Z" fill="#161616"/>
<path d="M166.761 9.20797H168.873C169.657 9.20797 170.281 8.99997 170.745 8.58397C171.225 8.16797 171.465 7.60797 171.465 6.90397C171.465 6.31197 171.281 5.83997 170.913 5.48797C170.561 5.11997 170.041 4.93597 169.353 4.93597H166.761V9.20797ZM165.153 16V3.49597H169.401C170.521 3.49597 171.425 3.77597 172.113 4.33597C172.801 4.89597 173.145 5.75197 173.145 6.90397C173.145 7.68797 172.905 8.41597 172.425 9.08797C171.961 9.74397 171.353 10.184 170.601 10.408L173.673 15.472L172.281 16.312L169.089 10.648H166.761V16H165.153Z" fill="#161616"/>
<path d="M134.86 16V3.49597H136.852L141.7 14.032L141.748 13.984L141.604 10.744V3.49597H143.212V16H141.22L136.372 5.46397L136.324 5.51197L136.468 8.77597V16H134.86Z" fill="#161616"/>
<path d="M126.397 12.592H121.957L120.781 16.312L119.197 15.736L123.133 3.49597H125.197L129.133 15.736L127.549 16.312L126.397 12.592ZM125.941 11.152L124.165 5.36797L122.389 11.152H125.941Z" fill="#161616"/>
<path d="M106.727 16V14.56H108.479V4.93597H106.727V3.49597H111.863V4.93597H110.087V14.56H111.863V16H106.727Z" fill="#161616"/>
<path d="M91.3037 16V3.49597H92.9117V14.56H99.4637V16H91.3037Z" fill="#161616"/>
<path d="M76.9854 16V14.56H78.7374V4.93597H76.9854V3.49597H82.1213V4.93597H80.3453V14.56H82.1213V16H76.9854Z" fill="#161616"/>
<path d="M64.6825 12.472L61.8745 5.87197H61.8265L61.5145 16H59.8105L60.3145 3.49597H62.4265L64.6825 8.91997L66.9385 3.49597H69.0505L69.5545 16H67.8506L67.5385 5.87197H67.4906L64.6825 12.472Z" fill="#161616"/>
<path d="M47.2437 16V14.56H48.9957V4.93597H47.2437V3.49597H52.3797V4.93597H50.6037V14.56H52.3797V16H47.2437Z" fill="#161616"/>
<path d="M34.941 10.792L31.605 16.312L30.165 15.496L34.029 9.37596L30.501 4.02396L31.965 3.18396L34.941 7.93596L37.917 3.18396L39.381 4.02396L35.853 9.37596L39.717 15.496L38.277 16.312L34.941 10.792Z" fill="#161616"/>
<path d="M22.3025 12.592H17.8625L16.6865 16.312L15.1025 15.736L19.0385 3.49597H21.1025L25.0385 15.736L23.4545 16.312L22.3025 12.592ZM21.8465 11.152L20.0705 5.36797L18.2945 11.152H21.8465Z" fill="#161616"/>
<path d="M5.19983 6.78395L7.50383 -0.00805664H9.51983L9.99983 15.9999H8.29583L7.98383 2.65594H7.93583L5.19983 10.6959L2.46383 2.65594H2.41583L2.10383 15.9999H0.423828L0.903828 -0.00805664H2.89583L5.19983 6.78395Z" fill="#161616"/>
</svg>
