<svg width="384" height="213" viewBox="0 0 384 213" fill="none" xmlns="http://www.w3.org/2000/svg">
<path d="M147.584 179.712C209.125 177.025 270.928 172.811 332.563 172.811C339.958 172.811 347.573 172.658 354.936 173.501C358.819 173.946 362.557 173.979 366.464 173.979" stroke="#161616" stroke-width="2.4192" stroke-linecap="round"/>
<path d="M183.386 139.849C206.337 125.356 232.164 112.853 252.415 94.4432C255.913 91.2638 260.197 88.6091 263.149 84.9201C275.1 69.9814 288.059 55.5623 297.032 38.5146C303.299 26.6073 309.479 14.6355 316.92 3.47363" stroke="#161616" stroke-width="2.4192" stroke-linecap="round"/>
<path d="M147.289 2.05273C150.054 31.6499 152.025 61.0576 152.025 90.7862C152.025 99.4592 152.384 108.218 151.998 116.883C151.704 123.503 150.604 130.142 150.604 136.771C150.604 146.009 149.447 155.254 149.184 164.472C149.073 168.348 146.816 172.076 146.816 175.837" stroke="#161616" stroke-width="2.304" stroke-linecap="round"/>
<path d="M7.90652 81.7532C7.90652 81.8203 7.91491 81.8958 7.9317 81.9798C7.94849 82.0469 7.96527 82.1141 7.98206 82.1812C8.11635 82.198 8.31779 82.2064 8.58638 82.2064C9.76145 82.2064 10.9701 81.9546 12.2123 81.451C12.5648 81.3167 12.8586 81.2496 13.0936 81.2496C13.5636 81.2496 13.9497 81.4678 14.2519 81.9042C14.403 82.1392 14.4785 82.3407 14.4785 82.5086C14.4785 82.71 14.3694 82.9198 14.1512 83.1381C13.4797 83.7592 12.7663 84.1117 12.0109 84.1956C11.3394 84.2796 10.3322 84.4222 8.98926 84.6237L7.22666 84.8755C6.95807 85.463 6.82378 86.0338 6.82378 86.5877C6.82378 87.3935 7.10076 88.0649 7.65472 88.6021C8.22547 89.1225 8.99765 89.3995 9.97128 89.4331C10.9617 89.4498 12.2291 89.3827 13.7735 89.2316L14.1512 89.2064C14.5708 89.2064 14.915 89.3072 15.1835 89.5086C15.4689 89.6933 15.7375 90.029 15.9893 90.5158C15.8046 90.9187 15.5445 91.1873 15.2087 91.3216C14.873 91.4726 14.4365 91.5818 13.8994 91.6489C13.3454 91.716 12.7159 91.7496 12.0109 91.7496C10.4833 91.7496 9.10677 91.5062 7.88134 91.0194C5.71586 90.1801 4.33096 88.728 3.72664 86.6633C3.64271 86.3779 3.60074 86.0757 3.60074 85.7568C3.60074 85.421 3.60074 85.2196 3.60074 85.1525C3.60074 84.5817 3.32376 84.162 2.7698 83.8935C2.31656 83.6417 1.96404 83.3983 1.71224 83.1632C1.47723 82.9282 1.32615 82.5757 1.259 82.1057L4.10434 81.9294L5.38852 78.228C5.42209 78.1104 5.45567 77.9678 5.48924 77.7999C5.5396 77.6152 5.58996 77.4726 5.64032 77.3718C5.7914 77.0361 5.86694 76.7591 5.86694 76.5409C5.86694 76.2052 5.70747 75.9114 5.38852 75.6596C5.27101 75.5757 5.17029 75.4246 5.08636 75.2064C5.01921 74.9713 4.95207 74.7867 4.88492 74.6524L5.43888 74.4761C5.70747 74.409 5.90051 74.3502 6.01802 74.2999C6.08517 74.2663 6.22785 74.2075 6.44608 74.1236C6.66431 74.0229 6.79021 73.9138 6.82378 73.7963C6.94129 73.5109 7.08397 73.3179 7.25184 73.2171C7.43649 73.1164 7.65472 73.0661 7.90652 73.0661C8.07439 73.0661 8.32619 73.0828 8.66192 73.1164C8.76264 73.1164 8.86336 73.1416 8.96408 73.192C9.08159 73.2255 9.17391 73.2759 9.24106 73.343C9.62715 73.7459 10.0552 74.0145 10.5252 74.1488C10.9953 74.2831 11.5492 74.3502 12.1871 74.3502H13.2699H15.385C16.8118 74.3502 17.8778 74.367 18.5828 74.4006C18.9521 74.4174 19.4222 74.5769 19.9929 74.879C20.0936 74.9294 20.1692 75.0301 20.2195 75.1812C20.2867 75.3155 20.3203 75.4498 20.3203 75.5841C20.3203 75.6512 20.2615 75.7351 20.144 75.8359C20.0265 75.9198 19.9174 75.9785 19.8167 76.0121C18.6752 76.3143 17.8107 76.4905 17.2231 76.5409C16.3166 76.6248 14.9569 76.7339 13.144 76.8682C12.7243 76.885 12.0528 76.927 11.1296 76.9941C11.0624 76.9941 10.9449 76.9773 10.777 76.9438C10.6092 76.8934 10.4833 76.8682 10.3993 76.8682C9.77823 76.8682 9.38375 77.1284 9.21588 77.6488C8.76264 78.9917 8.33458 80.3263 7.9317 81.6524L7.90652 81.7532ZM24.7576 83.2136C24.7576 83.8179 24.7828 84.2124 24.8332 84.3971C24.9003 84.5817 25.0514 84.674 25.2864 84.674C25.5047 84.674 25.8488 84.6237 26.3188 84.523H26.8979C27.8548 84.523 28.4423 84.7328 28.6605 85.1525C28.7445 85.186 28.8284 85.2784 28.9123 85.4294C28.9963 85.5637 29.055 85.6561 29.0886 85.7064C29.0215 85.7568 28.9207 85.8407 28.7864 85.9582C28.6522 86.0589 28.5263 86.1177 28.4087 86.1345C28.0227 86.2184 27.4435 86.3275 26.6713 86.4618C26.5202 86.4786 26.2517 86.5206 25.8656 86.5877C25.2612 86.7052 24.9591 87.0577 24.9591 87.6453C24.9591 87.7292 24.9759 87.8887 25.0094 88.1237C25.2109 89.0302 25.3788 89.8275 25.513 90.5158C25.6473 91.1873 25.7565 91.7496 25.8404 92.2029L26.2936 94.4187C26.4615 95.2245 26.5454 95.8456 26.5454 96.282C26.5454 96.601 26.4699 96.836 26.3188 96.9871C26.1677 97.1549 25.874 97.2389 25.4375 97.2389C25.0682 97.2389 24.7912 97.1465 24.6066 96.9619C24.4219 96.7772 24.2876 96.4835 24.2037 96.0806C24.0526 95.3084 23.7924 94.1501 23.4231 92.6057L22.6173 88.4259C22.5838 87.4522 22.1054 86.9654 21.1821 86.9654C20.8799 86.9654 20.6701 86.9151 20.5526 86.8143C20.4519 86.7304 20.3595 86.6381 20.2756 86.5374C20.1917 86.4199 20.1497 86.3107 20.1497 86.21C20.1497 86.1261 20.2001 86.0338 20.3008 85.933C20.4183 85.8155 20.5274 85.7484 20.6281 85.7316C21.2324 85.6477 21.6353 85.4798 21.8368 85.228C22.055 84.9762 22.1725 84.5817 22.1893 84.0445L22.2396 82.433C22.2564 81.728 22.2816 81.0061 22.3152 80.2675C22.3488 79.5289 22.4075 78.8742 22.4914 78.3035C22.5586 77.8167 22.7684 77.4642 23.1209 77.2459C23.4735 77.0109 23.9603 76.8934 24.5814 76.8934C24.85 76.8934 25.0598 76.9018 25.2109 76.9186C25.5634 76.9522 25.9663 77.12 26.4195 77.4222C26.8728 77.7076 27.1162 78.0181 27.1497 78.3539C27.3176 79.3107 26.9651 79.8311 26.0922 79.915C25.5214 79.7975 25.1857 79.8647 25.085 80.1165C24.9843 80.3683 24.9171 80.6788 24.8835 81.0481C24.8835 81.2663 24.8668 81.5769 24.8332 81.9798C24.7828 82.3827 24.7576 82.7939 24.7576 83.2136ZM36.1671 95.9295C35.865 96.8863 35.3949 97.3648 34.7571 97.3648C34.3542 97.3648 33.8758 97.1885 33.3218 96.836C33.6743 95.9966 33.8506 95.0398 33.8506 93.9655C33.8506 93.4115 33.8086 92.8491 33.7247 92.2784C33.6407 91.7244 33.5148 91.0446 33.347 90.2388L33.2463 89.6597C33.1287 89.0721 33.028 88.6861 32.9441 88.5014C32.8602 88.3167 32.7259 88.1992 32.5412 88.1489C32.3566 88.0985 31.9705 88.0649 31.3829 88.0482L31.0808 88.023C30.7283 88.0398 30.4177 87.981 30.1491 87.8467C29.8973 87.6956 29.7714 87.4774 29.7714 87.192C29.7714 86.9906 29.8973 86.764 30.1491 86.5122C30.4009 86.2604 30.6611 86.0841 30.9297 85.9834C31.4165 85.8155 31.769 85.6393 31.9873 85.4546C32.2055 85.2532 32.3146 84.993 32.3146 84.674C32.3146 84.4558 32.2474 84.162 32.1132 83.7927C31.8781 82.8695 31.7606 82.0469 31.7606 81.3251C31.8278 80.0493 31.9621 78.9162 32.1635 77.9258C32.2307 77.5901 32.4237 77.3047 32.7427 77.0697C33.0784 76.8179 33.4141 76.692 33.7499 76.692C33.817 76.692 33.9177 76.7088 34.052 76.7423C34.4885 76.8598 34.7487 77.0109 34.8326 77.1956C34.9333 77.3802 35.0508 77.6068 35.1851 77.8754C35.3026 78.1272 35.2774 78.379 35.1096 78.6308C34.2702 79.8898 34.1611 81.7028 34.7822 84.0697C34.8494 84.3215 34.9501 84.523 35.0844 84.674C35.2355 84.8251 35.4621 84.9007 35.7643 84.9007C36.0664 84.9007 36.3686 84.8419 36.6707 84.7244C37.1408 84.5565 37.4933 84.4726 37.7283 84.4726C38.0808 84.4726 38.3998 84.6153 38.6851 84.9007C38.7859 85.0182 38.8698 85.1609 38.9369 85.3287C39.0209 85.4798 39.0544 85.6225 39.0377 85.7568C39.0209 85.9079 38.7942 86.0673 38.3578 86.2352C37.6024 86.487 36.847 86.7136 36.0916 86.9151C35.8398 86.9822 35.6635 87.0745 35.5628 87.192C35.4621 87.3095 35.4117 87.4774 35.4117 87.6956C35.4117 87.8635 35.4201 87.9978 35.4369 88.0985C35.7726 90.0961 36.0748 92.1861 36.3434 94.3683C36.3938 94.8719 36.335 95.3923 36.1671 95.9295ZM44.6841 81.2999C44.8352 81.2831 44.9611 81.2831 45.0618 81.2999C45.1625 81.2999 45.2548 81.2999 45.3388 81.2999C45.4563 81.2831 45.6325 81.2747 45.8675 81.2747C47.009 81.2747 48.1337 81.6021 49.2417 82.2568C49.7285 82.5589 49.9719 82.8779 49.9719 83.2136C49.9719 83.5829 49.7201 83.9102 49.2165 84.1956C48.7968 84.4474 48.3604 84.7412 47.9071 85.0769C47.1014 85.6141 46.4131 86.0338 45.8424 86.3359C45.2884 86.6381 44.6757 86.8479 44.0042 86.9654C43.9035 86.999 43.7944 87.0913 43.6769 87.2424C43.5762 87.3767 43.5342 87.4774 43.551 87.5446C43.5845 87.6453 43.6433 87.8551 43.7272 88.1741C43.8112 88.4762 43.9035 88.7364 44.0042 88.9546C44.1217 89.1561 44.256 89.3239 44.4071 89.4582C44.575 89.5925 44.8268 89.6597 45.1625 89.6597C45.4982 89.6597 45.8088 89.6093 46.0942 89.5086C47.1014 89.0386 48.0582 88.451 48.9647 87.746C49.2333 87.5613 49.4683 87.469 49.6697 87.469C49.9215 87.469 50.1901 87.6033 50.4755 87.8719C50.6769 88.0566 50.7776 88.2496 50.7776 88.451C50.7776 88.6693 50.6182 88.9379 50.2992 89.2568C48.8723 90.6501 47.3532 91.3467 45.7416 91.3467C45.3052 91.3467 44.768 91.2628 44.1301 91.0949C43.0558 90.8264 42.2332 90.2304 41.6625 89.3072C41.0917 88.3839 40.8064 87.3263 40.8064 86.1345C40.8064 85.7652 40.8315 85.4127 40.8819 85.0769C40.8987 84.9594 40.9323 84.716 40.9826 84.3467C41.0498 83.9606 41.1505 83.6417 41.2848 83.3899C41.9227 82.1309 43.0558 81.4342 44.6841 81.2999ZM46.1445 83.1129C45.8424 83.0122 45.5738 82.9618 45.3388 82.9618C44.9527 82.9618 44.6505 83.0793 44.4323 83.3143C44.214 83.5493 44.0378 83.9019 43.9035 84.3719C44.3064 84.4222 44.7344 84.3215 45.1877 84.0697C45.6577 83.8011 45.9766 83.4822 46.1445 83.1129ZM61.1656 88.5518C60.662 89.1225 60.15 89.5757 59.6296 89.9115C59.1092 90.2304 58.5301 90.3899 57.8922 90.3899C57.7579 90.3899 57.5732 90.3731 57.3382 90.3395L56.8346 90.3647C54.7195 90.3815 53.1751 89.3743 52.2015 87.3431C51.9833 86.8731 51.8741 86.3107 51.8741 85.6561C51.8741 85.0853 51.9581 84.5397 52.1259 84.0194C52.2938 83.499 52.5288 83.0709 52.831 82.7352L53.3094 82.156C53.5444 81.8539 53.7291 81.644 53.8634 81.5265C54.4509 80.9558 55.2315 80.6704 56.2051 80.6704C56.7087 80.6704 57.2039 80.7543 57.6907 80.9222C58.1775 81.0901 58.6056 81.3167 58.9749 81.6021C59.0421 81.6524 59.1092 81.7615 59.1763 81.9294C59.2435 82.0805 59.2771 82.2064 59.2771 82.3071C59.2771 82.4414 59.1763 82.5925 58.9749 82.7604C58.7735 82.9114 58.5888 82.9786 58.4209 82.9618C57.2795 82.8275 56.3646 83.1045 55.6763 83.7927C54.9881 84.4642 54.6439 85.3875 54.6439 86.5625C54.6439 87.3347 54.8034 87.8803 55.1224 88.1992C55.4581 88.5182 56.0037 88.6777 56.7591 88.6777C57.2291 88.6777 57.6739 88.5853 58.0936 88.4007C58.5133 88.1992 59.0001 87.9223 59.554 87.5697L60.0325 87.2676C60.2003 87.1836 60.4186 87.1333 60.6871 87.1165C60.9725 87.0829 61.1907 87.0577 61.3418 87.041C61.325 87.192 61.3166 87.3431 61.3166 87.4942C61.3334 87.6285 61.3418 87.7376 61.3418 87.8215C61.3418 88.1908 61.2831 88.4343 61.1656 88.5518ZM69.3347 78.5049C69.4186 78.4714 69.6033 78.4462 69.8887 78.4294C70.1908 78.3958 70.4594 78.379 70.6944 78.379C71.1645 78.379 71.5925 78.6728 71.9786 79.2603L71.6513 79.5121C71.2652 79.7975 70.7112 80.0157 69.9894 80.1668C69.3515 80.4858 68.8731 80.7544 68.5541 80.9726C68.252 81.1908 68.0253 81.4342 67.8743 81.7028C67.74 81.9714 67.6728 82.3155 67.6728 82.7352C67.6728 82.9366 67.7232 83.457 67.8239 84.2963L67.9498 85.3539C68.0841 86.6465 68.2016 87.5949 68.3023 88.1992C68.3359 88.4175 68.403 88.6777 68.5038 88.9798C68.6213 89.2652 68.7388 89.4331 68.8563 89.4834C68.9738 89.5338 69.2088 89.4498 69.5613 89.2316C70.2328 88.4259 70.6692 87.8635 70.8707 87.5446C70.921 87.4606 71.005 87.3179 71.1225 87.1165C71.24 86.9151 71.3575 86.764 71.475 86.6633C71.5925 86.5458 71.7352 86.487 71.9031 86.487C71.9366 86.487 72.0206 86.5038 72.1549 86.5374C72.4235 86.6213 72.6333 86.7472 72.7844 86.9151C72.9522 87.0829 73.0362 87.3263 73.0362 87.6453C73.0362 87.7964 73.0278 87.9055 73.011 87.9726C72.9103 88.6441 72.6753 89.2484 72.3059 89.7856C71.9366 90.3228 71.4498 90.8515 70.8455 91.3719C70.6105 91.5901 70.2244 91.6993 69.6872 91.6993C69.0997 91.6993 68.5206 91.565 67.9498 91.2964C67.3791 91.0446 66.993 90.7088 66.7915 90.2892C66.2711 89.1645 65.7843 87.7292 65.3311 85.9834C65.2136 85.4966 65.1213 84.7244 65.0541 83.6668L64.9786 82.7352C64.945 82.3491 64.945 82.0553 64.9786 81.8539C65.0121 81.6356 64.6848 81.5014 63.9965 81.451C63.7447 81.4342 63.6188 81.2663 63.6188 80.9474C63.7867 80.4102 64.0469 80.0913 64.3994 79.9906C64.7352 79.8898 64.945 79.68 65.0289 79.3611C65.1129 79.0253 65.18 78.6812 65.2304 78.3287C65.3814 77.2375 65.415 76.0205 65.3311 74.6776C65.2975 74.0397 65.4906 73.6704 65.9102 73.5697L66.1368 73.5948C66.2208 73.6116 66.4138 73.6452 66.716 73.6956C67.0181 73.7291 67.2867 73.8047 67.5217 73.9222C68.1093 74.2411 68.403 74.8035 68.403 75.6092C68.403 75.945 68.3359 76.3814 68.2016 76.9186C68.1848 77.0025 68.1596 77.0781 68.1261 77.1452C68.0925 77.2124 68.0673 77.2879 68.0505 77.3718C68.0002 77.6236 67.975 77.8335 67.975 78.0013C67.8239 78.5049 67.9414 78.7567 68.3275 78.7567C68.4618 78.7567 68.7975 78.6728 69.3347 78.5049ZM77.9118 79.3862C77.8783 79.487 77.7524 79.5961 77.5341 79.7136C77.3327 79.8311 77.1648 79.9402 77.0305 80.0409L76.3255 79.6632C75.6372 79.2939 75.1672 79.0001 74.9154 78.7819C74.7811 78.6812 74.714 78.5553 74.714 78.4042C74.714 78.3035 74.7476 78.2196 74.8147 78.1524C74.8986 78.0685 75.0161 78.0265 75.1672 78.0265C75.8219 78.0265 76.6193 78.1944 77.5593 78.5301C77.66 78.5469 77.7524 78.6644 77.8363 78.8826C77.9202 79.0841 77.9454 79.2519 77.9118 79.3862ZM75.6456 84.0697C75.696 83.8515 75.7296 83.692 75.7464 83.5913C75.7631 83.4906 75.7715 83.3815 75.7715 83.264C75.7715 83.0289 75.8387 82.8443 75.973 82.71C76.1241 82.5757 76.401 82.5086 76.8039 82.5086C77.2739 82.5086 77.6852 82.6596 78.0377 82.9618C78.407 83.2472 78.6337 83.6249 78.7176 84.0949C78.768 84.3299 78.8015 84.5901 78.8183 84.8755C78.8351 85.1609 78.8435 85.3455 78.8435 85.4294L79.196 89.7352C79.2464 90.1885 79.1792 90.541 78.9946 90.7928C78.8267 91.0278 78.4994 91.1453 78.0126 91.1453C77.5929 91.1453 77.232 91.0278 76.9298 90.7928C76.6444 90.5578 76.4682 90.2556 76.401 89.8863L75.7464 84.5481L75.6456 84.0697ZM85.251 85.6057C85.3182 85.74 85.3937 85.9582 85.4776 86.2604C85.6623 86.8311 85.7714 87.1501 85.805 87.2172C86.1575 86.5793 86.4848 85.9498 86.787 85.3287C87.2738 84.3215 87.6515 83.6165 87.9201 83.2136C88.4069 82.475 88.9861 81.8203 89.6575 81.2496C89.7918 81.1153 89.9513 81.0481 90.1359 81.0481C90.3038 81.0481 90.4381 81.1153 90.5388 81.2496C90.6563 81.3839 90.7319 81.5517 90.7654 81.7532C90.7822 81.8203 90.7906 81.9294 90.7906 82.0805C90.7906 82.4498 90.7235 82.8191 90.5892 83.1884C90.3374 83.8431 89.7163 85.4462 88.7259 87.9978L87.6431 90.7928C87.492 91.2124 87.2486 91.5314 86.9129 91.7496C86.594 91.9846 86.2498 92.1021 85.8805 92.1021C85.3266 92.1021 84.8397 91.8671 84.4201 91.3971C84.1683 91.0949 83.9081 90.5746 83.6395 89.8359C82.8673 87.469 82.221 85.4378 81.7006 83.7424C81.6503 83.6081 81.5747 83.4402 81.474 83.2388C81.3901 83.0206 81.3481 82.8443 81.3481 82.71C81.3481 82.475 81.474 82.2651 81.7258 82.0805C81.9776 81.8958 82.2462 81.8035 82.5316 81.8035C82.8505 81.8035 83.245 81.963 83.715 82.2819C84.0508 82.5337 84.2942 82.8191 84.4453 83.1381C84.5963 83.457 84.739 83.8767 84.8733 84.3971C85.0076 84.9342 85.1335 85.3371 85.251 85.6057ZM98.0326 82.8359C98.0326 82.8695 98.0494 82.9198 98.083 82.987C98.1333 83.0541 98.1753 83.1129 98.2089 83.1632L99.0146 82.005C99.3168 81.5685 99.6945 81.3083 100.148 81.2244C100.618 81.1237 101.012 81.1992 101.331 81.451C102.12 82.0721 102.666 82.7688 102.968 83.5409L103.446 84.7496L104.302 89.2316C104.386 89.7016 104.546 90.222 104.781 90.7928C104.915 91.1621 105.007 91.4391 105.058 91.6237L105.284 92.4798C104.848 92.6141 104.487 92.6813 104.202 92.6813C103.161 92.6813 102.54 92.2113 102.338 91.2712C102.154 90.3311 101.936 89.2148 101.684 87.9223L101.432 86.6129C101.029 85.3875 100.593 84.7832 100.123 84.7999C99.6525 84.7999 99.3084 84.9846 99.0902 85.3539C98.7712 85.8743 98.5866 86.4366 98.5362 87.041C98.5027 87.6285 98.4859 88.4091 98.4859 89.3827C98.4019 89.752 98.276 90.0122 98.1082 90.1633C97.9403 90.2976 97.6801 90.3647 97.3276 90.3647C96.5218 90.3647 96.0938 89.9702 96.0434 89.1813C95.9763 88.2412 95.9427 87.1836 95.9427 86.0086C95.9427 85.6728 95.9091 85.3791 95.842 85.1273C95.7748 84.8755 95.6237 84.7496 95.3887 84.7496C95.288 84.7496 95.1537 84.758 94.9858 84.7748C94.8348 84.7915 94.7173 84.7915 94.6333 84.7748C94.3312 84.7076 94.071 84.6489 93.8527 84.5985C93.6345 84.5481 93.4331 84.4726 93.2484 84.3719C93.0806 84.2544 93.0134 84.0613 93.047 83.7927C93.0973 83.5074 93.1897 83.2388 93.324 82.987C93.4415 82.8191 93.5674 82.6596 93.7017 82.5086C93.8527 82.3407 94.0458 82.156 94.2808 81.9546C94.9019 81.4174 95.5734 81.1404 96.2952 81.1237C96.8324 81.1069 97.2185 81.2747 97.4535 81.6273C97.7053 81.9798 97.8983 82.3827 98.0326 82.8359ZM110.683 81.2999C110.834 81.2831 110.96 81.2831 111.061 81.2999C111.162 81.2999 111.254 81.2999 111.338 81.2999C111.455 81.2831 111.632 81.2747 111.867 81.2747C113.008 81.2747 114.133 81.6021 115.241 82.2568C115.728 82.5589 115.971 82.8779 115.971 83.2136C115.971 83.5829 115.719 83.9102 115.216 84.1956C114.796 84.4474 114.359 84.7412 113.906 85.0769C113.1 85.6141 112.412 86.0338 111.841 86.3359C111.288 86.6381 110.675 86.8479 110.003 86.9654C109.903 86.999 109.794 87.0913 109.676 87.2424C109.575 87.3767 109.533 87.4774 109.55 87.5446C109.584 87.6453 109.642 87.8551 109.726 88.1741C109.81 88.4762 109.903 88.7364 110.003 88.9546C110.121 89.1561 110.255 89.3239 110.406 89.4582C110.574 89.5925 110.826 89.6597 111.162 89.6597C111.497 89.6597 111.808 89.6093 112.093 89.5086C113.1 89.0386 114.057 88.451 114.964 87.746C115.232 87.5613 115.467 87.469 115.669 87.469C115.921 87.469 116.189 87.6033 116.475 87.8719C116.676 88.0566 116.777 88.2496 116.777 88.451C116.777 88.6693 116.617 88.9379 116.298 89.2568C114.871 90.6501 113.352 91.3467 111.741 91.3467C111.304 91.3467 110.767 91.2628 110.129 91.0949C109.055 90.8264 108.232 90.2304 107.662 89.3072C107.091 88.3839 106.805 87.3263 106.805 86.1345C106.805 85.7652 106.831 85.4127 106.881 85.0769C106.898 84.9594 106.931 84.716 106.982 84.3467C107.049 83.9606 107.15 83.6417 107.284 83.3899C107.922 82.1309 109.055 81.4342 110.683 81.2999ZM112.144 83.1129C111.841 83.0122 111.573 82.9618 111.338 82.9618C110.952 82.9618 110.65 83.0793 110.431 83.3143C110.213 83.5493 110.037 83.9019 109.903 84.3719C110.306 84.4222 110.734 84.3215 111.187 84.0697C111.657 83.8011 111.976 83.4822 112.144 83.1129ZM120.668 91.6741C119.258 91.6741 118.36 91.0698 117.974 89.8611C118.108 89.8611 118.285 89.8695 118.503 89.8863C118.738 89.8863 118.931 89.9031 119.082 89.9367C119.317 89.9702 119.485 89.987 119.586 89.987C120.341 89.987 120.97 89.6513 121.474 88.9798C121.827 88.493 122.003 87.9978 122.003 87.4942C122.003 87.1585 121.919 86.8311 121.751 86.5122C121.382 85.8575 120.928 85.1357 120.391 84.3467C120.039 83.8263 119.72 83.3311 119.434 82.8611C119.099 82.3239 118.931 81.728 118.931 81.0733C118.931 80.469 119.099 79.9402 119.434 79.487C119.787 79.0169 120.299 78.7232 120.97 78.6057L121.776 78.4546C122.649 78.2867 123.304 78.2028 123.74 78.2028C124.462 78.2028 125.1 78.3706 125.654 78.7064C125.771 78.7903 125.889 78.9414 126.006 79.1596C126.141 79.3611 126.241 79.5205 126.309 79.638C126.191 79.6884 126.023 79.7723 125.805 79.8898C125.604 79.9906 125.427 80.0493 125.276 80.0661C125.041 80.0997 124.689 80.1165 124.219 80.1165C123.765 80.1165 123.421 80.1249 123.186 80.1416C122.649 80.192 122.221 80.3766 121.902 80.6956C121.6 80.9978 121.449 81.3671 121.449 81.8035C121.449 82.1392 121.55 82.4834 121.751 82.8359C122.204 83.5913 122.834 84.4558 123.64 85.4294C124.244 86.1848 124.546 86.9654 124.546 87.7712C124.546 88.2076 124.445 88.6693 124.244 89.1561C123.556 90.8347 122.364 91.6741 120.668 91.6741ZM132.222 88.1489C132.021 88.9714 131.685 89.6093 131.215 90.0626C130.745 90.5158 130.191 90.7424 129.553 90.7424C128.73 90.7424 127.908 90.3899 127.085 89.6849C127.723 89.3491 128.126 89.1477 128.294 89.0805C128.73 88.8791 129.074 88.6021 129.326 88.2496C129.595 87.8971 129.729 87.5026 129.729 87.0661C129.729 86.9151 129.721 86.7976 129.704 86.7136C129.654 86.3443 129.57 85.9498 129.452 85.5302C129.335 85.0937 129.259 84.8083 129.226 84.674C129.142 84.3887 129.032 83.9606 128.898 83.3899C128.797 82.9702 128.705 82.5421 128.621 82.1057C128.537 81.6692 128.495 81.2831 128.495 80.9474C128.495 80.3934 128.613 79.8898 128.848 79.4366C129.1 78.9666 129.519 78.5217 130.107 78.1021C130.359 77.9174 130.644 77.7579 130.963 77.6236C131.299 77.4893 131.618 77.4138 131.92 77.397C132.138 77.3634 132.381 77.4054 132.65 77.5229C132.935 77.6404 133.112 77.7831 133.179 77.951C133.246 78.1021 133.221 78.3203 133.103 78.6057C132.986 78.8742 132.843 79.0757 132.675 79.21C131.702 79.9318 131.248 80.7376 131.315 81.6273C131.349 82.1309 131.483 82.8695 131.718 83.8431C131.886 84.4642 132.004 85.0014 132.071 85.4546C132.088 85.5889 132.13 85.8575 132.197 86.2604C132.281 86.6633 132.323 87.0326 132.323 87.3683C132.323 87.6705 132.289 87.9307 132.222 88.1489Z" fill="#161616"/>
<path d="M231.873 185.32C232.293 185.488 232.502 185.723 232.502 186.025C232.502 186.327 232.293 186.713 231.873 187.183C231.688 187.166 231.42 187.158 231.067 187.158C230.295 187.158 229.556 187.267 228.851 187.485C228.146 187.687 227.416 188.006 226.661 188.442C226.308 188.66 226.006 188.937 225.754 189.273C225.57 189.475 225.477 189.71 225.477 189.978C225.477 190.431 225.729 190.868 226.233 191.288C226.719 191.791 227.517 192.706 228.625 194.032L229.204 194.636C230.026 195.526 230.673 196.282 231.143 196.903C231.63 197.524 232.041 198.237 232.377 199.043C232.511 199.396 232.578 199.714 232.578 200C232.578 200.722 232.301 201.385 231.747 201.989C231.109 202.694 230.371 203.206 229.531 203.525C228.692 203.861 227.743 204.071 226.686 204.155C226.552 204.171 226.392 204.188 226.207 204.205C226.023 204.222 225.813 204.23 225.578 204.23C225.427 204.23 225.2 204.213 224.898 204.18C224.529 204.196 224.143 204.129 223.74 203.978C223.337 203.844 222.968 203.643 222.632 203.374C221.994 202.837 221.675 202.241 221.675 201.586C221.675 201.032 221.91 200.47 222.38 199.899C222.615 199.933 222.749 200.008 222.783 200.126C222.833 200.226 222.842 200.344 222.808 200.478C222.791 200.613 222.783 200.722 222.783 200.806C222.783 200.856 222.8 200.931 222.833 201.032C223.488 201.334 224.269 201.485 225.175 201.485C226.182 201.485 227.131 201.318 228.02 200.982C228.927 200.629 229.481 200.201 229.682 199.698C229.8 199.362 229.514 198.774 228.826 197.935C228.138 197.079 227.366 196.248 226.51 195.442C225.704 194.72 224.974 194.007 224.319 193.302C223.95 192.899 223.656 192.437 223.438 191.917C223.236 191.38 223.135 190.826 223.135 190.255C223.135 189.483 223.329 188.753 223.715 188.065C224.117 187.376 224.713 186.814 225.502 186.377C227.013 185.521 228.558 185.093 230.135 185.093C230.354 185.093 230.664 185.11 231.067 185.144C231.436 185.177 231.705 185.236 231.873 185.32ZM237.468 191.514C237.434 191.615 237.309 191.724 237.09 191.842C236.889 191.959 236.721 192.068 236.587 192.169L235.882 191.791C235.193 191.422 234.723 191.128 234.472 190.91C234.337 190.809 234.27 190.683 234.27 190.532C234.27 190.431 234.304 190.347 234.371 190.28C234.455 190.196 234.572 190.154 234.723 190.154C235.378 190.154 236.175 190.322 237.115 190.658C237.216 190.675 237.309 190.792 237.392 191.011C237.476 191.212 237.502 191.38 237.468 191.514ZM235.202 196.198C235.252 195.979 235.286 195.82 235.303 195.719C235.319 195.619 235.328 195.509 235.328 195.392C235.328 195.157 235.395 194.972 235.529 194.838C235.68 194.704 235.957 194.636 236.36 194.636C236.83 194.636 237.241 194.788 237.594 195.09C237.963 195.375 238.19 195.753 238.274 196.223C238.324 196.458 238.358 196.718 238.374 197.003C238.391 197.289 238.4 197.473 238.4 197.557L238.752 201.863C238.803 202.316 238.735 202.669 238.551 202.921C238.383 203.156 238.056 203.273 237.569 203.273C237.149 203.273 236.788 203.156 236.486 202.921C236.201 202.686 236.024 202.384 235.957 202.014L235.303 196.676L235.202 196.198ZM251.052 195.467C251.74 194.46 252.521 194.124 253.394 194.46C254.283 194.796 254.82 195.216 255.005 195.719L255.76 197.734C255.962 198.254 256.13 199.051 256.264 200.126C256.415 201.2 256.549 202.224 256.667 203.198C256.684 203.248 256.692 203.34 256.692 203.475C256.692 203.995 256.407 204.331 255.836 204.482C255.467 204.583 255.165 204.49 254.93 204.205C254.577 203.785 254.292 203.139 254.073 202.266C253.956 201.796 253.788 200.789 253.57 199.244C253.57 198.036 253.15 197.591 252.311 197.91C251.874 198.766 251.589 199.463 251.455 200C251.337 200.537 251.211 200.999 251.077 201.385C250.657 202.358 250.296 202.887 249.994 202.971C249.709 203.038 249.424 203.005 249.138 202.87C248.87 202.736 248.735 202.467 248.735 202.065C248.735 201.225 248.685 200.201 248.584 198.993C248.5 197.767 248.215 197.188 247.728 197.255C247.258 197.306 246.931 197.482 246.746 197.784C246.561 198.069 246.326 198.615 246.041 199.421C245.772 200.226 245.571 201.108 245.437 202.065C245.403 202.316 245.302 202.593 245.135 202.896C244.983 203.181 244.841 203.357 244.706 203.424C244.572 203.508 244.32 203.466 243.951 203.298C243.599 203.147 243.389 202.921 243.322 202.619C243.254 202.3 243.196 201.972 243.145 201.637C243.011 200.696 242.944 199.891 242.944 199.219C242.961 198.548 242.91 197.918 242.793 197.331C242.759 197.196 242.684 196.995 242.566 196.726C242.449 196.458 241.836 196.005 240.728 195.367C240.426 195.081 240.283 194.804 240.3 194.536C240.317 194.25 240.434 194.041 240.652 193.906C240.988 193.705 241.349 193.604 241.735 193.604C242.222 193.604 242.684 193.747 243.12 194.032C243.557 194.318 243.884 194.636 244.102 194.989C244.304 195.308 244.438 195.56 244.505 195.744C244.572 195.929 244.664 196.021 244.782 196.021C244.883 196.021 244.992 195.946 245.109 195.795C245.244 195.627 245.428 195.417 245.663 195.165C246.15 194.645 246.612 194.301 247.048 194.133C247.501 193.948 247.871 193.856 248.156 193.856C248.458 193.856 248.777 193.957 249.113 194.158C249.449 194.343 249.675 194.67 249.793 195.14L250.271 197.003L251.052 195.467ZM265.267 201.234C264.764 201.771 264.218 202.039 263.631 202.039C263.144 202.039 262.632 201.88 262.095 201.561L262.019 203.852C261.935 205.531 261.893 206.991 261.893 208.234C261.893 208.469 261.91 208.838 261.944 209.342C261.977 209.845 261.994 210.215 261.994 210.45C261.994 210.701 261.986 210.886 261.969 211.003C261.952 211.155 261.851 211.314 261.667 211.482C261.482 211.667 261.297 211.784 261.113 211.834C260.979 211.868 260.886 211.885 260.836 211.885C260.45 211.885 260.072 211.717 259.703 211.381C259.35 211.045 259.182 210.693 259.199 210.324C259.233 209.065 259.3 207.243 259.401 204.86L259.577 199.37C259.61 198.363 259.552 197.515 259.401 196.827C259.367 196.626 259.35 196.491 259.35 196.424C259.35 196.156 259.426 195.946 259.577 195.795C259.745 195.644 259.963 195.551 260.231 195.518C260.651 195.484 260.987 195.375 261.239 195.19C261.49 194.989 261.784 194.678 262.12 194.259C262.724 193.503 263.387 193.126 264.109 193.126C264.915 193.126 265.83 193.621 266.854 194.611C267.324 195.065 267.559 195.677 267.559 196.449C267.559 196.735 267.534 197.02 267.483 197.306C267.366 198.011 267.114 198.665 266.728 199.27C266.359 199.874 265.872 200.529 265.267 201.234ZM262.926 197.029C262.556 198.036 262.372 198.934 262.372 199.723C262.372 199.908 262.38 200.042 262.397 200.126L262.699 200.277C263.035 200.176 263.387 199.882 263.757 199.396C264.126 198.909 264.428 198.363 264.663 197.759C264.915 197.138 265.041 196.592 265.041 196.122C265.041 195.921 264.999 195.719 264.915 195.518C264.797 195.3 264.621 195.19 264.386 195.19C264.084 195.19 263.866 195.3 263.732 195.518C263.681 195.585 263.564 195.77 263.379 196.072C263.194 196.374 263.043 196.693 262.926 197.029ZM270.42 202.392C270.471 202.375 270.563 202.367 270.697 202.367C270.697 196.172 270.689 191.523 270.672 188.417C270.672 188.199 270.613 187.947 270.496 187.662C270.378 187.359 270.294 187.133 270.244 186.982C270.127 186.663 270.068 186.394 270.068 186.176C270.068 185.74 270.286 185.395 270.723 185.144C270.991 184.976 271.335 184.892 271.755 184.892C272.023 184.892 272.275 184.934 272.51 185.018C272.745 185.102 272.913 185.236 273.014 185.421C273.434 186.159 273.635 186.831 273.618 187.435C273.585 188.274 273.534 189.223 273.467 190.28C273.4 191.321 273.358 192.043 273.341 192.446C273.241 193.554 273.165 194.67 273.115 195.795L272.989 199.194C272.972 199.949 272.93 201.083 272.863 202.593C272.829 203.03 272.72 203.34 272.535 203.525C272.368 203.71 272.091 203.802 271.705 203.802C271.537 203.802 271.402 203.794 271.302 203.777C270.899 203.743 270.647 203.609 270.546 203.374C270.446 203.139 270.404 202.812 270.42 202.392ZM278.584 191.011C277.594 191.111 276.779 190.708 276.142 189.802C276.662 189.416 277.174 189.223 277.677 189.223C278.265 189.223 278.752 189.491 279.138 190.029C279.239 190.146 279.289 190.289 279.289 190.457C279.289 190.608 279.222 190.734 279.088 190.834C278.953 190.935 278.785 190.994 278.584 191.011ZM279.616 196.575C279.6 196.978 279.558 197.583 279.49 198.388L279.339 200.201C279.339 200.419 279.365 200.655 279.415 200.906C279.465 201.158 279.499 201.326 279.516 201.41C279.549 201.678 279.49 201.914 279.339 202.115C279.188 202.3 278.995 202.392 278.76 202.392C278.66 202.392 278.584 202.384 278.534 202.367C277.963 202.199 277.493 201.939 277.124 201.586C276.754 201.217 276.578 200.73 276.595 200.126C276.612 199.857 276.62 199.454 276.62 198.917C276.62 198.313 276.612 197.86 276.595 197.557C276.595 197.322 276.586 197.037 276.57 196.701C276.57 196.366 276.578 195.971 276.595 195.518C276.612 195.3 276.662 195.065 276.746 194.813C276.83 194.561 276.922 194.427 277.023 194.41C277.291 194.36 277.594 194.334 277.929 194.334C278.366 194.334 278.685 194.41 278.886 194.561C279.037 194.678 279.163 194.838 279.264 195.039C279.365 195.241 279.474 195.509 279.591 195.845C279.692 196.114 279.776 196.315 279.843 196.449L279.616 196.575ZM290.999 200.68C290.496 201.25 289.984 201.704 289.464 202.039C288.943 202.358 288.364 202.518 287.726 202.518C287.592 202.518 287.407 202.501 287.172 202.467L286.669 202.493C284.553 202.509 283.009 201.502 282.035 199.471C281.817 199.001 281.708 198.439 281.708 197.784C281.708 197.213 281.792 196.668 281.96 196.147C282.128 195.627 282.363 195.199 282.665 194.863L283.143 194.284C283.378 193.982 283.563 193.772 283.697 193.654C284.285 193.084 285.065 192.798 286.039 192.798C286.543 192.798 287.038 192.882 287.525 193.05C288.011 193.218 288.44 193.445 288.809 193.73C288.876 193.78 288.943 193.889 289.01 194.057C289.077 194.208 289.111 194.334 289.111 194.435C289.111 194.569 289.01 194.72 288.809 194.888C288.607 195.039 288.423 195.107 288.255 195.09C287.113 194.955 286.199 195.232 285.51 195.921C284.822 196.592 284.478 197.515 284.478 198.69C284.478 199.463 284.637 200.008 284.956 200.327C285.292 200.646 285.838 200.806 286.593 200.806C287.063 200.806 287.508 200.713 287.928 200.529C288.347 200.327 288.834 200.05 289.388 199.698L289.866 199.396C290.034 199.312 290.252 199.261 290.521 199.244C290.806 199.211 291.025 199.186 291.176 199.169C291.159 199.32 291.151 199.471 291.151 199.622C291.167 199.756 291.176 199.866 291.176 199.949C291.176 200.319 291.117 200.562 290.999 200.68ZM295.82 191.514C295.786 191.615 295.66 191.724 295.442 191.842C295.241 191.959 295.073 192.068 294.938 192.169L294.233 191.791C293.545 191.422 293.075 191.128 292.823 190.91C292.689 190.809 292.622 190.683 292.622 190.532C292.622 190.431 292.655 190.347 292.723 190.28C292.806 190.196 292.924 190.154 293.075 190.154C293.73 190.154 294.527 190.322 295.467 190.658C295.568 190.675 295.66 190.792 295.744 191.011C295.828 191.212 295.853 191.38 295.82 191.514ZM293.553 196.198C293.604 195.979 293.637 195.82 293.654 195.719C293.671 195.619 293.679 195.509 293.679 195.392C293.679 195.157 293.747 194.972 293.881 194.838C294.032 194.704 294.309 194.636 294.712 194.636C295.182 194.636 295.593 194.788 295.946 195.09C296.315 195.375 296.542 195.753 296.625 196.223C296.676 196.458 296.709 196.718 296.726 197.003C296.743 197.289 296.751 197.473 296.751 197.557L297.104 201.863C297.154 202.316 297.087 202.669 296.902 202.921C296.735 203.156 296.407 203.273 295.92 203.273C295.501 203.273 295.14 203.156 294.838 202.921C294.552 202.686 294.376 202.384 294.309 202.014L293.654 196.676L293.553 196.198ZM304.972 190.633C305.056 190.599 305.24 190.574 305.526 190.557C305.828 190.524 306.097 190.507 306.332 190.507C306.802 190.507 307.23 190.801 307.616 191.388L307.288 191.64C306.902 191.925 306.348 192.144 305.627 192.295C304.989 192.614 304.51 192.882 304.191 193.101C303.889 193.319 303.662 193.562 303.511 193.831C303.377 194.099 303.31 194.443 303.31 194.863C303.31 195.065 303.36 195.585 303.461 196.424L303.587 197.482C303.721 198.774 303.839 199.723 303.939 200.327C303.973 200.545 304.04 200.806 304.141 201.108C304.258 201.393 304.376 201.561 304.493 201.611C304.611 201.662 304.846 201.578 305.198 201.36C305.87 200.554 306.306 199.991 306.508 199.672C306.558 199.589 306.642 199.446 306.76 199.244C306.877 199.043 306.995 198.892 307.112 198.791C307.23 198.674 307.372 198.615 307.54 198.615C307.574 198.615 307.658 198.632 307.792 198.665C308.061 198.749 308.27 198.875 308.421 199.043C308.589 199.211 308.673 199.454 308.673 199.773C308.673 199.924 308.665 200.033 308.648 200.101C308.547 200.772 308.312 201.376 307.943 201.914C307.574 202.451 307.087 202.979 306.483 203.5C306.248 203.718 305.862 203.827 305.324 203.827C304.737 203.827 304.158 203.693 303.587 203.424C303.016 203.173 302.63 202.837 302.429 202.417C301.908 201.292 301.421 199.857 300.968 198.111C300.851 197.625 300.758 196.852 300.691 195.795L300.616 194.863C300.582 194.477 300.582 194.183 300.616 193.982C300.649 193.764 300.322 193.629 299.634 193.579C299.382 193.562 299.256 193.394 299.256 193.075C299.424 192.538 299.684 192.219 300.037 192.118C300.372 192.018 300.582 191.808 300.666 191.489C300.75 191.153 300.817 190.809 300.867 190.457C301.019 189.365 301.052 188.148 300.968 186.806C300.935 186.168 301.128 185.798 301.547 185.698L301.774 185.723C301.858 185.74 302.051 185.773 302.353 185.823C302.655 185.857 302.924 185.933 303.159 186.05C303.746 186.369 304.04 186.931 304.04 187.737C304.04 188.073 303.973 188.509 303.839 189.047C303.822 189.13 303.797 189.206 303.763 189.273C303.73 189.34 303.704 189.416 303.688 189.5C303.637 189.752 303.612 189.961 303.612 190.129C303.461 190.633 303.579 190.885 303.965 190.885C304.099 190.885 304.435 190.801 304.972 190.633ZM310.729 210.349C310.846 210.315 310.997 210.265 311.182 210.198C311.367 210.147 311.526 210.114 311.66 210.097C312.869 210.063 313.75 209.812 314.304 209.342C314.875 208.872 315.236 208.041 315.387 206.849C315.538 205.657 315.689 203.869 315.84 201.485L315.941 199.874C315.958 199.488 315.882 199.194 315.714 198.993C315.563 198.774 315.278 198.64 314.858 198.59C313.952 198.489 313.163 198.137 312.491 197.532C311.837 196.928 311.383 196.164 311.132 195.241C311.048 194.955 310.955 194.62 310.855 194.234C310.653 193.495 310.511 192.941 310.427 192.572V192.521C310.427 192.421 310.46 192.312 310.527 192.194C310.595 192.06 310.662 191.967 310.729 191.917C310.997 191.732 311.308 191.64 311.66 191.64C312.13 191.64 312.55 191.808 312.919 192.144C313.289 192.463 313.499 192.865 313.549 193.352C313.633 194.108 313.776 194.93 313.977 195.82C314.061 196.172 314.22 196.349 314.455 196.349C314.64 196.349 314.8 196.256 314.934 196.072C315.37 195.518 315.706 194.981 315.941 194.46C316.226 193.822 316.646 193.503 317.2 193.503C317.351 193.503 317.46 193.512 317.527 193.529C318.4 193.696 318.82 194.234 318.786 195.14L318.711 197.482C318.644 199.563 318.568 201.116 318.484 202.14L318.409 203.147C318.308 204.524 318.207 205.59 318.107 206.345C318.023 207.117 317.88 207.89 317.678 208.662C317.427 209.635 316.965 210.357 316.294 210.827C315.622 211.314 314.833 211.557 313.927 211.557C313.205 211.557 312.483 211.415 311.761 211.129C311.61 211.062 311.434 210.97 311.232 210.852C311.031 210.752 310.88 210.668 310.779 210.601L310.729 210.349Z" fill="#161616"/>
</svg>
