<svg width="307" height="18" viewBox="0 0 307 18" fill="none" xmlns="http://www.w3.org/2000/svg">
<path d="M299.181 16.9999V0.991943H306.981V2.43194H300.789V7.71194H305.901V9.15194H300.789V15.5599H306.981V16.9999H299.181Z" fill="#161616"/>
<path d="M284.694 2.43194H283.398V0.991943H287.622C288.486 0.991943 289.206 1.10394 289.782 1.32794C290.374 1.55194 290.902 1.95194 291.366 2.52794C291.83 3.08794 292.174 3.90394 292.398 4.97594C292.622 6.04794 292.734 7.39194 292.734 9.00794C292.734 9.63194 292.726 10.1599 292.71 10.5919C292.694 11.0079 292.646 11.5199 292.566 12.1279C292.502 12.7359 292.406 13.2479 292.278 13.6639C292.15 14.0639 291.958 14.4959 291.702 14.9599C291.462 15.4079 291.166 15.7679 290.814 16.0399C290.462 16.3119 290.014 16.5439 289.47 16.7359C288.942 16.9119 288.342 16.9999 287.67 16.9999H283.398V15.5599H284.694V2.43194ZM286.302 2.43194V15.5599H287.622C288.07 15.5599 288.438 15.5279 288.726 15.4639C289.03 15.3999 289.342 15.2479 289.662 15.0079C289.982 14.7519 290.23 14.3919 290.406 13.9279C290.598 13.4639 290.75 12.8239 290.862 12.0079C290.99 11.1919 291.054 10.1919 291.054 9.00794C291.054 7.83994 290.99 6.83994 290.862 6.00794C290.734 5.15994 290.574 4.51194 290.382 4.06394C290.206 3.59994 289.966 3.24794 289.662 3.00794C289.374 2.75194 289.11 2.59194 288.87 2.52794C288.63 2.46394 288.342 2.43194 288.006 2.43194H286.302Z" fill="#161616"/>
<path d="M272.056 15.5599V2.43194H269.896V0.991943H275.848V2.43194H273.664V15.5599H275.848V16.9999H269.896V15.5599H272.056Z" fill="#161616"/>
<path d="M261.385 0.680054L262.993 0.992053L261.385 17.3121H260.689L258.025 7.64005H257.977L255.313 17.3121H254.617L253.009 0.992053L254.617 0.680054L255.385 12.7041H255.433L257.761 4.28005H258.241L260.569 12.7041H260.617L261.385 0.680054Z" fill="#161616"/>
<path d="M228.259 7.78395L230.563 0.991943H232.579L233.059 16.9999H231.355L231.043 3.65594H230.995L228.259 11.6959L225.523 3.65594H225.475L225.163 16.9999H223.483L223.963 0.991943H225.955L228.259 7.78395Z" fill="#161616"/>
<path d="M215.573 12.0559H211.205L209.957 17.3119L208.373 16.8799L212.429 0.991943H214.349L218.405 16.8799L216.821 17.3119L215.573 12.0559ZM215.189 10.6159L213.413 3.12794H213.365L211.589 10.6159H215.189Z" fill="#161616"/>
<path d="M195.374 16.9999V0.991943H196.982V15.5599H203.558V16.9999H195.374Z" fill="#161616"/>
<path d="M180.215 16.9999V0.991943H188.015V2.43194H181.823V7.71194H186.935V9.15194H181.823V15.5599H188.015V16.9999H180.215Z" fill="#161616"/>
<path d="M167.073 2.43194V8.43194H169.425C170.145 8.43194 170.697 8.16794 171.081 7.63994C171.481 7.09594 171.681 6.29594 171.681 5.23994C171.681 4.23194 171.457 3.51194 171.009 3.07994C170.561 2.64794 169.905 2.43194 169.041 2.43194H167.073ZM165.465 16.9999V0.991943H169.785C170.681 0.991943 171.497 1.36794 172.233 2.11994C172.985 2.87194 173.361 3.91194 173.361 5.23994C173.361 6.29594 173.129 7.23194 172.665 8.04794C172.217 8.86394 171.529 9.43194 170.601 9.75194L173.913 16.6159L172.473 17.3119L168.873 9.87194H167.073V16.9999H165.465Z" fill="#161616"/>
<path d="M134.86 16.9999V0.991943H136.876L141.628 14.4559L141.676 14.4079L141.604 10.8319V0.991943H143.212V16.9999H141.196L136.444 3.51194L136.396 3.55994L136.468 7.18394V16.9999H134.86Z" fill="#161616"/>
<path d="M126.349 12.0559H121.981L120.733 17.3119L119.149 16.8799L123.205 0.991943H125.125L129.181 16.8799L127.597 17.3119L126.349 12.0559ZM125.965 10.6159L124.189 3.12794H124.141L122.365 10.6159H125.965Z" fill="#161616"/>
<path d="M108.478 15.5599V2.43194H106.318V0.991943H112.27V2.43194H110.086V15.5599H112.27V16.9999H106.318V15.5599H108.478Z" fill="#161616"/>
<path d="M91.2798 16.9999V0.991943H92.8878V15.5599H99.4638V16.9999H91.2798Z" fill="#161616"/>
<path d="M78.7372 15.5599V2.43194H76.5771V0.991943H82.5292V2.43194H80.3451V15.5599H82.5292V16.9999H76.5771V15.5599H78.7372Z" fill="#161616"/>
<path d="M64.6827 7.78395L66.9867 0.991943H69.0027L69.4827 16.9999H67.7787L67.4667 3.65594H67.4187L64.6827 11.6959L61.9467 3.65594H61.8987L61.5867 16.9999H59.9067L60.3867 0.991943H62.3787L64.6827 7.78395Z" fill="#161616"/>
<path d="M48.9959 15.5599V2.43194H46.8359V0.991943H52.7879V2.43194H50.6039V15.5599H52.7879V16.9999H46.8359V15.5599H48.9959Z" fill="#161616"/>
<path d="M34.9651 9.99205L31.4131 17.3121L29.9731 16.6401L34.1491 8.28805L30.7171 1.42405L32.2051 0.680054L34.9411 6.65605L37.6771 0.680054L39.1651 1.42405L35.7331 8.28805L39.9091 16.6401L38.4691 17.3121L34.9651 9.99205Z" fill="#161616"/>
<path d="M22.2547 12.0559H17.8867L16.6387 17.3119L15.0547 16.8799L19.1107 0.991943H21.0307L25.0867 16.8799L23.5027 17.3119L22.2547 12.0559ZM21.8707 10.6159L20.0947 3.12794H20.0467L18.2707 10.6159H21.8707Z" fill="#161616"/>
<path d="M5.19983 7.78395L7.50383 0.991943H9.51983L9.99983 16.9999H8.29583L7.98383 3.65594H7.93583L5.19983 11.6959L2.46383 3.65594H2.41583L2.10383 16.9999H0.423828L0.903828 0.991943H2.89583L5.19983 7.78395Z" fill="#161616"/>
</svg>
