<svg width="384" height="218" viewBox="0 0 384 218" fill="none" xmlns="http://www.w3.org/2000/svg">
<path d="M121.872 179.712C183.413 177.025 245.216 172.811 306.851 172.811C314.246 172.811 321.862 172.658 329.224 173.501C333.107 173.946 336.845 173.979 340.752 173.979" stroke="#161616" stroke-width="2.4192" stroke-linecap="round"/>
<path d="M157.674 139.849C180.625 125.356 206.452 112.853 226.703 94.4432C230.201 91.2638 234.485 88.6091 237.437 84.9201C249.388 69.9814 262.348 55.5623 271.32 38.5146C277.587 26.6073 283.767 14.6355 291.208 3.47363" stroke="#161616" stroke-width="2.4192" stroke-linecap="round"/>
<path d="M121.578 2.05273C124.342 31.6499 126.313 61.0576 126.313 90.7862C126.313 99.4592 126.672 108.218 126.286 116.883C125.992 123.503 124.892 130.142 124.892 136.771C124.892 146.009 123.735 155.254 123.472 164.472C123.361 168.348 121.104 172.076 121.104 175.837" stroke="#161616" stroke-width="2.304" stroke-linecap="round"/>
<path d="M17.4123 156.963C17.4705 157.014 17.5425 157.065 17.6282 157.115C17.6994 157.152 17.7706 157.189 17.8417 157.226C17.9595 157.122 18.1216 156.954 18.328 156.721C19.2309 155.701 19.9412 154.459 20.4589 152.995C20.6132 152.585 20.7807 152.279 20.9613 152.075C21.3225 151.667 21.8085 151.5 22.4194 151.573C22.7394 151.623 22.9723 151.712 23.1179 151.841C23.2927 151.996 23.3909 152.252 23.4125 152.609C23.4355 153.669 23.1931 154.558 22.6854 155.278C22.2423 155.925 21.5921 156.909 20.7349 158.229L19.5989 159.952C19.9023 160.636 20.2943 161.191 20.7749 161.617C21.474 162.236 22.2695 162.512 23.1612 162.444C24.0513 162.349 24.885 161.892 25.6623 161.073C26.438 160.226 27.3537 159.075 28.4093 157.619L28.6777 157.272C29.0002 156.908 29.3521 156.687 29.7332 156.608C30.1127 156.503 30.6104 156.528 31.2263 156.683C31.434 157.153 31.4671 157.585 31.3256 157.98C31.1987 158.387 30.958 158.85 30.6034 159.367C30.236 159.9 29.7814 160.472 29.2396 161.083C28.0657 162.409 26.7968 163.416 25.4327 164.105C23.0404 165.339 20.7163 165.425 18.4605 164.362C18.1484 164.216 17.854 164.02 17.5772 163.775C17.2859 163.517 17.1111 163.362 17.0529 163.311C16.5577 162.872 15.9807 162.79 15.322 163.064C14.7552 163.264 14.2731 163.383 13.8757 163.421C13.4912 163.444 13.0693 163.304 12.6099 163.001L14.6434 160.397L12.4187 156.438C12.3425 156.319 12.2445 156.18 12.1247 156.022C12.0032 155.836 11.9181 155.683 11.8694 155.562C11.6942 155.173 11.5119 154.895 11.3226 154.727C11.0313 154.469 10.6538 154.382 10.1903 154.465C10.0272 154.502 9.81868 154.474 9.56484 154.379C9.30933 154.256 9.09752 154.173 8.9294 154.128L9.20216 153.512C9.35029 153.227 9.44766 153.014 9.49426 152.874C9.51673 152.79 9.5754 152.621 9.67027 152.367C9.75058 152.1 9.75266 151.907 9.6765 151.788C9.5192 151.466 9.46135 151.194 9.50296 150.971C9.55746 150.734 9.68146 150.506 9.87496 150.287C10.004 150.141 10.212 149.936 10.4991 149.67C10.5765 149.583 10.6758 149.515 10.7969 149.466C10.9163 149.39 11.0309 149.349 11.1408 149.342C11.787 149.317 12.349 149.152 12.8267 148.847C13.3044 148.542 13.7884 148.113 14.2786 147.56L15.1106 146.62L16.736 144.785C17.8324 143.547 18.6661 142.635 19.237 142.049C19.5354 141.742 20.035 141.457 20.7357 141.194C20.8568 141.145 21.0022 141.157 21.172 141.229C21.3401 141.274 21.4825 141.348 21.599 141.451C21.6572 141.503 21.6849 141.618 21.682 141.798C21.6645 141.964 21.6317 142.104 21.5834 142.217C20.9684 143.44 20.457 144.325 20.0492 144.874C19.4254 145.725 18.4752 146.988 17.1986 148.665C16.8907 149.042 16.4111 149.656 15.7599 150.509C15.7083 150.567 15.6034 150.656 15.4453 150.776C15.2726 150.883 15.154 150.973 15.0895 151.046C14.6122 151.585 14.5348 152.127 14.8573 152.673C15.6742 154.098 16.5032 155.495 17.3442 156.863L17.4123 156.963ZM31.6286 143.464C32.1529 143.928 32.5146 144.21 32.7135 144.308C32.9253 144.392 33.1215 144.331 33.3021 144.128C33.4698 143.938 33.6905 143.601 33.9643 143.116L34.4094 142.613C35.1446 141.783 35.7782 141.435 36.31 141.568C36.4036 141.521 36.5482 141.519 36.7438 141.562C36.9248 141.592 37.0501 141.612 37.1196 141.622C37.1117 141.719 37.1071 141.871 37.1059 142.078C37.0901 142.272 37.0443 142.426 36.9686 142.541C36.7447 142.94 36.3943 143.527 35.9175 144.3C35.8159 144.444 35.6459 144.709 35.4075 145.096C35.0451 145.71 35.1187 146.243 35.6285 146.695C35.7013 146.759 35.8526 146.867 36.0823 147.019C37.0236 147.541 37.8444 148.008 38.5448 148.42C39.2306 148.82 39.8024 149.157 40.2601 149.432L42.531 150.742C43.3591 151.215 43.9625 151.62 44.3411 151.955C44.6179 152.2 44.7637 152.447 44.7787 152.694C44.8083 152.954 44.6554 153.273 44.32 153.652C44.0362 153.972 43.7432 154.142 43.4411 154.16C43.139 154.178 42.7809 154.069 42.3669 153.832C41.5808 153.37 40.3759 152.706 38.7521 151.839L34.5063 149.326C33.6357 148.607 32.8457 148.648 32.1362 149.449C31.904 149.712 31.6991 149.855 31.5214 149.88C31.3712 149.902 31.2201 149.912 31.0682 149.907C30.9018 149.89 30.7749 149.842 30.6875 149.765C30.6146 149.7 30.5732 149.586 30.5632 149.421C30.5516 149.229 30.5772 149.082 30.64 148.982C31.0316 148.393 31.1955 147.915 31.1318 147.546C31.0811 147.164 30.8291 146.758 30.3759 146.331L29.0164 145.049C28.4176 144.493 27.8106 143.916 27.1956 143.319C26.5805 142.723 26.0576 142.169 25.6269 141.657C25.2561 141.225 25.1115 140.772 25.1931 140.298C25.2601 139.812 25.5322 139.299 26.0095 138.76C26.2159 138.527 26.3844 138.352 26.5151 138.233C26.8151 137.953 27.2703 137.733 27.8808 137.572C28.4767 137.398 28.9332 137.425 29.2503 137.654C30.2095 138.244 30.3901 138.95 29.7921 139.771C29.2516 140.176 29.0519 140.519 29.1929 140.8C29.334 141.081 29.5519 141.378 29.8465 141.691C30.0358 141.859 30.2924 142.112 30.6161 142.45C30.927 142.804 31.2645 143.142 31.6286 143.464ZM51.4291 143.336C52.0271 144.334 52.081 145.109 51.5908 145.663C51.2812 146.012 50.7606 146.292 50.0291 146.502C49.5717 145.551 48.877 144.662 47.9448 143.837C47.4642 143.411 46.944 143.015 46.3843 142.65C45.8392 142.297 45.1525 141.884 44.3244 141.41L43.7445 141.052C43.1445 140.703 42.7321 140.494 42.5074 140.425C42.2827 140.355 42.0775 140.382 41.8919 140.503C41.7063 140.625 41.3805 140.934 40.9145 141.431L40.6604 141.674C40.4041 141.992 40.1145 142.217 39.7916 142.347C39.467 142.449 39.1809 142.39 38.9333 142.171C38.7585 142.016 38.6586 141.733 38.6336 141.321C38.6087 140.909 38.6557 140.548 38.7747 140.237C39.0031 139.686 39.1211 139.245 39.1286 138.913C39.1215 138.569 38.9796 138.275 38.7029 138.03C38.5135 137.862 38.207 137.694 37.7834 137.527C36.8017 137.022 35.9978 136.491 35.3715 135.937C34.3161 134.898 33.4362 133.911 32.7317 132.975C32.492 132.659 32.3927 132.272 32.4339 131.815C32.4734 131.33 32.6222 130.942 32.8802 130.651C32.9318 130.592 33.0237 130.518 33.1561 130.427C33.5934 130.139 33.9244 130.029 34.1492 130.098C34.3868 130.153 34.6737 130.225 35.0099 130.315C35.3187 130.406 35.5178 130.622 35.6073 130.961C36.0547 132.656 37.5438 134.144 40.0748 135.424C40.3448 135.559 40.597 135.627 40.8313 135.626C41.0785 135.611 41.3182 135.473 41.5504 135.211C41.7826 134.949 41.9638 134.641 42.094 134.289C42.3096 133.752 42.5076 133.382 42.6882 133.178C42.9591 132.872 43.328 132.705 43.7949 132.676C43.9742 132.679 44.1625 132.716 44.3598 132.787C44.5554 132.83 44.705 132.911 44.8086 133.028C44.9268 133.159 44.891 133.478 44.7013 133.986C44.3392 134.835 43.9554 135.664 43.5497 136.475C43.4144 136.745 43.3591 136.969 43.3837 137.146C43.4082 137.324 43.5152 137.497 43.7045 137.664C43.8502 137.793 43.9731 137.889 44.0734 137.952C46.0646 139.196 48.1101 140.54 50.21 141.984C50.6856 142.327 51.092 142.778 51.4291 143.336ZM45.2806 124.704C45.3821 124.561 45.4789 124.451 45.5708 124.377C45.6482 124.289 45.7192 124.209 45.7837 124.136C45.8594 124.022 45.9876 123.862 46.1682 123.658C47.0454 122.668 48.1936 121.944 49.6131 121.485C50.2493 121.295 50.7131 121.329 51.0044 121.587C51.3248 121.871 51.4153 122.341 51.2759 122.997C51.1719 123.555 51.0914 124.159 51.0344 124.81C50.8813 125.922 50.7166 126.842 50.5401 127.569C50.3766 128.282 50.0878 128.975 49.6738 129.648C49.6255 129.761 49.6218 129.927 49.6626 130.145C49.7017 130.335 49.7568 130.449 49.828 130.486C49.9412 130.535 50.1684 130.645 50.5096 130.817C50.8363 130.976 51.133 131.096 51.3997 131.177C51.6648 131.229 51.9137 131.242 52.1463 131.214C52.3918 131.172 52.6435 131.005 52.9015 130.713C53.1595 130.422 53.3545 130.114 53.4864 129.789C53.8525 128.554 54.0781 127.272 54.1629 125.944C54.2091 125.569 54.3096 125.294 54.4644 125.119C54.6579 124.901 54.9808 124.771 55.4331 124.73C55.7481 124.697 55.993 124.758 56.1678 124.913C56.3571 125.08 56.4676 125.425 56.4993 125.947C56.6117 128.256 56.0487 130.109 54.8103 131.507C54.475 131.886 53.9893 132.288 53.3535 132.712C52.2949 133.438 51.1458 133.694 49.9061 133.479C48.6664 133.265 47.5296 132.7 46.4955 131.784C46.175 131.5 45.8885 131.208 45.6359 130.906C45.5469 130.801 45.3615 130.585 45.0797 130.257C44.7964 129.902 44.597 129.57 44.4817 129.26C43.8796 127.739 44.1459 126.22 45.2806 124.704ZM47.9759 124.831C47.6563 125.015 47.4062 125.21 47.2256 125.414C46.9289 125.749 46.7987 126.101 46.8349 126.471C46.8711 126.841 47.0415 127.265 47.3461 127.742C47.6994 127.432 47.941 126.983 48.0708 126.396C48.1989 125.782 48.1673 125.26 47.9759 124.831ZM64.2378 115.977C64.346 116.853 64.3458 117.645 64.2372 118.355C64.114 119.051 63.8074 119.676 63.3172 120.23C63.214 120.346 63.0575 120.494 62.8478 120.672L62.4827 121.128C60.8719 122.976 58.8112 123.542 56.3007 122.826C55.7252 122.654 55.1534 122.317 54.5854 121.814C54.0902 121.375 53.6813 120.883 53.3588 120.337C53.0363 119.792 52.8455 119.259 52.7864 118.739L52.6515 117.879C52.5699 117.443 52.5298 117.121 52.531 116.914C52.4873 115.966 52.8395 115.069 53.5877 114.225C53.9747 113.788 54.4281 113.422 54.9478 113.129C55.4675 112.836 55.9931 112.638 56.5245 112.537C56.6198 112.518 56.7661 112.543 56.9633 112.614C57.146 112.672 57.281 112.74 57.3684 112.817C57.4849 112.92 57.5386 113.124 57.5295 113.427C57.5058 113.718 57.4221 113.93 57.2786 114.063C56.2849 114.95 55.8222 115.957 55.8904 117.083C55.9441 118.196 56.4808 119.204 57.5003 120.107C58.1703 120.7 58.7662 120.981 59.288 120.95C59.8227 120.903 60.3804 120.553 60.9608 119.897C61.322 119.489 61.5838 119.032 61.746 118.526C61.8938 118.007 62.0275 117.372 62.1473 116.621L62.2528 115.973C62.309 115.763 62.433 115.535 62.6248 115.289C62.815 115.016 62.9608 114.807 63.0624 114.663C63.1806 114.794 63.3052 114.917 63.4363 115.033C63.5657 115.122 63.6668 115.199 63.7396 115.263C64.0601 115.547 64.2261 115.785 64.2378 115.977ZM61.7982 101.169C61.8336 101.07 61.9537 100.891 62.1584 100.63C62.3615 100.342 62.5533 100.096 62.7339 99.8922C63.0951 99.4844 63.6789 99.3388 64.4854 99.4553L64.4523 99.9328C64.4032 100.487 64.1669 101.135 63.7432 101.878C63.5298 102.676 63.3952 103.298 63.3394 103.742C63.2966 104.172 63.3336 104.556 63.4506 104.893C63.5804 105.216 63.8274 105.539 64.1915 105.861C64.3663 106.016 64.8565 106.372 65.6621 106.93L66.6765 107.633C67.9012 108.51 68.8144 109.137 69.4161 109.514C69.6313 109.653 69.9086 109.794 70.2482 109.939C70.5861 110.056 70.822 110.083 70.956 110.02C71.09 109.957 71.1978 109.689 71.2793 109.215C71.0962 108.013 70.9437 107.202 70.8217 106.783C70.7876 106.674 70.7283 106.492 70.6438 106.235C70.5593 105.978 70.5186 105.76 70.5215 105.581C70.5098 105.389 70.5685 105.22 70.6975 105.074C70.7233 105.045 70.8023 104.985 70.9347 104.894C71.2139 104.726 71.4844 104.64 71.7461 104.638C72.0208 104.622 72.2964 104.736 72.5732 104.981C72.7043 105.097 72.7925 105.188 72.8378 105.254C73.343 105.858 73.6868 106.526 73.8691 107.259C74.0513 107.993 74.136 108.821 74.1232 109.745C74.1319 110.117 73.9299 110.536 73.5171 111.002C73.0656 111.512 72.5041 111.911 71.8324 112.2C71.1754 112.502 70.5874 112.579 70.0685 112.431C68.6927 112.018 67.0734 111.338 65.2103 110.389C64.6976 110.117 63.9567 109.604 62.9875 108.849L62.1211 108.199C61.7603 107.931 61.5054 107.706 61.3565 107.522C61.1929 107.325 60.8249 107.506 60.2523 108.064C60.0442 108.27 59.8018 108.25 59.5251 108.005C59.188 107.447 59.1112 106.976 59.2947 106.592C59.4653 106.224 59.4445 105.88 59.2323 105.563C59.0055 105.232 58.7585 104.909 58.4913 104.594C57.6607 103.625 56.6306 102.66 55.4009 101.701C54.8216 101.24 54.6495 100.789 54.8846 100.347L55.0806 100.17C55.1597 100.11 55.3372 99.9686 55.6131 99.7451C55.8744 99.5087 56.1463 99.3337 56.4289 99.2201C57.1571 98.9555 57.8708 99.1327 58.5699 99.7519C58.8612 100.01 59.1883 100.404 59.5511 100.933C59.6111 101.012 59.6573 101.092 59.6897 101.173C59.7222 101.253 59.7684 101.333 59.8283 101.412C60.0081 101.649 60.1708 101.833 60.3164 101.961C60.6373 102.48 60.946 102.571 61.2427 102.236C61.3459 102.12 61.5311 101.764 61.7982 101.169ZM69.154 94.4041C69.2156 94.5106 69.2135 94.7037 69.1477 94.9833C69.0949 95.2484 69.0606 95.4779 69.0448 95.6718L68.1753 95.9933C67.326 96.3067 66.7099 96.4887 66.327 96.5395C66.1365 96.5786 65.9756 96.5401 65.8445 96.424C65.7571 96.3466 65.7101 96.253 65.7035 96.1432C65.6951 96.0058 65.749 95.8716 65.8651 95.7405C66.3682 95.1725 67.1266 94.6097 68.1403 94.052C68.2322 93.9776 68.4051 93.9877 68.659 94.0826C68.8982 94.1646 69.0632 94.2717 69.154 94.4041ZM71.4761 99.9693C71.3255 99.7579 71.2129 99.6063 71.1384 99.5143C71.0639 99.4223 70.9757 99.3312 70.8737 99.2409C70.6698 99.0603 70.5612 98.8602 70.5479 98.6404C70.5475 98.4062 70.7021 98.1142 71.0117 97.7647C71.3728 97.3569 71.82 97.1161 72.353 97.0425C72.8844 96.9413 73.3863 97.0349 73.8586 97.3233C74.1012 97.4602 74.3528 97.631 74.6133 97.8358C74.8738 98.0405 75.0404 98.1751 75.1132 98.2396L79.12 101.242C79.552 101.547 79.8062 101.876 79.8828 102.23C79.9577 102.556 79.8081 102.931 79.434 103.353C79.1116 103.717 78.7323 103.94 78.2962 104.021C77.873 104.088 77.4753 104.009 77.1033 103.784L71.9686 100.25L71.4761 99.9693ZM80.19 92.8156C80.3581 92.8605 80.6055 92.9627 80.9322 93.1221C81.5693 93.4004 81.9299 93.5509 82.0139 93.5733C81.7314 92.7773 81.4367 92.0095 81.13 91.2701C80.6302 90.0737 80.3087 89.2042 80.1656 88.6616C79.8988 87.6716 79.7758 86.666 79.7966 85.6449C79.7833 85.4251 79.8476 85.2352 79.9895 85.075C80.1185 84.9293 80.2799 84.8644 80.4738 84.8802C80.6806 84.8814 80.8843 84.9449 81.0849 85.0706C81.1561 85.1076 81.2572 85.1842 81.3883 85.3003C81.7087 85.5841 81.9775 85.9261 82.1948 86.3264C82.5693 87.048 83.483 88.8188 84.9357 91.6389L86.5288 94.7261C86.7768 95.1797 86.8665 95.636 86.7978 96.0949C86.7566 96.5523 86.5941 96.9412 86.3103 97.2616C85.8847 97.7422 85.3067 97.984 84.5764 97.9869C84.1207 97.9732 83.4692 97.7991 82.622 97.4645C79.975 96.3157 77.716 95.3156 75.845 94.4642C75.6898 94.4047 75.4861 94.3412 75.2339 94.2738C74.9801 94.179 74.7949 94.0799 74.6784 93.9767C74.4745 93.7961 74.3892 93.5257 74.4225 93.1653C74.4557 92.8049 74.582 92.5009 74.8013 92.2533C75.0464 91.9766 75.4879 91.7569 76.1259 91.5941C76.6023 91.4963 77.037 91.5044 77.4298 91.6185C77.8226 91.7325 78.2964 91.9312 78.8511 92.2145C79.4204 92.5108 79.8667 92.7112 80.19 92.8156ZM87.6088 79.5973C87.6379 79.6231 87.6945 79.6472 87.7786 79.6697C87.8755 79.6776 87.9588 79.6863 88.0282 79.6959L87.6425 78.1067C87.496 77.5091 87.5605 76.9815 87.8359 76.5237C88.1097 76.0385 88.4784 75.7543 88.942 75.6711C90.0872 75.4638 91.1108 75.5258 92.013 75.857L93.4293 76.3707L97.976 79.0721C98.4483 79.3604 99.0224 79.622 99.6982 79.8566C100.122 80.0239 100.433 80.1566 100.632 80.2548L101.549 80.7161C101.33 81.198 101.111 81.5627 100.892 81.8103C100.092 82.7134 99.2068 82.8911 98.2364 82.3435C97.2789 81.7813 96.1426 81.1128 94.8276 80.338L93.4981 79.5503C92.1252 78.9582 91.2655 78.8725 90.9189 79.2932C90.5577 79.701 90.4535 80.1415 90.6062 80.6146C90.8126 81.2913 91.1586 81.8836 91.6443 82.3917C92.1282 82.8723 92.7926 83.4867 93.6374 84.2349C93.8933 84.5915 94.0223 84.9007 94.0244 85.1624C94.0119 85.4113 93.8702 85.6886 93.5993 85.9945C92.9802 86.6936 92.3089 86.7619 91.5857 86.1993C90.7185 85.5352 89.7751 84.7516 88.7555 83.8486C88.4642 83.5906 88.1836 83.394 87.9135 83.2588C87.6434 83.1235 87.4181 83.1579 87.2375 83.3618C87.1601 83.4492 87.0642 83.5722 86.9497 83.7307C86.8482 83.8747 86.7579 83.9766 86.6788 84.0366C86.3884 84.2471 86.1375 84.4277 85.9261 84.5784C85.7147 84.729 85.4944 84.8458 85.2651 84.9286C85.0341 84.9839 84.815 84.8938 84.6078 84.6583C84.3989 84.3953 84.2368 84.1088 84.1215 83.7988C84.0662 83.5679 84.0245 83.3361 83.9967 83.1035C83.9671 82.8434 83.9552 82.534 83.9611 82.1753C83.9723 81.2236 84.2479 80.4282 84.7881 79.789C85.1863 79.31 85.6286 79.104 86.1151 79.171C86.6144 79.2234 87.1123 79.3655 87.6088 79.5973ZM95.9974 67.4407C96.0989 67.2968 96.1957 67.1875 96.2877 67.113C96.3651 67.0256 96.436 66.9455 96.5005 66.8727C96.5762 66.7579 96.7044 66.5985 96.885 66.3946C97.7622 65.4042 98.9105 64.6799 100.33 64.2217C100.966 64.0315 101.43 64.0654 101.721 64.3234C102.042 64.6072 102.132 65.0772 101.993 65.7334C101.889 66.291 101.808 66.8955 101.751 67.5467C101.598 68.6586 101.433 69.5783 101.257 70.3057C101.093 71.0185 100.805 71.7114 100.391 72.3842C100.342 72.4974 100.339 72.6631 100.379 72.8811C100.419 73.0717 100.474 73.1855 100.545 73.2225C100.658 73.2708 100.885 73.3811 101.226 73.5533C101.553 73.7127 101.85 73.8326 102.117 73.9129C102.382 73.9657 102.63 73.9782 102.863 73.9503C103.109 73.9078 103.36 73.741 103.618 73.4497C103.876 73.1584 104.071 72.8502 104.203 72.5252C104.569 71.2901 104.795 70.0085 104.88 68.6802C104.926 68.3052 105.026 68.0304 105.181 67.8556C105.375 67.6371 105.698 67.5073 106.15 67.4661C106.465 67.4332 106.71 67.4942 106.885 67.649C107.074 67.8166 107.184 68.1614 107.216 68.6832C107.328 70.9919 106.766 72.8454 105.527 74.2436C105.192 74.6223 104.706 75.0239 104.07 75.4483C103.012 76.1741 101.863 76.4298 100.623 76.2155C99.3833 76.0013 98.2464 75.4362 97.2123 74.5203C96.8918 74.2365 96.6053 73.9438 96.3527 73.6421C96.2637 73.5372 96.0783 73.3211 95.7966 72.9936C95.5132 72.6386 95.3138 72.3061 95.1986 71.9961C94.5964 70.4752 94.8627 68.9567 95.9974 67.4407ZM98.6927 67.5668C98.3731 67.7515 98.123 67.9459 97.9424 68.1498C97.6457 68.4848 97.5155 68.8372 97.5517 69.2072C97.5879 69.5771 97.7583 70.0009 98.0629 70.4786C98.4162 70.1678 98.6578 69.719 98.7876 69.1322C98.9158 68.518 98.8841 67.9962 98.6927 67.5668ZM112.671 66.7493C111.588 67.9727 110.373 68.2875 109.028 67.6938C109.131 67.5772 109.274 67.4308 109.456 67.2543C109.637 67.0504 109.8 66.8958 109.945 66.7905C110.155 66.6124 110.298 66.4797 110.376 66.3923C110.956 65.7369 111.149 64.9327 110.953 63.9798C110.802 63.2998 110.507 62.7663 110.07 62.3793C109.779 62.1213 109.431 61.9426 109.025 61.8432C108.173 61.6605 107.198 61.4991 106.101 61.3589C105.379 61.2649 104.704 61.161 104.077 61.0475C103.353 60.926 102.707 60.6137 102.139 60.1106C101.614 59.6462 101.285 59.0942 101.149 58.4546C101.012 57.7876 101.151 57.1176 101.565 56.4447L102.053 55.6295C102.578 54.7431 103.008 54.1106 103.344 53.7319C103.898 53.1056 104.534 52.6812 105.251 52.4585C105.414 52.4211 105.636 52.4352 105.915 52.5009C106.193 52.5392 106.409 52.5744 106.563 52.6064C106.516 52.7471 106.46 52.9572 106.394 53.2369C106.327 53.489 106.242 53.6871 106.141 53.8311C105.989 54.0608 105.733 54.3796 105.372 54.7874C105.024 55.1806 104.766 55.4857 104.6 55.7025C104.231 56.2072 104.063 56.7205 104.094 57.2424C104.124 57.7367 104.328 58.1516 104.707 58.487C104.998 58.745 105.374 58.922 105.835 59.0182C106.839 59.2054 108.073 59.3235 109.537 59.3726C110.656 59.4288 111.566 59.7664 112.265 60.3856C112.644 60.721 112.967 61.1631 113.234 61.712C114.162 63.5991 113.974 65.2782 112.671 66.7493ZM118.491 54.0158C119.05 54.8227 119.346 55.6042 119.378 56.3603C119.41 57.1164 119.181 57.7712 118.69 58.3247C118.058 59.0383 117.12 59.4811 115.877 59.653C116.076 58.8416 116.21 58.3372 116.281 58.14C116.442 57.6065 116.466 57.095 116.353 56.6057C116.254 56.1017 116.015 55.6821 115.636 55.3467C115.505 55.2306 115.397 55.1476 115.311 55.0977C114.952 54.8576 114.545 54.6272 114.091 54.4067C113.622 54.1733 113.316 54.0195 113.174 53.9454C112.862 53.799 112.406 53.5647 111.808 53.2426C111.366 53.0075 110.924 52.7587 110.481 52.4961C110.038 52.2336 109.67 51.9733 109.379 51.7153C108.899 51.2896 108.552 50.8007 108.339 50.2485C108.125 49.6688 108.061 48.9628 108.149 48.1306C108.182 47.7702 108.263 47.4001 108.392 47.0201C108.533 46.6256 108.713 46.2909 108.93 46.0158C109.069 45.8006 109.292 45.6217 109.601 45.479C109.922 45.3217 110.181 45.2784 110.378 45.3491C110.561 45.4069 110.731 45.5965 110.888 45.9177C111.031 46.2261 111.096 46.5047 111.084 46.7535C110.962 48.153 111.313 49.1654 112.136 49.7908C112.599 50.1487 113.343 50.5998 114.368 51.144C115.036 51.4757 115.593 51.7865 116.037 52.0765C116.167 52.1652 116.432 52.3351 116.833 52.5865C117.247 52.8232 117.6 53.0706 117.891 53.3286C118.154 53.5608 118.353 53.7899 118.491 54.0158Z" fill="#161616"/>
<path d="M191.983 186.469C192.469 186.664 192.712 186.936 192.712 187.286C192.712 187.636 192.469 188.084 191.983 188.629C191.769 188.609 191.458 188.599 191.049 188.599C190.154 188.599 189.298 188.726 188.481 188.979C187.664 189.212 186.817 189.582 185.942 190.088C185.533 190.341 185.183 190.662 184.891 191.051C184.677 191.284 184.57 191.557 184.57 191.868C184.57 192.393 184.862 192.899 185.446 193.386C186.01 193.969 186.934 195.03 188.218 196.567L188.889 197.267C189.843 198.298 190.592 199.174 191.136 199.894C191.701 200.614 192.177 201.44 192.567 202.374C192.722 202.783 192.8 203.153 192.8 203.483C192.8 204.32 192.479 205.088 191.837 205.789C191.098 206.606 190.242 207.199 189.269 207.569C188.296 207.958 187.197 208.201 185.971 208.299C185.815 208.318 185.63 208.338 185.416 208.357C185.202 208.376 184.959 208.386 184.687 208.386C184.512 208.386 184.249 208.367 183.899 208.328C183.471 208.347 183.023 208.269 182.556 208.094C182.089 207.939 181.661 207.705 181.272 207.394C180.533 206.771 180.163 206.081 180.163 205.322C180.163 204.68 180.436 204.028 180.98 203.367C181.253 203.405 181.408 203.493 181.447 203.629C181.506 203.746 181.515 203.882 181.477 204.038C181.457 204.193 181.447 204.32 181.447 204.417C181.447 204.476 181.467 204.563 181.506 204.68C182.265 205.03 183.169 205.205 184.22 205.205C185.387 205.205 186.487 205.011 187.518 204.621C188.568 204.213 189.21 203.717 189.444 203.133C189.58 202.744 189.249 202.063 188.452 201.09C187.654 200.098 186.759 199.135 185.767 198.201C184.833 197.364 183.986 196.538 183.228 195.72C182.8 195.253 182.459 194.718 182.206 194.115C181.973 193.493 181.856 192.851 181.856 192.189C181.856 191.294 182.08 190.448 182.527 189.65C182.994 188.852 183.685 188.201 184.599 187.695C186.35 186.703 188.14 186.206 189.969 186.206C190.222 186.206 190.582 186.226 191.049 186.265C191.477 186.304 191.788 186.372 191.983 186.469ZM198.468 193.648C198.429 193.765 198.283 193.892 198.03 194.028C197.796 194.164 197.602 194.29 197.446 194.407L196.629 193.969C195.831 193.541 195.287 193.201 194.995 192.948C194.839 192.831 194.761 192.685 194.761 192.51C194.761 192.393 194.8 192.296 194.878 192.218C194.975 192.121 195.111 192.072 195.287 192.072C196.045 192.072 196.969 192.267 198.059 192.656C198.176 192.676 198.283 192.812 198.38 193.065C198.477 193.298 198.507 193.493 198.468 193.648ZM195.841 199.077C195.899 198.824 195.938 198.639 195.958 198.522C195.977 198.405 195.987 198.279 195.987 198.143C195.987 197.87 196.065 197.656 196.22 197.501C196.396 197.345 196.717 197.267 197.184 197.267C197.728 197.267 198.205 197.442 198.614 197.792C199.042 198.123 199.304 198.561 199.401 199.106C199.46 199.378 199.499 199.68 199.518 200.01C199.538 200.341 199.547 200.555 199.547 200.652L199.956 205.643C200.014 206.168 199.937 206.577 199.723 206.869C199.528 207.141 199.149 207.277 198.584 207.277C198.098 207.277 197.68 207.141 197.329 206.869C196.999 206.596 196.794 206.246 196.717 205.818L195.958 199.631L195.841 199.077ZM214.211 198.23C215.009 197.063 215.914 196.674 216.926 197.063C217.957 197.452 218.579 197.938 218.793 198.522L219.669 200.857C219.902 201.46 220.097 202.384 220.253 203.629C220.428 204.874 220.583 206.061 220.719 207.19C220.739 207.248 220.749 207.355 220.749 207.511C220.749 208.114 220.418 208.503 219.756 208.678C219.328 208.795 218.978 208.688 218.706 208.357C218.297 207.871 217.966 207.122 217.714 206.11C217.577 205.565 217.383 204.398 217.13 202.608C217.13 201.207 216.643 200.691 215.671 201.061C215.165 202.053 214.834 202.861 214.678 203.483C214.542 204.106 214.396 204.641 214.241 205.088C213.754 206.217 213.336 206.83 212.986 206.927C212.655 207.005 212.324 206.966 211.993 206.81C211.682 206.655 211.527 206.343 211.527 205.876C211.527 204.904 211.468 203.717 211.351 202.316C211.254 200.896 210.923 200.224 210.359 200.302C209.814 200.361 209.435 200.565 209.221 200.915C209.007 201.246 208.735 201.878 208.404 202.812C208.093 203.746 207.859 204.767 207.703 205.876C207.665 206.168 207.548 206.489 207.353 206.839C207.178 207.17 207.013 207.375 206.857 207.452C206.701 207.55 206.41 207.501 205.982 207.306C205.573 207.131 205.33 206.869 205.252 206.518C205.174 206.149 205.106 205.769 205.048 205.38C204.892 204.291 204.814 203.357 204.814 202.579C204.834 201.8 204.775 201.071 204.639 200.39C204.6 200.234 204.513 200.001 204.376 199.689C204.24 199.378 203.53 198.853 202.246 198.113C201.896 197.783 201.73 197.462 201.75 197.15C201.769 196.82 201.906 196.576 202.158 196.421C202.548 196.187 202.966 196.071 203.413 196.071C203.978 196.071 204.513 196.236 205.018 196.567C205.524 196.897 205.904 197.267 206.157 197.676C206.39 198.045 206.546 198.337 206.624 198.551C206.701 198.765 206.808 198.872 206.945 198.872C207.061 198.872 207.188 198.785 207.324 198.61C207.48 198.415 207.694 198.172 207.966 197.88C208.53 197.277 209.065 196.878 209.571 196.683C210.097 196.469 210.525 196.362 210.855 196.362C211.206 196.362 211.575 196.479 211.964 196.713C212.353 196.927 212.616 197.306 212.752 197.851L213.307 200.01L214.211 198.23ZM230.688 204.913C230.104 205.536 229.472 205.847 228.791 205.847C228.226 205.847 227.633 205.662 227.01 205.293L226.923 207.948C226.826 209.894 226.777 211.587 226.777 213.026C226.777 213.299 226.796 213.727 226.835 214.311C226.874 214.894 226.894 215.322 226.894 215.595C226.894 215.887 226.884 216.101 226.865 216.237C226.845 216.412 226.728 216.597 226.514 216.791C226.3 217.005 226.086 217.141 225.872 217.2C225.717 217.239 225.61 217.258 225.551 217.258C225.104 217.258 224.666 217.064 224.238 216.674C223.829 216.285 223.635 215.877 223.654 215.449C223.693 213.99 223.771 211.879 223.888 209.116L224.092 202.754C224.131 201.586 224.063 200.604 223.888 199.806C223.849 199.573 223.829 199.417 223.829 199.339C223.829 199.028 223.917 198.785 224.092 198.61C224.287 198.434 224.54 198.327 224.851 198.289C225.337 198.25 225.726 198.123 226.018 197.909C226.31 197.676 226.651 197.316 227.04 196.829C227.74 195.954 228.509 195.516 229.345 195.516C230.279 195.516 231.339 196.09 232.526 197.238C233.071 197.763 233.343 198.473 233.343 199.368C233.343 199.699 233.314 200.03 233.256 200.361C233.12 201.178 232.828 201.937 232.38 202.637C231.952 203.337 231.388 204.096 230.688 204.913ZM227.974 200.04C227.546 201.207 227.331 202.248 227.331 203.162C227.331 203.376 227.341 203.532 227.361 203.629L227.711 203.804C228.1 203.688 228.509 203.347 228.937 202.783C229.365 202.219 229.715 201.586 229.987 200.886C230.279 200.166 230.425 199.534 230.425 198.989C230.425 198.756 230.376 198.522 230.279 198.289C230.143 198.036 229.939 197.909 229.666 197.909C229.316 197.909 229.063 198.036 228.907 198.289C228.849 198.366 228.713 198.58 228.499 198.931C228.285 199.281 228.11 199.65 227.974 200.04ZM236.66 206.256C236.718 206.236 236.825 206.227 236.981 206.227C236.981 199.047 236.971 193.658 236.952 190.059C236.952 189.806 236.884 189.514 236.747 189.183C236.611 188.833 236.514 188.57 236.456 188.395C236.319 188.026 236.251 187.714 236.251 187.461C236.251 186.955 236.504 186.557 237.01 186.265C237.321 186.07 237.72 185.973 238.207 185.973C238.518 185.973 238.81 186.022 239.082 186.119C239.355 186.216 239.549 186.372 239.666 186.586C240.152 187.442 240.386 188.22 240.366 188.92C240.327 189.893 240.269 190.993 240.191 192.218C240.113 193.425 240.065 194.261 240.045 194.728C239.928 196.012 239.841 197.306 239.783 198.61L239.637 202.549C239.617 203.425 239.569 204.738 239.491 206.489C239.452 206.995 239.325 207.355 239.111 207.569C238.917 207.783 238.596 207.89 238.148 207.89C237.954 207.89 237.798 207.88 237.681 207.861C237.214 207.822 236.923 207.666 236.806 207.394C236.689 207.122 236.64 206.742 236.66 206.256ZM246.122 193.065C244.974 193.181 244.03 192.714 243.291 191.664C243.894 191.216 244.487 190.993 245.071 190.993C245.752 190.993 246.316 191.304 246.764 191.926C246.88 192.063 246.939 192.228 246.939 192.423C246.939 192.598 246.861 192.744 246.705 192.86C246.55 192.977 246.355 193.045 246.122 193.065ZM247.318 199.514C247.299 199.981 247.25 200.682 247.172 201.616L246.997 203.717C246.997 203.97 247.026 204.242 247.085 204.534C247.143 204.826 247.182 205.02 247.201 205.118C247.24 205.429 247.172 205.701 246.997 205.935C246.822 206.149 246.598 206.256 246.326 206.256C246.209 206.256 246.122 206.246 246.063 206.227C245.402 206.032 244.857 205.73 244.429 205.322C244.001 204.894 243.797 204.33 243.816 203.629C243.836 203.318 243.845 202.851 243.845 202.228C243.845 201.528 243.836 201.003 243.816 200.652C243.816 200.38 243.806 200.049 243.787 199.66C243.787 199.271 243.797 198.814 243.816 198.289C243.836 198.036 243.894 197.763 243.991 197.471C244.089 197.18 244.196 197.024 244.312 197.004C244.624 196.946 244.974 196.917 245.363 196.917C245.869 196.917 246.238 197.004 246.472 197.18C246.647 197.316 246.793 197.501 246.91 197.734C247.026 197.968 247.153 198.279 247.289 198.668C247.406 198.979 247.503 199.213 247.581 199.368L247.318 199.514ZM260.511 204.271C259.928 204.933 259.334 205.458 258.731 205.847C258.128 206.217 257.457 206.402 256.717 206.402C256.562 206.402 256.348 206.382 256.075 206.343L255.492 206.373C253.04 206.392 251.25 205.225 250.122 202.87C249.869 202.326 249.743 201.674 249.743 200.915C249.743 200.254 249.84 199.621 250.034 199.018C250.229 198.415 250.501 197.919 250.852 197.53L251.406 196.859C251.678 196.508 251.892 196.265 252.048 196.129C252.729 195.467 253.634 195.137 254.762 195.137C255.346 195.137 255.92 195.234 256.484 195.429C257.048 195.623 257.544 195.886 257.972 196.216C258.05 196.275 258.128 196.401 258.206 196.596C258.284 196.771 258.323 196.917 258.323 197.034C258.323 197.189 258.206 197.364 257.972 197.559C257.739 197.734 257.525 197.812 257.33 197.792C256.007 197.637 254.947 197.958 254.149 198.756C253.352 199.534 252.953 200.604 252.953 201.966C252.953 202.861 253.138 203.493 253.507 203.863C253.896 204.232 254.529 204.417 255.404 204.417C255.949 204.417 256.465 204.31 256.951 204.096C257.437 203.863 258.002 203.542 258.644 203.133L259.198 202.783C259.393 202.686 259.646 202.627 259.957 202.608C260.288 202.569 260.541 202.54 260.716 202.52C260.696 202.695 260.687 202.87 260.687 203.046C260.706 203.201 260.716 203.328 260.716 203.425C260.716 203.853 260.648 204.135 260.511 204.271ZM266.098 193.648C266.059 193.765 265.913 193.892 265.66 194.028C265.427 194.164 265.232 194.29 265.077 194.407L264.26 193.969C263.462 193.541 262.917 193.201 262.625 192.948C262.47 192.831 262.392 192.685 262.392 192.51C262.392 192.393 262.431 192.296 262.508 192.218C262.606 192.121 262.742 192.072 262.917 192.072C263.676 192.072 264.6 192.267 265.69 192.656C265.806 192.676 265.913 192.812 266.011 193.065C266.108 193.298 266.137 193.493 266.098 193.648ZM263.472 199.077C263.53 198.824 263.569 198.639 263.588 198.522C263.608 198.405 263.617 198.279 263.617 198.143C263.617 197.87 263.695 197.656 263.851 197.501C264.026 197.345 264.347 197.267 264.814 197.267C265.359 197.267 265.835 197.442 266.244 197.792C266.672 198.123 266.935 198.561 267.032 199.106C267.09 199.378 267.129 199.68 267.149 200.01C267.168 200.341 267.178 200.555 267.178 200.652L267.586 205.643C267.645 206.168 267.567 206.577 267.353 206.869C267.158 207.141 266.779 207.277 266.215 207.277C265.728 207.277 265.31 207.141 264.96 206.869C264.629 206.596 264.425 206.246 264.347 205.818L263.588 199.631L263.472 199.077ZM276.706 192.627C276.803 192.588 277.017 192.559 277.348 192.539C277.698 192.5 278.009 192.481 278.282 192.481C278.826 192.481 279.322 192.821 279.77 193.502L279.391 193.794C278.943 194.125 278.301 194.378 277.464 194.553C276.725 194.923 276.171 195.234 275.801 195.487C275.451 195.74 275.188 196.022 275.013 196.333C274.857 196.645 274.779 197.043 274.779 197.53C274.779 197.763 274.838 198.366 274.955 199.339L275.1 200.565C275.256 202.063 275.392 203.162 275.509 203.863C275.548 204.116 275.626 204.417 275.743 204.767C275.879 205.098 276.015 205.293 276.151 205.351C276.287 205.409 276.56 205.312 276.968 205.059C277.746 204.125 278.252 203.474 278.486 203.104C278.544 203.007 278.641 202.841 278.778 202.608C278.914 202.374 279.05 202.199 279.186 202.082C279.322 201.946 279.488 201.878 279.682 201.878C279.721 201.878 279.819 201.898 279.974 201.937C280.285 202.034 280.529 202.18 280.704 202.374C280.898 202.569 280.996 202.851 280.996 203.221C280.996 203.396 280.986 203.522 280.966 203.6C280.85 204.378 280.577 205.079 280.149 205.701C279.721 206.324 279.157 206.937 278.457 207.54C278.184 207.793 277.737 207.919 277.114 207.919C276.433 207.919 275.762 207.764 275.1 207.452C274.439 207.16 273.991 206.771 273.758 206.285C273.155 204.981 272.591 203.318 272.065 201.295C271.929 200.73 271.822 199.835 271.744 198.61L271.657 197.53C271.618 197.082 271.618 196.742 271.657 196.508C271.696 196.255 271.316 196.1 270.519 196.041C270.227 196.022 270.081 195.827 270.081 195.458C270.275 194.835 270.577 194.465 270.986 194.349C271.375 194.232 271.618 193.989 271.715 193.619C271.812 193.23 271.89 192.831 271.949 192.423C272.124 191.158 272.163 189.747 272.065 188.191C272.026 187.452 272.25 187.024 272.737 186.907L272.999 186.936C273.096 186.955 273.32 186.994 273.67 187.053C274.021 187.092 274.332 187.179 274.604 187.315C275.285 187.685 275.626 188.337 275.626 189.271C275.626 189.66 275.548 190.166 275.392 190.788C275.373 190.886 275.344 190.973 275.305 191.051C275.266 191.129 275.237 191.216 275.217 191.314C275.159 191.605 275.13 191.849 275.13 192.043C274.955 192.627 275.091 192.919 275.538 192.919C275.694 192.919 276.083 192.821 276.706 192.627ZM283.378 215.478C283.514 215.439 283.689 215.381 283.903 215.303C284.117 215.244 284.302 215.206 284.458 215.186C285.859 215.147 286.88 214.855 287.522 214.311C288.184 213.766 288.602 212.803 288.777 211.421C288.952 210.04 289.127 207.968 289.302 205.205L289.419 203.337C289.439 202.89 289.351 202.549 289.156 202.316C288.981 202.063 288.651 201.907 288.164 201.849C287.114 201.732 286.199 201.324 285.421 200.623C284.662 199.923 284.137 199.038 283.845 197.968C283.748 197.637 283.641 197.248 283.524 196.8C283.29 195.944 283.125 195.302 283.028 194.874V194.816C283.028 194.699 283.067 194.572 283.145 194.436C283.222 194.281 283.3 194.174 283.378 194.115C283.689 193.901 284.049 193.794 284.458 193.794C285.003 193.794 285.489 193.989 285.917 194.378C286.345 194.748 286.588 195.215 286.647 195.779C286.744 196.654 286.909 197.608 287.143 198.639C287.24 199.047 287.425 199.252 287.697 199.252C287.911 199.252 288.096 199.145 288.252 198.931C288.758 198.289 289.147 197.666 289.419 197.063C289.75 196.324 290.236 195.954 290.878 195.954C291.053 195.954 291.18 195.964 291.258 195.983C292.269 196.178 292.756 196.8 292.717 197.851L292.629 200.565C292.551 202.977 292.464 204.777 292.367 205.964L292.279 207.131C292.162 208.727 292.046 209.962 291.929 210.838C291.832 211.733 291.666 212.628 291.433 213.523C291.141 214.651 290.606 215.488 289.828 216.032C289.049 216.597 288.135 216.879 287.084 216.879C286.248 216.879 285.411 216.713 284.575 216.383C284.399 216.305 284.195 216.198 283.962 216.062C283.728 215.945 283.553 215.848 283.436 215.77L283.378 215.478Z" fill="#161616"/>
</svg>
