<svg xmlns="http://www.w3.org/2000/svg" data-name="Слой 1" viewBox="0 0 100 125" x="0px" y="0px"><title>Безымянный-1-01-01-01-01-01-01-01-01-01-01-01-01-01-01-01-01-01-01-01-01-01-01-01-01-01-01-01-01-01-01-01-01-01-01-01-01</title><path d="M69.15924,53.81828c1.2001-2.13565,2.48651-4.42719,3.77513-6.71749,2.1197-3.7674,4.43659-7.35152,7.82069-10.18329,3.28684-2.7504,7.12483-2.87028,11.06311-2.77854,0.63094,0.01469,1.25914.13959,1.889,0.21012a11.32205,11.32205,0,0,1,1.31178.1464c1.177,0.27467,2.14618,1.12006,1.96054,2.20787a2.88013,2.88013,0,0,1-2.03094,1.79437,51.20043,51.20043,0,0,1-7.00662.16232c-1.81651-.04149-3.67-1.13018-5.42413.11321a11.7502,11.7502,0,0,0-2.83437,2.44c-2.20868,3.05727-4.27993,6.21614-6.33848,9.37855a38.42583,38.42583,0,0,0-2.61108,4.601,15.26412,15.26412,0,0,0-.58872,2.801,27.92441,27.92441,0,0,1-.84318,2.78286,35.36963,35.36963,0,0,1-1.60744,4.07565c-1.226,2.40512-3.49127,2.65278-5.82826,2.42113-3.50458-.34739-7.0007-0.78579-10.49539-1.22537-2.52437-.31753-5.06691-0.57948-7.54561-1.12124a4.49116,4.49116,0,0,1-2.16792-1.78834c-0.7913-1.049-1.65367-1.86342-3.00742-1.76262a32.41687,32.41687,0,0,0-5.01988.664,2.49431,2.49431,0,0,0-1.27629,1.57129c-1.01646,3.21386-1.17838,3.25051-4.5065,3.36036-4.3537.1437-8.6979,0.6544-13.0506,0.72183a57.31641,57.31641,0,0,1-9.06273-.663c-1.98417-.28741-2.81045-1.42876-2.73111-3.4233a51.53554,51.53554,0,0,1,.77658-6.52954A29.89011,29.89011,0,0,1,4.895,53.1419,1.09714,1.09714,0,0,1,5.46014,52.499c3.7176-1.29886,5.798-4.709,8.867-6.86,4.0502-2.83855,7.86294-6.0136,11.85023-8.94543a51.63721,51.63721,0,0,1,4.681-2.7692c3.14235-1.83257,6.51794-1.88054,9.96918-1.27753a18.73693,18.73693,0,0,1,3.28366.7337,2.27844,2.27844,0,0,1,1.14518,1.34694,1.79817,1.79817,0,0,1-.90708,1.10887c-2.57632,1.51719-5.44235,1.43664-8.278,1.29916-1.65576-.08028-3.29913-0.54906-4.94952-0.55738a5.27931,5.27931,0,0,0-2.947.87742c-4.33322,3.1299-8.58942,6.36741-12.84153,9.608-1.36177,1.03782-2.63858,2.18845-3.93366,3.31124a4.06176,4.06176,0,0,0-.56218.82063c3.81806-.22925,7.50537-0.59291,11.19513-0.61963a24.969,24.969,0,0,1,6.7827.81614c3.00468,0.83363,4.18653,2.79408,4.229,5.93864,0.00322,0.23857.03988,0.47667,0.07641,0.88909a11.91015,11.91015,0,0,1,2.26151-.69952,31.799,31.799,0,0,1,4.04514-.1186c1.139,0.03034,2.07574-.11987,2.28115-1.46223,0.155-1.013.30077-2.02819,0.41649-3.04628A2.44776,2.44776,0,0,1,43.95031,50.674c6.32038-2.13774,12.69319-1.62756,18.98037-.07439C65.0355,51.11962,66.89913,52.616,69.15924,53.81828ZM16.89339,56.85652l0.34418,0.60338,3.747-2.25118L20.697,54.69928ZM55.821,58.34357l-0.22268-.41376-4.11046,2.34225L51.621,60.52039Zm-46.81549.82313L9.2706,59.63232l2.50169-1.23744-0.2694-.527Z"/><text x="0" y="115" fill="#000000" font-size="5px" font-weight="bold" font-family="'Helvetica Neue', Helvetica, Arial-Unicode, Arial, Sans-serif">Created by Roman</text><text x="0" y="120" fill="#000000" font-size="5px" font-weight="bold" font-family="'Helvetica Neue', Helvetica, Arial-Unicode, Arial, Sans-serif">from the Noun Project</text></svg>