<svg width="94" height="35" viewBox="0 0 94 35" fill="none" xmlns="http://www.w3.org/2000/svg">
<g clip-path="url(#clip0_1230_4042)">
<path d="M66.1583 21.2779C67.3583 19.1659 68.6446 16.8998 69.9332 14.635C72.0528 10.9094 74.3696 7.3651 77.7535 4.56477C81.0402 1.84492 84.878 1.72637 88.816 1.81709C89.4469 1.83162 90.0751 1.95513 90.7049 2.02487C91.1447 2.04786 91.5826 2.09621 92.0167 2.16965C93.1936 2.44127 94.1627 3.27727 93.9771 4.353C93.8118 4.79085 93.5401 5.18175 93.1859 5.49121C92.8317 5.80066 92.406 6.01916 91.9463 6.12744C89.6173 6.33915 87.2764 6.39278 84.94 6.28796C83.1236 6.24694 81.2702 5.17033 79.5161 6.39992C78.4472 7.04942 77.4903 7.86403 76.6819 8.81282C74.4734 11.8361 72.4022 14.9599 70.3438 18.0872C69.3688 19.5427 68.4964 21.063 67.7328 22.6371C67.4493 23.5402 67.2522 24.4675 67.1441 25.407C66.9116 26.3382 66.6302 27.2568 66.301 28.159C65.8499 29.534 65.3131 30.88 64.6936 32.1894C63.4677 34.5678 61.2025 34.8127 58.8657 34.5836C55.3613 34.2401 51.8653 33.8066 48.3708 33.3719C45.8466 33.0579 43.3042 32.7988 40.8256 32.2631C39.9303 31.9181 39.1705 31.2982 38.6578 30.4946C37.8665 29.4572 37.0042 28.6519 35.6505 28.7515C33.9625 28.8406 32.2842 29.0602 30.6309 29.4082C30.3201 29.5646 30.046 29.7837 29.8262 30.0513C29.6064 30.3189 29.4457 30.6292 29.3546 30.962C28.3382 34.1402 28.1763 34.1764 24.8484 34.285C20.4949 34.4272 16.1509 34.9322 11.7984 34.9989C8.76489 35.0178 5.73461 34.7986 2.73616 34.3432C0.752094 34.059 -0.0741441 32.9303 0.00519187 30.9579C0.124787 28.7914 0.384161 26.6347 0.781733 24.5009C1.06327 23.1799 1.43599 21.8796 1.89728 20.609C1.94358 20.471 2.01747 20.3436 2.11455 20.2344C2.21163 20.1252 2.32992 20.0364 2.46239 19.9732C6.1798 18.6888 8.26009 15.3165 11.3289 13.1894C15.3789 10.3824 19.1915 7.2426 23.1786 4.34333C24.6891 3.34983 26.2515 2.43575 27.8593 1.60488C31.0015 -0.207339 34.3769 -0.254777 37.828 0.341537C38.9423 0.485517 40.0412 0.728347 41.1115 1.06709C41.3825 1.20246 41.6234 1.39002 41.82 1.61876C42.0167 1.8475 42.1651 2.1128 42.2566 2.39907C42.1895 2.63357 42.0743 2.8519 41.9183 3.04054C41.7623 3.22917 41.5687 3.38408 41.3496 3.49563C38.7734 4.99597 35.9075 4.91631 33.072 4.78036C31.4163 4.70097 29.773 4.2374 28.1227 4.22917C27.0752 4.22283 26.0494 4.52487 25.1759 5.09685C20.8429 8.19199 16.5869 11.3935 12.335 14.5982C10.9733 15.6244 9.69656 16.7623 8.40155 17.8726C8.18125 18.1193 7.99245 18.3919 7.8394 18.6841C11.6573 18.4574 15.3444 18.0978 19.034 18.0714C21.3215 18.0318 23.6036 18.3034 25.8163 18.8785C28.8208 19.7028 30.0026 21.6415 30.0451 24.7512C30.0483 24.9871 30.085 25.2225 30.1215 25.6304C30.8502 25.3261 31.6077 25.0944 32.3829 24.9386C33.7273 24.8146 35.0784 24.7755 36.4278 24.8213C37.5668 24.8513 38.5035 24.7028 38.7089 23.3753C38.8639 22.3736 39.0096 21.3697 39.1253 20.3629C39.1569 19.8535 39.3503 19.3671 39.6781 18.973C40.0059 18.5789 40.4513 18.2973 40.9506 18.1685C47.2707 16.0545 53.6432 16.559 59.93 18.0949C62.0347 18.6092 63.8983 20.0889 66.1583 21.2779ZM13.8951 24.2824L14.2392 24.8791L17.986 22.6529L17.6985 22.1491L13.8951 24.2824ZM52.8207 25.7529L52.598 25.3437L48.4878 27.66L48.6209 27.9056L52.8207 25.7529ZM6.00758 26.5669L6.27265 27.0274L8.77422 25.8037L8.50483 25.2825L6.00758 26.5669Z" fill="black"/>
</g>
<defs>
<clipPath id="clip0_1230_4042">
<rect width="94" height="35" fill="white"/>
</clipPath>
</defs>
</svg>
