<svg width="787" height="300" viewBox="0 0 787 300" fill="none" xmlns="http://www.w3.org/2000/svg">
<path d="M14.0455 282C13.858 281.426 13.6108 280.912 13.304 280.457C13.0028 279.997 12.642 279.605 12.2216 279.281C11.8068 278.957 11.3352 278.71 10.8068 278.54C10.2784 278.369 9.69886 278.284 9.06818 278.284C8.03409 278.284 7.09375 278.551 6.24716 279.085C5.40057 279.619 4.72727 280.406 4.22727 281.446C3.72727 282.486 3.47727 283.761 3.47727 285.273C3.47727 286.784 3.73011 288.06 4.2358 289.099C4.74148 290.139 5.42614 290.926 6.28977 291.46C7.15341 291.994 8.125 292.261 9.20455 292.261C10.2045 292.261 11.0852 292.048 11.8466 291.622C12.6136 291.19 13.2102 290.582 13.6364 289.798C14.0682 289.009 14.2841 288.08 14.2841 287.011L14.9318 287.148H9.68182V285.273H16.3295V287.148C16.3295 288.585 16.0227 289.835 15.4091 290.898C14.8011 291.96 13.9602 292.784 12.8864 293.369C11.8182 293.949 10.5909 294.239 9.20455 294.239C7.65909 294.239 6.30114 293.875 5.13068 293.148C3.96591 292.42 3.05682 291.386 2.40341 290.045C1.75568 288.705 1.43182 287.114 1.43182 285.273C1.43182 283.892 1.61648 282.651 1.9858 281.548C2.3608 280.44 2.8892 279.497 3.57102 278.719C4.25284 277.94 5.05966 277.344 5.99148 276.929C6.9233 276.514 7.94886 276.307 9.06818 276.307C9.98864 276.307 10.8466 276.446 11.642 276.724C12.4432 276.997 13.1562 277.386 13.7812 277.892C14.4119 278.392 14.9375 278.991 15.358 279.69C15.7784 280.384 16.0682 281.153 16.2273 282H14.0455ZM24.995 294.273C23.8132 294.273 22.7763 293.991 21.8842 293.429C20.9979 292.866 20.3047 292.08 19.8047 291.068C19.3104 290.057 19.0632 288.875 19.0632 287.523C19.0632 286.159 19.3104 284.969 19.8047 283.952C20.3047 282.935 20.9979 282.145 21.8842 281.582C22.7763 281.02 23.8132 280.739 24.995 280.739C26.1768 280.739 27.2109 281.02 28.0973 281.582C28.9893 282.145 29.6825 282.935 30.1768 283.952C30.6768 284.969 30.9268 286.159 30.9268 287.523C30.9268 288.875 30.6768 290.057 30.1768 291.068C29.6825 292.08 28.9893 292.866 28.0973 293.429C27.2109 293.991 26.1768 294.273 24.995 294.273ZM24.995 292.466C25.8928 292.466 26.6314 292.236 27.2109 291.776C27.7905 291.315 28.2195 290.71 28.4979 289.96C28.7763 289.21 28.9155 288.398 28.9155 287.523C28.9155 286.648 28.7763 285.832 28.4979 285.077C28.2195 284.321 27.7905 283.71 27.2109 283.244C26.6314 282.778 25.8928 282.545 24.995 282.545C24.0973 282.545 23.3587 282.778 22.7791 283.244C22.1996 283.71 21.7706 284.321 21.4922 285.077C21.2138 285.832 21.0746 286.648 21.0746 287.523C21.0746 288.398 21.2138 289.21 21.4922 289.96C21.7706 290.71 22.1996 291.315 22.7791 291.776C23.3587 292.236 24.0973 292.466 24.995 292.466ZM37.8494 294.307C37.0199 294.307 36.267 294.151 35.5909 293.838C34.9148 293.52 34.3778 293.062 33.9801 292.466C33.5824 291.864 33.3835 291.136 33.3835 290.284C33.3835 289.534 33.5313 288.926 33.8267 288.46C34.1222 287.989 34.517 287.619 35.0114 287.352C35.5057 287.085 36.0511 286.886 36.6477 286.756C37.25 286.619 37.8551 286.511 38.4631 286.432C39.2585 286.33 39.9034 286.253 40.3977 286.202C40.8977 286.145 41.2614 286.051 41.4886 285.92C41.7216 285.79 41.8381 285.562 41.8381 285.239V285.17C41.8381 284.33 41.608 283.676 41.1477 283.21C40.6932 282.744 40.0028 282.511 39.0767 282.511C38.1165 282.511 37.3636 282.722 36.8182 283.142C36.2727 283.562 35.8892 284.011 35.6676 284.489L33.7585 283.807C34.0994 283.011 34.554 282.392 35.1222 281.949C35.696 281.5 36.321 281.187 36.9972 281.011C37.679 280.83 38.3494 280.739 39.0085 280.739C39.429 280.739 39.9119 280.79 40.4574 280.892C41.0085 280.989 41.5398 281.19 42.0511 281.497C42.5682 281.804 42.9972 282.267 43.3381 282.886C43.679 283.506 43.8494 284.335 43.8494 285.375V294H41.8381V292.227H41.7358C41.5994 292.511 41.3722 292.815 41.054 293.139C40.7358 293.463 40.3125 293.739 39.7841 293.966C39.2557 294.193 38.6108 294.307 37.8494 294.307ZM38.1562 292.5C38.9517 292.5 39.6222 292.344 40.1676 292.031C40.7188 291.719 41.1335 291.315 41.4119 290.821C41.696 290.327 41.8381 289.807 41.8381 289.261V287.42C41.7528 287.523 41.5653 287.616 41.2756 287.702C40.9915 287.781 40.6619 287.852 40.2869 287.915C39.9176 287.972 39.5568 288.023 39.2045 288.068C38.858 288.108 38.5767 288.142 38.3608 288.17C37.8381 288.239 37.3494 288.349 36.8949 288.503C36.446 288.651 36.0824 288.875 35.804 289.176C35.5313 289.472 35.3949 289.875 35.3949 290.386C35.3949 291.085 35.6534 291.614 36.1705 291.972C36.6932 292.324 37.3551 292.5 38.1562 292.5ZM49.532 276.545V294H47.5206V276.545H49.532ZM62.4886 283.841L60.6818 284.352C60.5682 284.051 60.4006 283.759 60.179 283.474C59.9631 283.185 59.6676 282.946 59.2926 282.759C58.9176 282.571 58.4375 282.477 57.8523 282.477C57.0511 282.477 56.3835 282.662 55.8494 283.031C55.321 283.395 55.0568 283.858 55.0568 284.42C55.0568 284.92 55.2386 285.315 55.6023 285.605C55.9659 285.895 56.5341 286.136 57.3068 286.33L59.25 286.807C60.4205 287.091 61.2926 287.526 61.8665 288.111C62.4403 288.69 62.7273 289.437 62.7273 290.352C62.7273 291.102 62.5114 291.773 62.0795 292.364C61.6534 292.955 61.0568 293.42 60.2898 293.761C59.5227 294.102 58.6307 294.273 57.6136 294.273C56.2784 294.273 55.1733 293.983 54.2983 293.403C53.4233 292.824 52.8693 291.977 52.6364 290.864L54.5455 290.386C54.7273 291.091 55.071 291.619 55.5767 291.972C56.0881 292.324 56.7557 292.5 57.5795 292.5C58.517 292.5 59.2614 292.301 59.8125 291.903C60.3693 291.5 60.6477 291.017 60.6477 290.455C60.6477 290 60.4886 289.619 60.1705 289.312C59.8523 289 59.3636 288.767 58.7045 288.614L56.5227 288.102C55.3239 287.818 54.4432 287.378 53.8807 286.781C53.3239 286.179 53.0455 285.426 53.0455 284.523C53.0455 283.784 53.2528 283.131 53.6676 282.562C54.0881 281.994 54.6591 281.548 55.3807 281.224C56.108 280.901 56.9318 280.739 57.8523 280.739C59.1477 280.739 60.1648 281.023 60.9034 281.591C61.6477 282.159 62.1761 282.909 62.4886 283.841Z" fill="black"/>
<path d="M214.227 276.545V294H212.114V276.545H214.227ZM223.136 294.273C222.045 294.273 221.082 293.997 220.246 293.446C219.411 292.889 218.758 292.105 218.286 291.094C217.815 290.077 217.579 288.875 217.579 287.489C217.579 286.114 217.815 284.92 218.286 283.909C218.758 282.898 219.414 282.116 220.255 281.565C221.096 281.014 222.067 280.739 223.17 280.739C224.022 280.739 224.695 280.881 225.19 281.165C225.69 281.443 226.07 281.761 226.332 282.119C226.599 282.472 226.806 282.761 226.954 282.989H227.124V276.545H229.136V294H227.192V291.989H226.954C226.806 292.227 226.596 292.528 226.323 292.892C226.05 293.25 225.661 293.571 225.156 293.855C224.65 294.134 223.977 294.273 223.136 294.273ZM223.408 292.466C224.215 292.466 224.897 292.256 225.454 291.835C226.011 291.409 226.434 290.821 226.724 290.071C227.013 289.315 227.158 288.443 227.158 287.455C227.158 286.477 227.016 285.622 226.732 284.889C226.448 284.151 226.028 283.577 225.471 283.168C224.914 282.753 224.227 282.545 223.408 282.545C222.556 282.545 221.846 282.764 221.278 283.202C220.715 283.634 220.292 284.222 220.008 284.966C219.729 285.705 219.59 286.534 219.59 287.455C219.59 288.386 219.732 289.233 220.016 289.994C220.306 290.75 220.732 291.352 221.295 291.801C221.863 292.244 222.567 292.466 223.408 292.466ZM238.587 294.273C237.326 294.273 236.238 293.994 235.323 293.438C234.414 292.875 233.712 292.091 233.218 291.085C232.729 290.074 232.485 288.898 232.485 287.557C232.485 286.216 232.729 285.034 233.218 284.011C233.712 282.983 234.4 282.182 235.281 281.608C236.167 281.028 237.201 280.739 238.383 280.739C239.065 280.739 239.738 280.852 240.403 281.08C241.067 281.307 241.673 281.676 242.218 282.188C242.763 282.693 243.198 283.364 243.522 284.199C243.846 285.034 244.008 286.062 244.008 287.284V288.136H233.917V286.398H241.962C241.962 285.659 241.815 285 241.519 284.42C241.229 283.841 240.815 283.384 240.275 283.048C239.741 282.713 239.11 282.545 238.383 282.545C237.582 282.545 236.888 282.744 236.303 283.142C235.724 283.534 235.278 284.045 234.965 284.676C234.653 285.307 234.496 285.983 234.496 286.705V287.864C234.496 288.852 234.667 289.69 235.008 290.378C235.354 291.06 235.835 291.58 236.448 291.938C237.062 292.29 237.775 292.466 238.587 292.466C239.116 292.466 239.593 292.392 240.019 292.244C240.451 292.091 240.823 291.864 241.136 291.562C241.448 291.256 241.69 290.875 241.86 290.42L243.803 290.966C243.599 291.625 243.255 292.205 242.772 292.705C242.289 293.199 241.692 293.585 240.982 293.864C240.272 294.136 239.474 294.273 238.587 294.273ZM250.92 294.307C250.09 294.307 249.337 294.151 248.661 293.838C247.985 293.52 247.448 293.062 247.05 292.466C246.653 291.864 246.454 291.136 246.454 290.284C246.454 289.534 246.602 288.926 246.897 288.46C247.192 287.989 247.587 287.619 248.082 287.352C248.576 287.085 249.121 286.886 249.718 286.756C250.32 286.619 250.925 286.511 251.533 286.432C252.329 286.33 252.974 286.253 253.468 286.202C253.968 286.145 254.332 286.051 254.559 285.92C254.792 285.79 254.908 285.562 254.908 285.239V285.17C254.908 284.33 254.678 283.676 254.218 283.21C253.763 282.744 253.073 282.511 252.147 282.511C251.187 282.511 250.434 282.722 249.888 283.142C249.343 283.562 248.96 284.011 248.738 284.489L246.829 283.807C247.17 283.011 247.624 282.392 248.192 281.949C248.766 281.5 249.391 281.187 250.067 281.011C250.749 280.83 251.42 280.739 252.079 280.739C252.499 280.739 252.982 280.79 253.528 280.892C254.079 280.989 254.61 281.19 255.121 281.497C255.638 281.804 256.067 282.267 256.408 282.886C256.749 283.506 256.92 284.335 256.92 285.375V294H254.908V292.227H254.806C254.67 292.511 254.442 292.815 254.124 293.139C253.806 293.463 253.383 293.739 252.854 293.966C252.326 294.193 251.681 294.307 250.92 294.307ZM251.227 292.5C252.022 292.5 252.692 292.344 253.238 292.031C253.789 291.719 254.204 291.315 254.482 290.821C254.766 290.327 254.908 289.807 254.908 289.261V287.42C254.823 287.523 254.636 287.616 254.346 287.702C254.062 287.781 253.732 287.852 253.357 287.915C252.988 287.972 252.627 288.023 252.275 288.068C251.928 288.108 251.647 288.142 251.431 288.17C250.908 288.239 250.42 288.349 249.965 288.503C249.516 288.651 249.153 288.875 248.874 289.176C248.602 289.472 248.465 289.875 248.465 290.386C248.465 291.085 248.724 291.614 249.241 291.972C249.763 292.324 250.425 292.5 251.227 292.5ZM269.864 283.841L268.057 284.352C267.943 284.051 267.776 283.759 267.554 283.474C267.338 283.185 267.043 282.946 266.668 282.759C266.293 282.571 265.812 282.477 265.227 282.477C264.426 282.477 263.759 282.662 263.224 283.031C262.696 283.395 262.432 283.858 262.432 284.42C262.432 284.92 262.614 285.315 262.977 285.605C263.341 285.895 263.909 286.136 264.682 286.33L266.625 286.807C267.795 287.091 268.668 287.526 269.241 288.111C269.815 288.69 270.102 289.437 270.102 290.352C270.102 291.102 269.886 291.773 269.455 292.364C269.028 292.955 268.432 293.42 267.665 293.761C266.898 294.102 266.006 294.273 264.989 294.273C263.653 294.273 262.548 293.983 261.673 293.403C260.798 292.824 260.244 291.977 260.011 290.864L261.92 290.386C262.102 291.091 262.446 291.619 262.952 291.972C263.463 292.324 264.131 292.5 264.955 292.5C265.892 292.5 266.636 292.301 267.188 291.903C267.744 291.5 268.023 291.017 268.023 290.455C268.023 290 267.864 289.619 267.545 289.312C267.227 289 266.739 288.767 266.08 288.614L263.898 288.102C262.699 287.818 261.818 287.378 261.256 286.781C260.699 286.179 260.42 285.426 260.42 284.523C260.42 283.784 260.628 283.131 261.043 282.562C261.463 281.994 262.034 281.548 262.756 281.224C263.483 280.901 264.307 280.739 265.227 280.739C266.523 280.739 267.54 281.023 268.278 281.591C269.023 282.159 269.551 282.909 269.864 283.841Z" fill="black"/>
<path d="M404.114 294V276.545H410.011C411.381 276.545 412.5 276.793 413.369 277.287C414.244 277.776 414.892 278.438 415.312 279.273C415.733 280.108 415.943 281.04 415.943 282.068C415.943 283.097 415.733 284.031 415.312 284.872C414.898 285.713 414.256 286.384 413.386 286.884C412.517 287.378 411.403 287.625 410.045 287.625H405.818V285.75H409.977C410.915 285.75 411.668 285.588 412.236 285.264C412.804 284.94 413.216 284.503 413.472 283.952C413.733 283.395 413.864 282.767 413.864 282.068C413.864 281.369 413.733 280.744 413.472 280.193C413.216 279.642 412.801 279.21 412.227 278.898C411.653 278.58 410.892 278.42 409.943 278.42H406.227V294H404.114ZM421.087 276.545V294H419.075V276.545H421.087ZM428.623 294.307C427.793 294.307 427.04 294.151 426.364 293.838C425.688 293.52 425.151 293.062 424.754 292.466C424.356 291.864 424.157 291.136 424.157 290.284C424.157 289.534 424.305 288.926 424.6 288.46C424.896 287.989 425.29 287.619 425.785 287.352C426.279 287.085 426.825 286.886 427.421 286.756C428.023 286.619 428.629 286.511 429.237 286.432C430.032 286.33 430.677 286.253 431.171 286.202C431.671 286.145 432.035 286.051 432.262 285.92C432.495 285.79 432.612 285.562 432.612 285.239V285.17C432.612 284.33 432.381 283.676 431.921 283.21C431.467 282.744 430.776 282.511 429.85 282.511C428.89 282.511 428.137 282.722 427.592 283.142C427.046 283.562 426.663 284.011 426.441 284.489L424.532 283.807C424.873 283.011 425.327 282.392 425.896 281.949C426.469 281.5 427.094 281.187 427.771 281.011C428.452 280.83 429.123 280.739 429.782 280.739C430.202 280.739 430.685 280.79 431.231 280.892C431.782 280.989 432.313 281.19 432.825 281.497C433.342 281.804 433.771 282.267 434.112 282.886C434.452 283.506 434.623 284.335 434.623 285.375V294H432.612V292.227H432.509C432.373 292.511 432.146 292.815 431.827 293.139C431.509 293.463 431.086 293.739 430.558 293.966C430.029 294.193 429.384 294.307 428.623 294.307ZM428.93 292.5C429.725 292.5 430.396 292.344 430.941 292.031C431.492 291.719 431.907 291.315 432.185 290.821C432.469 290.327 432.612 289.807 432.612 289.261V287.42C432.526 287.523 432.339 287.616 432.049 287.702C431.765 287.781 431.435 287.852 431.06 287.915C430.691 287.972 430.33 288.023 429.978 288.068C429.631 288.108 429.35 288.142 429.134 288.17C428.612 288.239 428.123 288.349 427.668 288.503C427.219 288.651 426.856 288.875 426.577 289.176C426.305 289.472 426.168 289.875 426.168 290.386C426.168 291.085 426.427 291.614 426.944 291.972C427.467 292.324 428.129 292.5 428.93 292.5ZM440.305 286.125V294H438.294V280.909H440.237V282.955H440.408C440.714 282.29 441.18 281.756 441.805 281.352C442.43 280.943 443.237 280.739 444.226 280.739C445.112 280.739 445.888 280.92 446.553 281.284C447.217 281.642 447.734 282.188 448.104 282.92C448.473 283.648 448.658 284.568 448.658 285.682V294H446.646V285.818C446.646 284.79 446.379 283.989 445.845 283.415C445.311 282.835 444.578 282.545 443.646 282.545C443.004 282.545 442.43 282.685 441.925 282.963C441.425 283.241 441.03 283.648 440.74 284.182C440.45 284.716 440.305 285.364 440.305 286.125Z" fill="black"/>
<path d="M497.438 137.131C497.347 136.324 496.972 135.699 496.312 135.256C495.653 134.807 494.824 134.582 493.824 134.582C493.108 134.582 492.489 134.696 491.966 134.923C491.443 135.145 491.037 135.452 490.747 135.844C490.463 136.23 490.321 136.67 490.321 137.165C490.321 137.58 490.418 137.937 490.611 138.239C490.81 138.54 491.068 138.793 491.386 138.997C491.71 139.196 492.057 139.364 492.426 139.5C492.795 139.631 493.151 139.739 493.491 139.824L495.196 140.267C495.753 140.403 496.324 140.588 496.909 140.821C497.494 141.054 498.037 141.361 498.537 141.741C499.037 142.122 499.44 142.594 499.747 143.156C500.06 143.719 500.216 144.392 500.216 145.176C500.216 146.165 499.96 147.043 499.449 147.81C498.943 148.577 498.207 149.182 497.241 149.625C496.281 150.068 495.119 150.29 493.756 150.29C492.449 150.29 491.318 150.082 490.364 149.668C489.409 149.253 488.662 148.665 488.122 147.903C487.582 147.136 487.284 146.227 487.227 145.176H489.869C489.92 145.807 490.125 146.332 490.483 146.753C490.847 147.168 491.31 147.477 491.872 147.682C492.44 147.881 493.062 147.98 493.739 147.98C494.483 147.98 495.145 147.864 495.724 147.631C496.31 147.392 496.77 147.062 497.105 146.642C497.44 146.216 497.608 145.719 497.608 145.151C497.608 144.634 497.46 144.21 497.165 143.881C496.875 143.551 496.48 143.278 495.98 143.062C495.486 142.847 494.926 142.656 494.301 142.491L492.239 141.929C490.841 141.548 489.733 140.989 488.915 140.25C488.102 139.511 487.696 138.534 487.696 137.318C487.696 136.312 487.969 135.435 488.514 134.685C489.06 133.935 489.798 133.352 490.73 132.938C491.662 132.517 492.713 132.307 493.884 132.307C495.065 132.307 496.108 132.514 497.011 132.929C497.92 133.344 498.636 133.915 499.159 134.642C499.682 135.364 499.955 136.193 499.977 137.131H497.438ZM503.158 154.909V136.909H505.647V139.031H505.86C506.008 138.759 506.221 138.443 506.499 138.085C506.778 137.727 507.164 137.415 507.658 137.148C508.153 136.875 508.806 136.739 509.619 136.739C510.675 136.739 511.619 137.006 512.448 137.54C513.278 138.074 513.928 138.844 514.4 139.849C514.877 140.855 515.116 142.065 515.116 143.48C515.116 144.895 514.88 146.108 514.408 147.119C513.937 148.125 513.289 148.901 512.465 149.446C511.641 149.986 510.701 150.256 509.644 150.256C508.849 150.256 508.198 150.122 507.692 149.855C507.192 149.588 506.8 149.276 506.516 148.918C506.232 148.56 506.013 148.241 505.86 147.963H505.707V154.909H503.158ZM505.656 143.455C505.656 144.375 505.789 145.182 506.056 145.875C506.323 146.568 506.71 147.111 507.215 147.503C507.721 147.889 508.34 148.082 509.073 148.082C509.835 148.082 510.471 147.881 510.982 147.477C511.494 147.068 511.88 146.514 512.141 145.815C512.408 145.116 512.542 144.33 512.542 143.455C512.542 142.591 512.411 141.815 512.15 141.128C511.894 140.44 511.508 139.898 510.991 139.5C510.479 139.102 509.84 138.903 509.073 138.903C508.335 138.903 507.71 139.094 507.198 139.474C506.692 139.855 506.309 140.386 506.048 141.068C505.786 141.75 505.656 142.545 505.656 143.455ZM517.971 150V136.909H520.434V138.989H520.57C520.809 138.284 521.229 137.73 521.832 137.327C522.44 136.918 523.127 136.713 523.894 136.713C524.053 136.713 524.241 136.719 524.457 136.73C524.678 136.741 524.852 136.756 524.977 136.773V139.21C524.874 139.182 524.692 139.151 524.431 139.116C524.17 139.077 523.908 139.057 523.647 139.057C523.045 139.057 522.508 139.185 522.036 139.44C521.57 139.69 521.201 140.04 520.928 140.489C520.656 140.932 520.519 141.437 520.519 142.006V150H517.971ZM527.182 150V136.909H529.73V150H527.182ZM528.469 134.889C528.026 134.889 527.645 134.741 527.327 134.446C527.014 134.145 526.858 133.787 526.858 133.372C526.858 132.952 527.014 132.594 527.327 132.298C527.645 131.997 528.026 131.847 528.469 131.847C528.912 131.847 529.29 131.997 529.602 132.298C529.92 132.594 530.08 132.952 530.08 133.372C530.08 133.787 529.92 134.145 529.602 134.446C529.29 134.741 528.912 134.889 528.469 134.889ZM535.707 142.227V150H533.158V136.909H535.604V139.04H535.766C536.067 138.347 536.539 137.79 537.181 137.369C537.829 136.949 538.644 136.739 539.627 136.739C540.519 136.739 541.3 136.926 541.971 137.301C542.641 137.67 543.161 138.222 543.531 138.955C543.9 139.687 544.085 140.594 544.085 141.673V150H541.536V141.98C541.536 141.031 541.289 140.29 540.795 139.756C540.3 139.216 539.621 138.946 538.758 138.946C538.167 138.946 537.641 139.074 537.181 139.33C536.727 139.585 536.366 139.96 536.099 140.455C535.837 140.943 535.707 141.534 535.707 142.227ZM553.613 136.909V138.955H546.462V136.909H553.613ZM548.38 133.773H550.928V146.156C550.928 146.651 551.002 147.023 551.15 147.273C551.298 147.517 551.488 147.685 551.721 147.776C551.96 147.861 552.218 147.903 552.496 147.903C552.701 147.903 552.88 147.889 553.033 147.861C553.187 147.832 553.306 147.81 553.391 147.793L553.852 149.898C553.704 149.955 553.494 150.011 553.221 150.068C552.948 150.131 552.607 150.165 552.198 150.17C551.528 150.182 550.903 150.062 550.323 149.812C549.744 149.562 549.275 149.176 548.917 148.653C548.559 148.131 548.38 147.474 548.38 146.685V133.773Z" fill="black"/>
<path d="M592.227 8.54545V26H590.114V8.54545H592.227ZM601.886 12.9091V14.6136H595.102V12.9091H601.886ZM597.079 9.77273H599.09V22.25C599.09 22.8182 599.173 23.2443 599.337 23.5284C599.508 23.8068 599.724 23.9943 599.985 24.0909C600.252 24.1818 600.533 24.2273 600.829 24.2273C601.05 24.2273 601.232 24.2159 601.374 24.1932C601.516 24.1648 601.63 24.142 601.715 24.125L602.124 25.9318C601.988 25.983 601.798 26.0341 601.553 26.0852C601.309 26.142 600.999 26.1705 600.624 26.1705C600.056 26.1705 599.499 26.0483 598.954 25.804C598.414 25.5597 597.965 25.1875 597.607 24.6875C597.255 24.1875 597.079 23.5568 597.079 22.7955V9.77273ZM610.259 26.2727C608.998 26.2727 607.91 25.9943 606.995 25.4375C606.086 24.875 605.384 24.0909 604.89 23.0852C604.401 22.0739 604.157 20.8977 604.157 19.5568C604.157 18.2159 604.401 17.0341 604.89 16.0114C605.384 14.983 606.072 14.1818 606.952 13.608C607.839 13.0284 608.873 12.7386 610.055 12.7386C610.737 12.7386 611.41 12.8523 612.075 13.0795C612.739 13.3068 613.344 13.6761 613.89 14.1875C614.435 14.6932 614.87 15.3636 615.194 16.1989C615.518 17.0341 615.68 18.0625 615.68 19.2841V20.1364H605.589V18.3977H613.634C613.634 17.6591 613.487 17 613.191 16.4205C612.901 15.8409 612.487 15.3835 611.947 15.0483C611.413 14.7131 610.782 14.5455 610.055 14.5455C609.254 14.5455 608.56 14.7443 607.975 15.142C607.396 15.5341 606.95 16.0455 606.637 16.6761C606.325 17.3068 606.168 17.983 606.168 18.7045V19.8636C606.168 20.8523 606.339 21.6903 606.68 22.3778C607.026 23.0597 607.506 23.5795 608.12 23.9375C608.734 24.2898 609.447 24.4659 610.259 24.4659C610.788 24.4659 611.265 24.392 611.691 24.2443C612.123 24.0909 612.495 23.8636 612.808 23.5625C613.12 23.2557 613.362 22.875 613.532 22.4205L615.475 22.9659C615.271 23.625 614.927 24.2045 614.444 24.7045C613.961 25.1989 613.364 25.5852 612.654 25.8636C611.944 26.1364 611.146 26.2727 610.259 26.2727ZM618.739 26V12.9091H620.683V14.8864H620.819C621.058 14.2386 621.489 13.7131 622.114 13.3097C622.739 12.9062 623.444 12.7045 624.228 12.7045C624.376 12.7045 624.56 12.7074 624.782 12.7131C625.004 12.7187 625.171 12.7273 625.285 12.7386V14.7841C625.217 14.767 625.06 14.7415 624.816 14.7074C624.577 14.6676 624.325 14.6477 624.058 14.6477C623.421 14.6477 622.853 14.7812 622.353 15.0483C621.859 15.3097 621.467 15.6733 621.177 16.1392C620.893 16.5994 620.751 17.125 620.751 17.7159V26H618.739ZM631.521 26.3068C630.692 26.3068 629.939 26.1506 629.263 25.8381C628.587 25.5199 628.05 25.0625 627.652 24.4659C627.254 23.8636 627.055 23.1364 627.055 22.2841C627.055 21.5341 627.203 20.9261 627.499 20.4602C627.794 19.9886 628.189 19.6193 628.683 19.3523C629.178 19.0852 629.723 18.8864 630.32 18.7557C630.922 18.6193 631.527 18.5114 632.135 18.4318C632.93 18.3295 633.575 18.2528 634.07 18.2017C634.57 18.1449 634.933 18.0511 635.161 17.9205C635.393 17.7898 635.51 17.5625 635.51 17.2386V17.1705C635.51 16.3295 635.28 15.6761 634.82 15.2102C634.365 14.7443 633.675 14.5114 632.749 14.5114C631.788 14.5114 631.036 14.7216 630.49 15.142C629.945 15.5625 629.561 16.0114 629.339 16.4886L627.43 15.8068C627.771 15.0114 628.226 14.392 628.794 13.9489C629.368 13.5 629.993 13.1875 630.669 13.0114C631.351 12.8295 632.021 12.7386 632.68 12.7386C633.101 12.7386 633.584 12.7898 634.129 12.892C634.68 12.9886 635.212 13.1903 635.723 13.4972C636.24 13.804 636.669 14.267 637.01 14.8864C637.351 15.5057 637.521 16.3352 637.521 17.375V26H635.51V24.2273H635.408C635.271 24.5114 635.044 24.8153 634.726 25.1392C634.408 25.4631 633.984 25.7386 633.456 25.9659C632.928 26.1932 632.283 26.3068 631.521 26.3068ZM631.828 24.5C632.624 24.5 633.294 24.3438 633.839 24.0312C634.391 23.7188 634.805 23.3153 635.084 22.821C635.368 22.3267 635.51 21.8068 635.51 21.2614V19.4205C635.425 19.5227 635.237 19.6165 634.947 19.7017C634.663 19.7812 634.334 19.8523 633.959 19.9148C633.589 19.9716 633.229 20.0227 632.876 20.0682C632.53 20.108 632.249 20.142 632.033 20.1705C631.51 20.2386 631.021 20.3494 630.567 20.5028C630.118 20.6506 629.754 20.875 629.476 21.1761C629.203 21.4716 629.067 21.875 629.067 22.3864C629.067 23.0852 629.325 23.6136 629.842 23.9716C630.365 24.3239 631.027 24.5 631.828 24.5ZM646.886 12.9091V14.6136H640.102V12.9091H646.886ZM642.079 9.77273H644.09V22.25C644.09 22.8182 644.173 23.2443 644.337 23.5284C644.508 23.8068 644.724 23.9943 644.985 24.0909C645.252 24.1818 645.533 24.2273 645.829 24.2273C646.05 24.2273 646.232 24.2159 646.374 24.1932C646.516 24.1648 646.63 24.142 646.715 24.125L647.124 25.9318C646.988 25.983 646.798 26.0341 646.553 26.0852C646.309 26.142 645.999 26.1705 645.624 26.1705C645.056 26.1705 644.499 26.0483 643.954 25.804C643.414 25.5597 642.965 25.1875 642.607 24.6875C642.255 24.1875 642.079 23.5568 642.079 22.7955V9.77273ZM649.911 26V12.9091H651.923V26H649.911ZM650.934 10.7273C650.542 10.7273 650.204 10.5938 649.92 10.3267C649.641 10.0597 649.502 9.73864 649.502 9.36364C649.502 8.98864 649.641 8.66761 649.92 8.40057C650.204 8.13352 650.542 8 650.934 8C651.326 8 651.661 8.13352 651.94 8.40057C652.224 8.66761 652.366 8.98864 652.366 9.36364C652.366 9.73864 652.224 10.0597 651.94 10.3267C651.661 10.5938 651.326 10.7273 650.934 10.7273ZM660.925 26.2727C659.743 26.2727 658.706 25.9915 657.814 25.429C656.928 24.8665 656.234 24.0795 655.734 23.0682C655.24 22.0568 654.993 20.875 654.993 19.5227C654.993 18.1591 655.24 16.9687 655.734 15.9517C656.234 14.9347 656.928 14.1449 657.814 13.5824C658.706 13.0199 659.743 12.7386 660.925 12.7386C662.107 12.7386 663.141 13.0199 664.027 13.5824C664.919 14.1449 665.612 14.9347 666.107 15.9517C666.607 16.9687 666.857 18.1591 666.857 19.5227C666.857 20.875 666.607 22.0568 666.107 23.0682C665.612 24.0795 664.919 24.8665 664.027 25.429C663.141 25.9915 662.107 26.2727 660.925 26.2727ZM660.925 24.4659C661.822 24.4659 662.561 24.2358 663.141 23.7756C663.72 23.3153 664.149 22.7102 664.428 21.9602C664.706 21.2102 664.845 20.3977 664.845 19.5227C664.845 18.6477 664.706 17.8324 664.428 17.0767C664.149 16.321 663.72 15.7102 663.141 15.2443C662.561 14.7784 661.822 14.5455 660.925 14.5455C660.027 14.5455 659.288 14.7784 658.709 15.2443C658.129 15.7102 657.7 16.321 657.422 17.0767C657.143 17.8324 657.004 18.6477 657.004 19.5227C657.004 20.3977 657.143 21.2102 657.422 21.9602C657.7 22.7102 658.129 23.3153 658.709 23.7756C659.288 24.2358 660.027 24.4659 660.925 24.4659ZM671.938 18.125V26H669.927V12.9091H671.87V14.9545H672.04C672.347 14.2898 672.813 13.7557 673.438 13.3523C674.063 12.9432 674.87 12.7386 675.859 12.7386C676.745 12.7386 677.521 12.9205 678.185 13.2841C678.85 13.642 679.367 14.1875 679.737 14.9205C680.106 15.6477 680.29 16.5682 680.29 17.6818V26H678.279V17.8182C678.279 16.7898 678.012 15.9886 677.478 15.4148C676.944 14.8352 676.211 14.5455 675.279 14.5455C674.637 14.5455 674.063 14.6847 673.558 14.9631C673.058 15.2415 672.663 15.6477 672.373 16.1818C672.083 16.7159 671.938 17.3636 671.938 18.125Z" fill="black"/>
<path d="M32.9717 249.174C35.9893 249.174 38.8237 248.596 41.4751 247.438C44.1411 246.296 46.4849 244.714 48.5063 242.692C50.5278 240.656 52.1172 238.312 53.2744 235.661C54.4316 232.995 55.0103 230.153 55.0103 227.136C55.0103 224.118 54.4316 221.284 53.2744 218.632C52.1172 215.966 50.5278 213.623 48.5063 211.601C46.4849 209.565 44.1411 207.976 41.4751 206.833C38.8091 205.676 35.9673 205.097 32.9497 205.097C29.9321 205.097 27.0903 205.676 24.4243 206.833C21.7729 207.976 19.4365 209.565 17.415 211.601C15.3936 213.623 13.8042 215.966 12.647 218.632C11.5044 221.284 10.9331 224.118 10.9331 227.136C10.9331 230.153 11.5044 232.995 12.647 235.661C13.8042 238.312 15.3936 240.656 17.415 242.692C19.4512 244.714 21.7949 246.296 24.4463 247.438C27.1123 248.596 29.9541 249.174 32.9717 249.174ZM32.9717 246.34C30.3057 246.34 27.8154 245.842 25.501 244.846C23.1865 243.85 21.1504 242.473 19.3926 240.715C17.6348 238.957 16.2578 236.921 15.2617 234.606C14.2803 232.277 13.7896 229.787 13.7896 227.136C13.7896 224.484 14.2803 222.001 15.2617 219.687C16.2578 217.358 17.6274 215.314 19.3706 213.557C21.1284 211.784 23.1646 210.407 25.479 209.426C27.8081 208.43 30.2983 207.932 32.9497 207.932C35.6157 207.932 38.106 208.43 40.4204 209.426C42.7349 210.407 44.771 211.784 46.5288 213.557C48.3013 215.314 49.6855 217.358 50.6816 219.687C51.6777 222.001 52.1758 224.484 52.1758 227.136C52.1758 229.787 51.6777 232.277 50.6816 234.606C49.7002 236.921 48.3306 238.957 46.5728 240.715C44.8149 242.473 42.7715 243.85 40.4424 244.846C38.1133 245.842 35.623 246.34 32.9717 246.34ZM32.9717 241.066C34.876 241.066 36.6631 240.7 38.333 239.968C40.0176 239.235 41.4971 238.232 42.7715 236.958C44.0605 235.668 45.064 234.189 45.7817 232.519C46.5142 230.834 46.8804 229.04 46.8804 227.136C46.8804 225.246 46.5142 223.459 45.7817 221.774C45.064 220.09 44.0605 218.61 42.7715 217.336C41.4824 216.047 39.9956 215.036 38.311 214.304C36.6411 213.571 34.8613 213.205 32.9717 213.205C31.0674 213.205 29.2729 213.571 27.5884 214.304C25.9038 215.036 24.417 216.047 23.1279 217.336C21.8535 218.61 20.8501 220.09 20.1177 221.774C19.3999 223.459 19.041 225.246 19.041 227.136C19.041 229.04 19.4072 230.834 20.1396 232.519C20.8721 234.189 21.8755 235.668 23.1499 236.958C24.439 238.232 25.9185 239.235 27.5884 239.968C29.2729 240.7 31.0674 241.066 32.9717 241.066ZM32.9717 238.364C31.4482 238.364 30.0054 238.071 28.6431 237.485C27.2954 236.884 26.1016 236.071 25.0615 235.046C24.0361 234.006 23.2231 232.812 22.6226 231.464C22.0366 230.102 21.7437 228.659 21.7437 227.136C21.7437 225.612 22.0366 224.169 22.6226 222.807C23.2085 221.445 24.0215 220.251 25.0615 219.226C26.1016 218.186 27.2954 217.373 28.6431 216.787C29.9907 216.201 31.4336 215.908 32.9717 215.908C34.4951 215.908 35.9307 216.201 37.2783 216.787C38.626 217.373 39.8125 218.186 40.8379 219.226C41.8779 220.266 42.6909 221.467 43.2769 222.829C43.8774 224.177 44.1777 225.612 44.1777 227.136C44.1777 228.674 43.8848 230.117 43.2988 231.464C42.7129 232.812 41.8999 234.006 40.8599 235.046C39.8345 236.086 38.6406 236.899 37.2783 237.485C35.9307 238.071 34.4951 238.364 32.9717 238.364ZM32.9717 233.112C34.0703 233.112 35.0664 232.841 35.96 232.299C36.8682 231.757 37.5933 231.04 38.1353 230.146C38.6772 229.238 38.9482 228.234 38.9482 227.136C38.9482 226.037 38.6772 225.041 38.1353 224.147C37.5933 223.239 36.8682 222.521 35.96 221.994C35.0664 221.452 34.0703 221.181 32.9717 221.181C31.873 221.181 30.8696 221.452 29.9614 221.994C29.0679 222.521 28.3501 223.239 27.8081 224.147C27.2661 225.041 26.9951 226.037 26.9951 227.136C26.9951 228.234 27.2661 229.238 27.8081 230.146C28.3501 231.04 29.0752 231.757 29.9834 232.299C30.8916 232.841 31.8877 233.112 32.9717 233.112Z" fill="black"/>
<path d="M229.304 238.166L236.752 235.288C237.016 235.2 237.214 235.104 237.346 235.002C237.478 234.899 237.624 234.775 237.785 234.628L258.901 213.842C259.838 212.905 260.307 211.916 260.307 210.876C260.307 209.821 259.831 208.803 258.879 207.822L254.287 203.142C253.32 202.189 252.309 201.699 251.254 201.669C250.2 201.64 249.196 202.094 248.244 203.032L227.106 223.818C226.945 223.964 226.813 224.104 226.711 224.235C226.623 224.367 226.528 224.55 226.425 224.785L223.415 232.211C223.21 232.695 223.137 233.156 223.195 233.596C223.254 234.035 223.466 234.438 223.833 234.804L226.711 237.727C227.077 238.093 227.48 238.312 227.919 238.386C228.359 238.444 228.82 238.371 229.304 238.166ZM229.018 235.573C228.798 235.646 228.608 235.676 228.447 235.661C228.3 235.632 228.139 235.529 227.963 235.354L226.25 233.596C226.059 233.42 225.957 233.251 225.942 233.09C225.927 232.929 225.964 232.746 226.052 232.541L228.842 225.708L249.98 204.899C250.375 204.548 250.786 204.365 251.21 204.35C251.635 204.335 252.023 204.511 252.375 204.877L257.121 209.689C257.883 210.495 257.854 211.301 257.033 212.106L235.896 232.893L229.018 235.573ZM221.503 239.221H223.854C224.133 239.221 224.345 239.191 224.492 239.133C224.653 239.06 224.836 238.95 225.041 238.803L227.194 237.199L224.36 234.409L220.976 237.88C220.698 238.173 220.61 238.474 220.712 238.781C220.83 239.074 221.093 239.221 221.503 239.221ZM227.348 225.708L236.137 234.628L237.763 233.024L228.996 224.104L227.348 225.708ZM245.915 207.492L254.704 216.413L256.33 214.809L247.541 205.888L245.915 207.492ZM219.943 246.713H262.79C263.156 246.713 263.471 246.574 263.735 246.296C263.999 246.032 264.13 245.717 264.13 245.351C264.13 244.985 263.999 244.67 263.735 244.406C263.471 244.143 263.156 244.011 262.79 244.011H219.943C219.577 244.011 219.262 244.143 218.999 244.406C218.735 244.67 218.603 244.985 218.603 245.351C218.603 245.717 218.735 246.032 218.999 246.296C219.262 246.574 219.577 246.713 219.943 246.713Z" fill="black"/>
<path d="M435.256 230.344H417.985C417.678 230.344 417.414 230.446 417.194 230.651C416.989 230.856 416.887 231.113 416.887 231.42C416.887 231.713 416.989 231.97 417.194 232.189C417.414 232.395 417.678 232.497 417.985 232.497H435.256C435.563 232.497 435.82 232.395 436.025 232.189C436.23 231.97 436.333 231.713 436.333 231.42C436.333 231.113 436.23 230.856 436.025 230.651C435.82 230.446 435.563 230.344 435.256 230.344ZM435.256 238.056H417.985C417.678 238.056 417.414 238.166 417.194 238.386C416.989 238.591 416.887 238.847 416.887 239.155C416.887 239.448 416.989 239.697 417.194 239.902C417.414 240.107 417.678 240.209 417.985 240.209H435.256C435.563 240.209 435.82 240.107 436.025 239.902C436.23 239.697 436.333 239.448 436.333 239.155C436.333 238.847 436.23 238.591 436.025 238.386C435.82 238.166 435.563 238.056 435.256 238.056ZM415.019 250.559H438.508C440.632 250.559 442.229 250.017 443.298 248.933C444.382 247.849 444.924 246.237 444.924 244.099V223.488C444.924 222.683 444.88 222.009 444.792 221.467C444.704 220.925 444.528 220.434 444.265 219.995C444.016 219.541 443.642 219.064 443.144 218.566L430.246 205.515C429.777 205.031 429.316 204.665 428.862 204.416C428.422 204.167 427.939 203.991 427.412 203.889C426.884 203.786 426.269 203.735 425.566 203.735H415.019C412.895 203.735 411.291 204.284 410.207 205.383C409.138 206.467 408.603 208.078 408.603 210.217V244.099C408.603 246.252 409.138 247.863 410.207 248.933C411.291 250.017 412.895 250.559 415.019 250.559ZM415.129 247.856C413.869 247.856 412.917 247.526 412.272 246.867C411.628 246.223 411.306 245.285 411.306 244.055V210.283C411.306 209.067 411.628 208.122 412.272 207.448C412.917 206.774 413.876 206.438 415.151 206.438H425.456V219.687C425.456 220.932 425.764 221.862 426.379 222.478C426.994 223.078 427.917 223.378 429.147 223.378H442.221V244.055C442.221 245.285 441.899 246.223 441.254 246.867C440.61 247.526 439.65 247.856 438.376 247.856H415.129ZM429.411 220.808C428.913 220.808 428.554 220.705 428.334 220.5C428.115 220.28 428.005 219.914 428.005 219.401V206.987L441.672 220.808H429.411Z" fill="black"/>
<path d="M736.304 244.23C735.015 244.23 733.813 244.099 732.7 243.835C731.602 243.586 730.715 243.132 730.042 242.473C729.368 241.784 728.906 240.898 728.657 239.814C728.423 238.73 728.306 237.529 728.306 236.21V218.259C728.306 216.911 728.423 215.681 728.657 214.567C728.906 213.439 729.36 212.539 730.02 211.865C730.693 211.191 731.594 210.737 732.722 210.502C733.85 210.253 735.095 210.129 736.458 210.129H754.519C755.808 210.129 757.002 210.253 758.101 210.502C759.214 210.751 760.107 211.213 760.781 211.887C761.455 212.561 761.909 213.447 762.144 214.545C762.393 215.629 762.517 216.823 762.517 218.127V227.026C762.737 226.997 762.957 226.982 763.176 226.982C763.411 226.967 763.638 226.96 763.857 226.96C764.092 226.96 764.319 226.967 764.539 226.982C764.758 226.982 764.985 226.997 765.22 227.026V218.72C765.22 216.713 765.066 214.992 764.758 213.557C764.451 212.121 763.792 210.905 762.781 209.909C761.755 208.884 760.518 208.217 759.067 207.91C757.632 207.587 755.918 207.426 753.926 207.426H736.765C734.846 207.426 733.169 207.587 731.733 207.91C730.298 208.217 729.075 208.884 728.064 209.909C727.053 210.92 726.387 212.136 726.064 213.557C725.757 214.978 725.603 216.655 725.603 218.588V235.639C725.603 237.631 725.757 239.345 726.064 240.781C726.372 242.216 727.031 243.439 728.042 244.45C729.067 245.476 730.298 246.142 731.733 246.45C733.184 246.757 734.905 246.911 736.897 246.911H752.102C751.868 246.501 751.655 246.069 751.465 245.615C751.274 245.161 751.121 244.699 751.003 244.23H736.304ZM763.879 251.328C765.359 251.328 766.758 251.042 768.076 250.471C769.395 249.899 770.559 249.108 771.57 248.098C772.581 247.102 773.372 245.944 773.943 244.626C774.514 243.308 774.8 241.901 774.8 240.407C774.8 238.898 774.514 237.485 773.943 236.167C773.386 234.848 772.603 233.691 771.592 232.695C770.596 231.684 769.438 230.9 768.12 230.344C766.802 229.772 765.388 229.487 763.879 229.487C762.385 229.487 760.979 229.772 759.661 230.344C758.342 230.9 757.178 231.684 756.167 232.695C755.171 233.706 754.387 234.87 753.816 236.188C753.245 237.507 752.959 238.913 752.959 240.407C752.959 241.901 753.245 243.308 753.816 244.626C754.387 245.959 755.171 247.124 756.167 248.12C757.178 249.13 758.342 249.914 759.661 250.471C760.979 251.042 762.385 251.328 763.879 251.328ZM762.605 246.713C762.444 246.713 762.275 246.677 762.1 246.604C761.924 246.545 761.77 246.442 761.638 246.296L757.485 241.748C757.412 241.645 757.346 241.521 757.288 241.374C757.244 241.228 757.222 241.081 757.222 240.935C757.222 240.598 757.332 240.319 757.551 240.1C757.786 239.865 758.071 239.748 758.408 239.748C758.613 239.748 758.789 239.792 758.936 239.88C759.097 239.968 759.229 240.07 759.331 240.188L762.561 243.659L768.384 235.595C768.633 235.244 768.97 235.068 769.395 235.068C769.702 235.068 769.973 235.185 770.208 235.419C770.442 235.639 770.559 235.91 770.559 236.232C770.559 236.35 770.537 236.474 770.493 236.606C770.449 236.723 770.383 236.848 770.295 236.979L763.594 246.274C763.389 246.567 763.059 246.713 762.605 246.713Z" fill="black"/>
<path d="M594.267 87.9459C618.83 125.273 614.674 175.105 581.031 205.686C565.267 220.016 544.709 230.133 523.278 230.031L467.5 230.031L467.5 233.425L523.278 233.425C528.929 233.489 534.622 232.91 540.305 231.571C562.6 226.313 582.805 212.58 596.107 193.89C620.724 159.293 619.328 110.937 591.357 78.359C568.025 51.1821 529.575 37.5158 494.66 48.195C475.644 54.0093 458.734 65.5966 446.521 81.3506C430.726 101.723 426.257 123.67 428.218 148.478C424.603 144.615 420.844 140.889 417.367 136.895C416.072 135.408 413.54 137.332 414.616 138.977C418.632 145.103 423.596 150.298 428.815 155.41C429.47 156.054 430.615 156.126 431.275 155.428C436.491 149.882 442.279 145.319 448.427 140.823C450.222 139.513 448.511 136.48 446.704 137.801C441.617 141.518 436.195 145.217 431.811 149.787C429.474 122.719 434.908 97.9407 454.426 77.4702C467.371 63.8952 483.718 53.4452 502.348 49.8692C537.157 43.1877 574.605 58.0623 594.267 87.9459Z" fill="black"/>
<path d="M598.939 59.2537C607.674 49.7287 624.368 50.4486 635.576 52.997C649.108 56.0729 657.888 67.156 660.9 80.2693C663.749 92.6683 660.518 107.301 651.898 117.173C644.206 125.983 630.13 135.036 618.369 130.707C617.564 130.411 616.842 131.431 617.375 132.079L623.615 139.671L624.973 138.554C623.095 136.537 617.884 131.897 620.764 129.538C622.615 128.023 624.612 126.139 625.949 124.136C626.576 123.198 625.177 122.222 624.547 123.166C622.746 125.865 619.958 128.147 617.337 130.032C616.939 130.318 616.929 130.899 617.197 131.247C619.358 134.056 621.192 137.07 623.615 139.67C624.357 140.467 625.675 139.407 624.974 138.554L618.734 130.961C618.403 131.419 618.071 131.876 617.741 132.333C629.656 136.718 642.778 128.494 651.278 120.269C662.022 109.872 665.275 93.9196 662.619 79.9675C659.828 65.3169 649.235 54.3304 634.779 51.0438C623.185 48.4078 606.421 48.5908 597.538 58.281C596.773 59.1137 598.182 60.077 598.939 59.2516L598.939 59.2537Z" fill="black"/>
<path d="M186.258 220.715L192.284 226.742V225.463C189.881 227.946 187.855 231.067 184.632 232.554C183.575 233.043 184.495 234.601 185.546 234.116C188.922 232.557 191.044 229.342 193.562 226.743C193.904 226.39 193.915 225.817 193.562 225.464L187.536 219.437C186.711 218.612 185.432 219.89 186.258 220.715L186.258 220.715Z" fill="black"/>
<path d="M82.0333 227.007C118.467 227.083 155.363 231.886 191.719 228.213C192.867 228.097 192.878 226.288 191.719 226.405C155.363 230.079 118.465 225.276 82.0333 225.199C80.8663 225.197 80.868 227.004 82.0333 227.007V227.007Z" fill="black"/>
<path d="M693.099 220.715L699.126 226.742V225.463C696.722 227.946 694.697 231.067 691.473 232.554C690.416 233.043 691.336 234.601 692.387 234.116C695.763 232.557 697.886 229.342 700.404 226.743C700.746 226.39 700.756 225.817 700.404 225.464L694.377 219.437C693.552 218.612 692.273 219.89 693.099 220.715L693.099 220.715Z" fill="black"/>
<path d="M588.875 227.007C625.308 227.083 662.204 231.886 698.56 228.213C699.708 228.097 699.719 226.288 698.56 226.405C662.204 230.079 625.306 225.276 588.875 225.199C587.708 225.197 587.709 227.004 588.875 227.007V227.007Z" fill="black"/>
<path d="M378.258 220.715L384.284 226.742V225.463C381.881 227.946 379.855 231.067 376.632 232.554C375.575 233.043 376.495 234.601 377.546 234.116C380.922 232.557 383.044 229.342 385.562 226.743C385.904 226.39 385.915 225.817 385.562 225.464L379.536 219.437C378.711 218.612 377.432 219.89 378.258 220.715L378.258 220.715Z" fill="black"/>
<path d="M274.033 227.007C310.467 227.083 347.363 231.886 383.719 228.213C384.867 228.097 384.878 226.288 383.719 226.405C347.363 230.079 310.465 225.276 274.033 225.199C272.866 225.197 272.868 227.004 274.033 227.007V227.007Z" fill="black"/>
<path d="M706.114 294V276.545H708.227V292.125H716.341V294H706.114ZM723.193 294.307C722.364 294.307 721.611 294.151 720.935 293.838C720.259 293.52 719.722 293.062 719.324 292.466C718.926 291.864 718.727 291.136 718.727 290.284C718.727 289.534 718.875 288.926 719.17 288.46C719.466 287.989 719.861 287.619 720.355 287.352C720.849 287.085 721.395 286.886 721.991 286.756C722.594 286.619 723.199 286.511 723.807 286.432C724.602 286.33 725.247 286.253 725.741 286.202C726.241 286.145 726.605 286.051 726.832 285.92C727.065 285.79 727.182 285.562 727.182 285.239V285.17C727.182 284.33 726.952 283.676 726.491 283.21C726.037 282.744 725.347 282.511 724.42 282.511C723.46 282.511 722.707 282.722 722.162 283.142C721.616 283.562 721.233 284.011 721.011 284.489L719.102 283.807C719.443 283.011 719.898 282.392 720.466 281.949C721.04 281.5 721.665 281.187 722.341 281.011C723.023 280.83 723.693 280.739 724.352 280.739C724.773 280.739 725.256 280.79 725.801 280.892C726.352 280.989 726.884 281.19 727.395 281.497C727.912 281.804 728.341 282.267 728.682 282.886C729.023 283.506 729.193 284.335 729.193 285.375V294H727.182V292.227H727.08C726.943 292.511 726.716 292.815 726.398 293.139C726.08 293.463 725.656 293.739 725.128 293.966C724.599 294.193 723.955 294.307 723.193 294.307ZM723.5 292.5C724.295 292.5 724.966 292.344 725.511 292.031C726.063 291.719 726.477 291.315 726.756 290.821C727.04 290.327 727.182 289.807 727.182 289.261V287.42C727.097 287.523 726.909 287.616 726.619 287.702C726.335 287.781 726.006 287.852 725.631 287.915C725.261 287.972 724.901 288.023 724.548 288.068C724.202 288.108 723.92 288.142 723.705 288.17C723.182 288.239 722.693 288.349 722.239 288.503C721.79 288.651 721.426 288.875 721.148 289.176C720.875 289.472 720.739 289.875 720.739 290.386C720.739 291.085 720.997 291.614 721.514 291.972C722.037 292.324 722.699 292.5 723.5 292.5ZM741.114 288.648V280.909H743.126V294H741.114V291.784H740.978C740.671 292.449 740.194 293.014 739.546 293.48C738.898 293.94 738.08 294.17 737.092 294.17C736.273 294.17 735.546 293.991 734.91 293.634C734.273 293.27 733.773 292.724 733.41 291.997C733.046 291.264 732.864 290.341 732.864 289.227V280.909H734.876V289.091C734.876 290.045 735.143 290.807 735.677 291.375C736.217 291.943 736.904 292.227 737.739 292.227C738.239 292.227 738.748 292.099 739.265 291.844C739.788 291.588 740.225 291.196 740.577 290.668C740.935 290.139 741.114 289.466 741.114 288.648ZM748.821 286.125V294H746.81V280.909H748.753V282.955H748.923C749.23 282.29 749.696 281.756 750.321 281.352C750.946 280.943 751.753 280.739 752.741 280.739C753.628 280.739 754.403 280.92 755.068 281.284C755.733 281.642 756.25 282.188 756.619 282.92C756.989 283.648 757.173 284.568 757.173 285.682V294H755.162V285.818C755.162 284.79 754.895 283.989 754.361 283.415C753.827 282.835 753.094 282.545 752.162 282.545C751.52 282.545 750.946 282.685 750.44 282.963C749.94 283.241 749.545 283.648 749.256 284.182C748.966 284.716 748.821 285.364 748.821 286.125ZM766.167 294.273C764.94 294.273 763.883 293.983 762.996 293.403C762.11 292.824 761.428 292.026 760.951 291.009C760.474 289.991 760.235 288.83 760.235 287.523C760.235 286.193 760.479 285.02 760.968 284.003C761.462 282.98 762.15 282.182 763.031 281.608C763.917 281.028 764.951 280.739 766.133 280.739C767.053 280.739 767.883 280.909 768.621 281.25C769.36 281.591 769.965 282.068 770.437 282.682C770.908 283.295 771.201 284.011 771.315 284.83H769.303C769.15 284.233 768.809 283.705 768.281 283.244C767.758 282.778 767.053 282.545 766.167 282.545C765.383 282.545 764.695 282.75 764.104 283.159C763.519 283.562 763.062 284.134 762.732 284.872C762.408 285.605 762.246 286.466 762.246 287.455C762.246 288.466 762.406 289.347 762.724 290.097C763.048 290.847 763.502 291.429 764.087 291.844C764.678 292.259 765.371 292.466 766.167 292.466C766.69 292.466 767.164 292.375 767.59 292.193C768.016 292.011 768.377 291.75 768.673 291.409C768.968 291.068 769.178 290.659 769.303 290.182H771.315C771.201 290.955 770.92 291.651 770.471 292.27C770.028 292.884 769.44 293.372 768.707 293.736C767.979 294.094 767.133 294.273 766.167 294.273ZM776.266 286.125V294H774.255V276.545H776.266V282.955H776.437C776.744 282.278 777.204 281.741 777.817 281.344C778.437 280.94 779.261 280.739 780.289 280.739C781.181 280.739 781.962 280.918 782.633 281.276C783.303 281.628 783.823 282.17 784.192 282.903C784.567 283.631 784.755 284.557 784.755 285.682V294H782.744V285.818C782.744 284.778 782.474 283.974 781.934 283.406C781.4 282.832 780.658 282.545 779.71 282.545C779.05 282.545 778.46 282.685 777.937 282.963C777.42 283.241 777.011 283.648 776.71 284.182C776.414 284.716 776.266 285.364 776.266 286.125Z" fill="black"/>
</svg>
