<svg xmlns="http://www.w3.org/2000/svg" data-name="Слой 1" viewBox="0 0 100 100" x="0px" y="0px"><title>Безымянный-1-01-01-01-01</title><path d="M58.15351,97.38876c-8.102-.24116-16.20284-0.55516-24.30657-0.68521-2.96132-.04747-5.92731.42288-8.89551,0.5099-3.03878.08911-6.08331,0.02314-9.12445-.02492-1.511-.02384-1.96006-0.908-1.96329-2.3619-0.0151-6.89079-.18381-13.78156-0.16354-20.67195,0.01526-5.1898.30184-10.37836,0.34054-15.56847,0.03112-4.16939-.0842-8.34144-0.21273-12.51-0.24251-7.868-.53342-15.73465-0.82193-23.60121a4.83466,4.83466,0,0,1,2.71362-4.90079c2.03637-1.15008,3.70669-2.93512,5.59865-4.36062A5.86616,5.86616,0,0,1,23.95907,11.786c7.53917-.61306,15.12464-0.79242,22.62607-1.68889C52.457,9.39535,58.22471,7.8369,64.04674,6.70042c4.29967-.8393,8.6198-1.57428,12.91605-2.42981,2.24462-.447,4.44416-1.12042,6.68872-1.56815,1.953-.38956,2.86907.47967,2.66213,2.39583-1.61327,14.93575-.64341,29.89942-0.41706,44.84965,0.154,10.1697.65873,20.334,0.99414,30.50114a10.91216,10.91216,0,0,1-.09283,3.63861,3.23077,3.23077,0,0,1-2.13109,1.72735,45.01959,45.01959,0,0,1-5.53968.487c-4.84309.37471-6.28894,2.10644-6.38275,6.68929-0.06551,3.20091-.68374,3.87611-3.85909,3.96129-2.75469.07388-5.51008,0.12094-8.26523,0.17849-0.8196.01717-1.63929,0.02991-2.459,0.04467ZM40.421,18.43689a4.60483,4.60483,0,0,0,1.06174.2847c4.53492,0.10943,9.07044.19464,13.6058,0.286a77.40029,77.40029,0,0,0,8.44411.07713c1.33324-.11978,3.26391.64623,4.04664-1.44545,0.43528-1.16312,1.02835-2.2672,1.682-3.6832-0.74195-.10242-1.43737-0.1984-2.25565-0.31131,0.79144,3.2144-.52427,4.70868-3.439,4.40657a30.9662,30.9662,0,0,0-4.00068-.16995c-6.38833.16906-12.77545,0.38419-19.16388,0.58425l-12.66419-.28243L27.733,18.6654ZM66.23171,94.32855l0.00238-.08056a5.2462,5.2462,0,0,0,1.98006.00594A2.426,2.426,0,0,0,69.674,92.84626c0.13443-2.24569.06618-4.5085-.02229-6.76144-0.20453-5.20984-.56253-10.41527-0.678-15.62655-0.19782-8.92316-.30261-17.849-0.36047-26.77438-0.04289-6.60943.0267-13.22,0.10046-19.82946,0.01826-1.63917-.60345-2.22825-2.2651-2.17733-3.33833.10227-6.68237,0.03551-10.02388,0.01282-9.10637-.06187-18.21286-0.11832-27.31888-0.21578-3.91878-.042-7.84156-0.09049-11.75259-0.312-1.98011-.1121-2.41411.68825-2.305,2.4649,0.3195,5.20164.60935,10.40787,0.75946,15.61661,0.19826,6.88055.25289,13.76528,0.36925,20.64818,0.18475,10.92581.39672,21.85124,0.52118,32.77775,0.01626,1.42782.52844,1.80906,1.83426,1.77806,4.013-.09534,8.02836-0.19144,12.04164-0.15636,6.3896,0.05591,12.77811.29442,19.16743,0.31077C55.23789,94.6161,60.7349,94.42755,66.23171,94.32855ZM56.22057,10.767c5.253,0.24912,10.652.48425,16.04795,0.7754,1.38228,0.07454,2.65222.30362,2.66458,2.24087,0.03542,5.56667.27928,11.13314,0.25549,16.69886-0.031,7.28641-.50453,14.57943-0.30394,21.85626,0.23989,8.703,1.03908,17.38943,1.50235,26.08794,0.28834,5.414.20437,5.341,5.67923,4.91805,1.47105-.11363,1.92431-0.49143,1.89325-1.95452-0.27062-12.74339-.53267-25.48737-0.68978-38.23253-0.11083-8.98846-.10061-17.97927-0.05009-26.96845,0.02-3.54732.29568-7.09329,0.46491-10.86087C74.26733,7.19309,65.131,9.00244,56.22057,10.767Zm9.03436,3.25109c-9.55294-.44238-19.135-1.51648-28.69557-0.05875l0.00758,0.57543ZM18.19978,18.524c4.70192,0.689,6.829-.34012,7.34561-3.55391C22.81281,14.35674,20.17,15.63539,18.19978,18.524ZM73.04024,28.61073l-0.43805-.00446Q72.33184,39.924,72.06143,51.24165l0.49648,0.0039Z"/></svg>