<svg xmlns="http://www.w3.org/2000/svg" data-name="Слой 1" viewBox="0 0 100 100" x="0px" y="0px"><title>Безымянный-1_Монтажная область 1_Монтажная область 1_Монтажная область 1_Монтажная область 1_Монтажная область 1_Монтажная область 1_Монтажная область 1_Монтажная область 1_Монтажная область 1</title><path d="M36.22779,9.03613c2.94291-.2278,6.15976-.51609,9.38526-.71425,2.66442-.1637,5.33839-.37115,8.00939-.29041,4.14571.12529,8.2999.36631,12.43581.78186a41.08622,41.08622,0,0,1,6.47991,1.41192c2.10954.56831,2.49823,1.408,2.86471,3.58614A52.53349,52.53349,0,0,0,77.066,19.72987c.16989.58.371,1.15182.59058,1.82856,1.01488-1.50131,2.43455-1.28393,3.74352-.37554,1.142.79255,2.03405,2.084,1.37509,3.41161a5.04113,5.04113,0,0,1-2.51038,2.192,2.32965,2.32965,0,0,0-1.71942,2.34581c-.54272,6.88831-1.28234,13.75457-1.79778,20.64553-.27721,3.7062-.16107,7.45406-.37148,11.16946-.18327,3.236-.62356,6.44775-.86056,9.6799-.18622,2.53989-.23243,5.09482-.3467,7.64259-.13606,3.03333-.21945,6.07247-.4386,9.097a3.81612,3.81612,0,0,1-3.34558,3.60975c-3.34923.64719-6.72568,1.24183-10.12864,1.56643a110.66813,110.66813,0,0,1-13.31741.7336,114.80927,114.80927,0,0,1-12.79186-1.43168,31.7356,31.7356,0,0,1-6.14936-1.39425c-2.698-.95058-3.2604-2.36271-3.26609-5.13022a83.5645,83.5645,0,0,0-.63277-9.36716c-.51713-4.48531-1.24739-8.953-1.83322-13.43331-.48425-3.703-.996-7.40826-1.30839-11.12178-.50622-6.01792-.85867-12.04344-1.2772-18.06572-.12782-1.83865-.17408-3.687-.445-5.50939-.07465-.50228-.74789-1.09254-1.28018-1.3551-1.34546-.66366-2.17726-1.51772-1.90163-3.09539.53373-3.05487,1.2039-3.9254,3.12053-4.15447a1.11736,1.11736,0,0,0,.76291-.48947c1.03219-1.94952,1.956-3.96194,3.05383-5.8707a3.49824,3.49824,0,0,1,1.73049-1.43221c1.5402-.55495,3.19934-.80681,4.733-1.37486.45551-.16871.726-.94808.95671-1.50306A2.7946,2.7946,0,0,1,35.0626,6.95268C35.56525,7.22607,35.7438,8.12518,36.22779,9.03613Zm40.695,18.98659a26.164,26.164,0,0,1-4.23071,1.30791c-3.7162.45657-7.44907.90175-11.19764,1.03516-6.11016.21743-12.23627.36461-18.35874.2073a81.48417,81.48417,0,0,1-19.49-2.60952c-1.191-.32552-1.2861.27768-1.24186,1.25951.09375,2.078.06437,4.15714.09149,6.23594.02261,1.73512-.07372,3.47926.10547,5.204.504,4.85115,1.1442,9.69264,1.68981,14.54116.41785,3.71362.70264,7.4387,1.17314,11.147.73282,5.77532,1.49855,11.55,2.4119,17.30479.2829,1.78251-.44152,4.189,2.3343,4.94438.76235.2075,1.49065.5695,2.25715.74541a66.74619,66.74619,0,0,0,15.251,1.931c2.98451-.01458,5.97-.18932,8.93561-.45083,4.20338-.37066,8.42011-.72664,12.57162-1.39511,3.12937-.50387,3.35362-7.4602,3.43387-8.07579.11351-.87073.7859-8.35791,1.00174-11.23455.31275-4.16766.73408-8.32428.989-12.49714.20141-3.29675.08011-6.62755.35288-9.91369C75.53773,41.26454,76.24742,34.84012,76.92283,28.02272Zm-54.06845-7.0986c3.53366.774,7.0657,1.67464,10.6363,2.30309A120.99909,120.99909,0,0,0,55.7817,24.986c4.02755-.04264,8.0551-.301,12.05384-.68395,2.5053-.23992,4.957-.89228,7.57538-1.38648-.56312-2.79158-1.05864-5.24787-1.4645-7.25989-5.37816.80406-10.43854,1.634-15.52726,2.2894a41.6122,41.6122,0,0,1-7.35622.38c-5.28482-.26413-10.568-.72864-15.848-1.18576a68.11177,68.11177,0,0,1-8.5764-1.06754c-1.29785-.28153-1.8363-.11967-2.25438.97437C23.90908,18.289,23.409,19.52167,22.85438,20.92412Zm3.46311-7.45328.04577.47049a7.94035,7.94035,0,0,0,1.84854.66258c6.01026.57139,12.02049,1.22482,18.03733,1.57659,4.16039.24326,8.337.14179,12.49568.02493A45.10756,45.10756,0,0,0,71.61227,13.975a6.32507,6.32507,0,0,0,1.46178-.99609,6.358,6.358,0,0,0-1.4373-1.02613C66.461,10.14314,61.08239,9.95906,55.75933,9.81269c-4.54148-.12489-9.08172.30244-13.61631.554-1.9547.10843-3.89381.38971-5.95877.60483a5.64324,5.64324,0,0,1,.40651,1.85538c-.08687.515-.49535,1.28762-.88635,1.35624a8.78276,8.78276,0,0,1-3.33865.02085,14.00315,14.00315,0,0,1-2.91427-1.37252l.10354-.50021ZM81.18481,24.34422c-1.11866-1.69776-1.17022-1.7247-2.23863-1.15014a26.97923,26.97923,0,0,1-10.10693,2.89958c-2.90763.30264-5.84779.44737-8.78162.46654-5.287.03456-10.58274.08776-15.86973-.18274a91.25385,91.25385,0,0,1-11.575-1.42722c-3.8635-.7007-7.67142-1.78046-11.50225-2.70121-.646-.15528-1.37706-.92415-1.79809.2463-.3659,1.01723-.28485,1.89593.91094,2.29206a39.40057,39.40057,0,0,0,6.75777,2.08051c6.18467.84915,12.39943,1.704,18.60581,1.95782,5.95452.24353,11.91584-.23116,17.86947-.455,3.17569-.11942,6.39731.0161,9.43506-1.08488C75.58636,26.30917,78.29483,25.36765,81.18481,24.34422Z"/></svg>