<svg xmlns="http://www.w3.org/2000/svg" data-name="Слой 1" viewBox="0 0 100 100" x="0px" y="0px"><defs><style>.cls-1{fill:none;}</style></defs><title>Безымянный-1_Монтажная область 1_Монтажная область 1_Монтажная область 1_Монтажная область 1_Монтажная область 1_Монтажная область 1_Монтажная область 1_Монтажная область 1_Монтажная область 1</title><path class="cls-1" d="M79.19039,54.234c-3.28689-.74224-6.45281.12318-9.68574.42423-.0917.00853-.1776.02463-.26674.03648q-1.25626.36741-2.47693.84237c-1.61651.91828-2.83989,2.34842-4.35455,3.41678,3.04775-.53208,5.45769-3.2326,8.95807-2.16787a4.70249,4.70249,0,0,1-1.71319,1.61663C67.11691,59.767,64.57147,61.114,61.993,62.39243c-1.82659.90569-2.01593,2.33873-1.62936,4.1253,3.85389-2.06365,7.25314-4.9341,11.84309-5.14663.50366,1.411.28022,1.96122-1.35716,2.23171a14.62449,14.62449,0,0,0-9.20341,5.66987c-.4343.55311.00554,1.7926.042,2.71528a6.82054,6.82054,0,0,0,2.19912-.16392c2.8184-1.21787,5.56306-2.60618,8.37894-3.83032a18.69448,18.69448,0,0,1,3.05111-.77116l.29433.64938c-2.89824,3.42494-8.313,3.30341-10.9805,7.25188,1.29866,1.37646,2.52963,2.1383,4.34685.803a23.52576,23.52576,0,0,1,4.17778-2.395c1.62891-.74162,3.35765-1.264,5.04292-1.88179l.48142.878c-1.67129,2.857-6.26819,2.34505-7.74471,6.637,1.63969-.321,2.77394-.5166,3.89425-.77321.59488-.1362,1.1983-.61,1.74151-.53308,2.50236.35422,4.66186-2.62876,7.288-.71618,2.1764-1.18036,4.4625-2.0306,5.65652-4.63576,1.57854-3.44447,1.03528-6.69228-.1963-9.92457C87.54788,57.93322,83.989,55.3176,79.19039,54.234Z"/><path class="cls-1" d="M35.69746,59.50486a37.981,37.981,0,0,0-6.64175-3.39553c-4.561-1.76419-9.07862-.64191-13.52057.71727a7.87237,7.87237,0,0,0-1.80486,1.28756,10.56173,10.56173,0,0,1,1.237.43843c.59035.31409,1.15731.67219,1.73388,1.01214-.5393.5095-.99909,1.30332-1.6314,1.48016-3.02093.84478-4.84121,3.03852-6.90527,5.66674a6.44694,6.44694,0,0,0,1.47114-.236c1.796-.88284,3.51745-1.95109,5.3797-2.64759.69113-.25856,1.69525.31948,2.55663.516a13.42027,13.42027,0,0,1-1.65252,1.54771c-1.82632,1.22238-3.75272,2.30026-5.53351,3.58244-.51536.37114-.67173,1.24078-.99266,1.88188l.47253.45166c.88136-.36062,1.77442-.6952,2.64166-1.08705,1.95632-.88392,3.87258-1.86657,5.87026-2.641.43129-.16726,1.13711.37369,1.7165.58836a5.181,5.181,0,0,1-.77255,1.45622c-.37227.35784-1.0007.432-1.47223.707-1.78656,1.04206-3.5903,2.06312-5.29919,3.22231-.32334.21929-.24335,1.03315-.34948,1.57267.55077.10182,1.21534.45029,1.63064.25859,1.18207-.54568,2.23961-1.35324,3.38776-1.9818,2.336-1.279,4.628-2.85317,7.82631-1.58584-2.391,2.82649-6.89048,2.54911-8.47287,6.5408.81752.09774,1.83908.4452,2.00356.20519,1.99667-2.91325,5.36215-.43372,7.54072-2.40193l.53629.68452c-.66817.87184-1.33637,1.74369-2.10283,2.74375.922-.25958,1.72275-.44505,2.49651-.70934,5.0252-1.71689,9.76382-3.59042,11.12576-9.71721C38.96617,66.0931,38.2398,61.12361,35.69746,59.50486Z"/><path d="M94.95085,63.78185c-1.06868-4.818-1.95644-9.69045-3.32533-14.4232-1.10273-3.81238-2.85716-7.43225-4.1943-11.18323a30.0058,30.0058,0,0,1-.7856-4.07472c-.21113-1.033-3.73426-6.58493-4.88745-8.54263-3.07294-5.21661-8.07987-7.33555-13.53908-8.58924-5.69948-1.30878-5.70809-1.119-7.81315,4.29189-.63607,1.635-.43149,2.97162.93868,3.85887,1.5201.98443,2.962.28532,4.15338-.87187.59946-.58217,1.11075-1.254,1.68066-1.86792,1.38966-1.49684,2.84723-1.135,4.31408-.12845.62146.42649,1.22253.883,1.84868,1.30225,3.61113,2.41813,8.6688,11.64444,9.26585,12.54681a21.91314,21.91314,0,0,1,1.57549,2.20207,20.87381,20.87381,0,0,1,.8984,2.77069q1.78831,5.46566,3.59264,10.92625c.43453,1.31241.89966,2.61472,1.39174,4.04006-.24574-.00023-.41479.00882-.53915.01483-.64849-.6184-1.38805-1.16405-2.06341-1.6971a13.86259,13.86259,0,0,0-5.29966-3.0297,29.01551,29.01551,0,0,0-13.5773-.04929c-3.931,1.0209-7.55067,2.95425-9.85009,6.38922a13.9172,13.9172,0,0,0-2.31584,7.48268c-.04371.10678-.08516.21126-.12977.31886-4.55742-1.7644-9.33292-2.56294-14.38211-.88136a11.20689,11.20689,0,0,0-7.12312-9.50941c-5.45077-2.40575-10.9311-3.61605-16.8052-1.99411-.81708.22558-1.62762.47487-2.44116.71315q-.27217-.34253-.54431-.6851c1.61053-2.05585,3.09628-4.22671,4.86-6.14156,2.86391-3.10931,4.65672-6.9727,8.02332-9.81742,4.35121-3.67677,7.973-8.21171,11.98818-12.29923a2.16525,2.16525,0,0,1,1.99641-.29406c2.529,1.319,5.50454.56748,6.54057-1.98234.54266-1.33547,1.35873-2.93081-.602-4.00292-1.81158-.99056-7.86859-.61137-9.424.81445-2.24394,2.05691-4.32162,4.29454-6.4875,6.43766-2.38909,2.364-4.88156,4.632-7.14208,7.11214-.60344.66208-.56119,1.94034-.74381,2.94866-.12241.67574.13466,1.5615-.213,2.03178-2.03256,2.74994-4.20407,5.39678-6.30853,8.09409-2.82368,3.61914-5.68659,7.21027-8.40489,10.90742-.75108,1.02158-.94505,2.434-1.5724,3.56877-2.10137,3.80124-3.52683,7.59509-1.58689,11.98787a18.75382,18.75382,0,0,0,7.83891,9.01046c2.07709,1.1871,4.72439,2.48211,6.89111,2.17061a49.94747,49.94747,0,0,0,12.2495-3.64207,13.39313,13.39313,0,0,0,8.40294-9.78117c.43717-2.06949,3.34583-4.13844,5.39812-3.79733,2.50993.41718,5.01637.91885,7.47115,1.58133A4.47568,4.47568,0,0,1,57.6,71.31219c1.73965,6.60319,7.377,8.57208,12.93043,10.162a16.95875,16.95875,0,0,0,8.38757-.02389,41.56992,41.56992,0,0,0,10.32467-4.16434c4.63548-2.62292,4.24584-7.93389,5.639-12.25885A2.49263,2.49263,0,0,0,94.95085,63.78185ZM38.1726,69.663c-1.36194,6.12679-6.10056,8.00032-11.12576,9.71721-.77376.26429-1.57447.44976-2.49651.70934.76646-1.00006,1.43466-1.87191,2.10283-2.74375l-.53629-.68452c-2.17857,1.96821-8.72676,2.29448-9.54428,2.19674,1.58239-3.99169,6.08184-3.71431,8.47287-6.5408-3.19836-1.26733-5.49027.30684-7.82631,1.58584-1.14815.62856-2.20569,1.43612-3.38776,1.9818-.4153.1917-1.07987-.15677-1.63064-.25859.10613-.53952.02614-1.35338.34948-1.57267,1.70889-1.15919,3.51263-2.18025,5.29919-3.22231.47153-.275,1.1-.34916,1.47223-.707a5.181,5.181,0,0,0,.77255-1.45622c-.57939-.21467-1.28521-.75562-1.7165-.58836-1.99768.77439-3.91394,1.757-5.87026,2.641-.86724.39185-1.7603.72643-2.64166,1.08705l-.47253-.45166c.32093-.6411.4773-1.51074.99266-1.88188,1.78079-1.28218,3.70719-2.36006,5.53351-3.58244A13.42027,13.42027,0,0,0,17.57194,64.344c-.86138-.19648-1.8655-.77452-2.55663-.516-1.86225.6965-3.58373,1.76475-5.3797,2.64759a6.44694,6.44694,0,0,1-1.47114.236c2.06406-2.62822,3.88434-4.822,6.90527-5.66674.63231-.17684,1.0921-.97066,1.6314-1.48016-.57657-.33995-1.14353-.698-1.73388-1.01214a10.56173,10.56173,0,0,0-1.237-.43843,7.87237,7.87237,0,0,1,1.80486-1.28756c4.442-1.35918,8.95954-2.48146,13.52057-.71727a37.981,37.981,0,0,1,6.64175,3.39553C38.2398,61.12361,38.96617,66.0931,38.1726,69.663Zm51.343,2.84383c-1.194,2.60516-3.48012,3.4554-5.65652,4.63576-2.62611-1.91258-8.4346,1.11306-9.02948,1.24926-1.12031.25661-2.25456.45217-3.89425.77321,1.47652-4.29192,6.07342-3.78,7.74471-6.637l-.48142-.878c-1.68527.61778-3.414,1.14017-5.04292,1.88179a23.52576,23.52576,0,0,0-4.17778,2.395c-1.81722,1.33527-3.04819.57343-4.34685-.803,2.66752-3.94847,8.08226-3.82694,10.9805-7.25188l-.29433-.64938a18.69448,18.69448,0,0,0-3.05111.77116c-2.81588,1.22414-5.56054,2.61245-8.37894,3.83032a6.82054,6.82054,0,0,1-2.19912.16392c-.03643-.92268-.47627-2.16217-.042-2.71528a14.62449,14.62449,0,0,1,9.20341-5.66987c1.63738-.27049,1.86082-.82071,1.35716-2.23171-4.59.21253-7.9892,3.083-11.84309,5.14663-.38657-1.78657-.19723-3.21961,1.62936-4.1253,2.5785-1.27841,5.12394-2.62541,7.65834-3.98984A4.70249,4.70249,0,0,0,71.3645,56.786c-3.50038-1.06473-5.91032,1.63579-8.95807,2.16787,1.51466-1.06836,2.738-2.4985,4.35455-3.41678q1.22084-.47613,2.47693-.84237c.08914-.01185.175-.02795.26674-.03648,3.23293-.30105,6.39885-1.16647,9.68574-.42423,4.79863,1.08363,8.35749,3.69925,10.12892,8.34829C90.55089,65.81455,91.09415,69.06236,89.51561,72.50683Z"/></svg>