<svg xmlns="http://www.w3.org/2000/svg" data-name="Слой 1" viewBox="0 0 100 100" x="0px" y="0px"><title>Безымянный-1_Монтажная область 1_Монтажная область 1</title><path d="M52.39531,86.96274a8.10965,8.10965,0,0,1,2.05028.90674,2.00474,2.00474,0,0,1,.65523,1.58947c-.03732.30265-.91188.75059-1.42787.826-1.39362.20377-2.79721.24309-4.22834.55935.3645.04993.72608.118,1.09412.14632,1.01452.078,1.684.67069,1.18787,1.6057a2.43127,2.43127,0,0,1-2.00817.98921c-1.27216-.44075-2.8492-.72483-3.06249-2.5493-.03914-.335-.57595-.63664-.95522-.82487-2.13889-1.06148-2.39089-1.73386-1.65712-4.15915.10426-.34451-.19983-.795-.35562-1.177-.18478-.45294-.69507-.95835-.57411-1.31306.499-1.46348.23949-2.85035.2872-4.28029.0668-2.00508,1.068-2.87484,3.1776-3.22172,1.40242-.23059,2.81184-.3719,4.38545-.57476-1.81257-.193-3.439-.40342-5.07933-.52929-1.32463-.10165-1.58823-.76818-1.55225-2.06406a65.20182,65.20182,0,0,0-.2397-9.004c-.09752-.87289-1.31449-1.66836-2.20714-2.21612-2.91147-1.78655-6.00727-3.30557-8.84655-5.1887a15.684,15.684,0,0,1-5.47625-7.19688c-2.42684-5.58955-.388-10.36921,3.45057-15.01505a42.33337,42.33337,0,0,1,13.7994-11.08826,25.40408,25.40408,0,0,1,12.67857-2.43451c5.97908.24467,10.56485,2.56661,13.46065,7.79655A27.51434,27.51434,0,0,1,74.69864,39.4127,17.13752,17.13752,0,0,1,72.795,49.85852c-1.49877,2.55519-3.97423,3.81974-6.54007,4.8502-2.17129.872-3.58238,2.21008-3.6492,4.60282-.06684,2.397.01905,4.792-.18916,7.188a29.56133,29.56133,0,0,1-1.10181,5.728c-.17262.58767-1.16341,1.05347-1.83916,1.46849a24.63607,24.63607,0,0,1-2.40567,1.118,10.72334,10.72334,0,0,1,2.26278.75453,1.59762,1.59762,0,0,1,.74455,1.266,1.91051,1.91051,0,0,1-1.1255,1.09678,37.19354,37.19354,0,0,1-3.63209.85529,21.30819,21.30819,0,0,1,3.31054.80114,1.83987,1.83987,0,0,1,1.00715,1.371c.01595.36156-.709,1.05519-1.19017,1.19814a23.37594,23.37594,0,0,1-3.2419.533,17.16911,17.16911,0,0,1,2.59538,1.32556,1.63365,1.63365,0,0,1,.6029,1.46523,2.21576,2.21576,0,0,1-1.465.98166c-1.51014.26976-3.03692.36131-4.5574.52337-1.83364-.17494-3.66117-.39306-5.50589-.48507-.32526-.01623-.72244.49474-1.08643.76226.23779.29261.41681.75841.72661.83879a3.64234,3.64234,0,0,0,1.67222-.01008C49.59763,87.76561,50.99367,87.34538,52.39531,86.96274ZM46.05979,72.91556a37.76734,37.76734,0,0,0,4.38346.2654,57.87221,57.87221,0,0,0,6.56386-.69465,3.15379,3.15379,0,0,0,2.81594-3.22376c.20231-3.55069.37283-7.105.754-10.65373a9.79422,9.79422,0,0,1,1.36837-3.12776c.86633-1.65,2.54543-2.06364,4.05027-2.78037,2.09662-.99862,4.58222-1.9039,5.35539-4.24423A20.02087,20.02087,0,0,0,72.68628,40.434,23.84911,23.84911,0,0,0,68.1894,28.11507c-1.84565-2.375-4.02013-4.20215-7.087-4.755a21.04722,21.04722,0,0,0-5.83738-.55906c-3.15219.32857-6.496.58935-9.4019,1.85868A36.95826,36.95826,0,0,0,30.66037,37.48092c-1.91585,2.69138-3.10719,5.70093-2.2958,8.86633,1.02278,3.99007,2.8658,7.41022,6.69414,9.37452,3.05572,1.5679,5.90772,3.505,9.02992,4.936a3.09624,3.09624,0,0,1,2.138,3.22911C46.17036,66.79574,46.11889,69.70428,46.05979,72.91556Zm4.5727,6.19849L45.6738,79.0442C46.44338,80.51612,46.49746,80.51744,50.63249,79.11405Zm-5.41414,3.7217c1.11128,1.47744,2.18542,1.33832,4.54317-.20258C48.25137,82.70052,46.90118,82.76071,45.21835,82.83575Z"/><path d="M84.94947,42.90394a21.01618,21.01618,0,0,1-3.275.36692c-.52559-.01768-.98421-.59106-1.47317-.91294.5034-.34427.98731-.901,1.51376-.99429,1.81251-.32125,3.64005-.47684,5.4615-.70507.31358-.0393.70558-.2694.92311-.16254A19.80712,19.80712,0,0,1,90,41.677a10.40849,10.40849,0,0,1-1.92271.7434c-1.03564.18293-2.08691.19463-3.1316.27879Z"/><path d="M16.89643,49.83814c-2.247-.45676-4.40574-.85881-6.52682-1.37684-.24408-.05961-.423-.77857-.35506-1.16713a1.21862,1.21862,0,0,1,.94937-.58612q3.2166.63357,6.379,1.45395a.97274.97274,0,0,1,.49677.89773C17.74825,49.35806,17.25141,49.5652,16.89643,49.83814Z"/><path d="M82.31851,17.56383a9.31291,9.31291,0,0,1,1.72643-.18317c.33868.02389.63092.34394.944.53093-.242.331-.42749.83356-.73728.95865-.73982.29873-1.58624.30052-2.30207.63918-1.16084.54924-2.22763,1.3295-3.3842,1.89252a4.21365,4.21365,0,0,1-1.52493.12407c.16759-.54.17676-1.34251.53046-1.57413,1.48047-.96945,3.06429-1.76769,4.61022-2.62865Z"/><path d="M27.07781,27.33068c-.33109.2634-.651.6937-.89213.67241a2.62142,2.62142,0,0,1-1.34412-.53859c-1.37521-1.09458-2.74259-2.20581-4.013-3.41478-.32119-.30561-.272-.99664-.393-1.51057.50977.01593,1.18808-.17,1.50091.08185,1.56161,1.25674,3.02989,2.62551,4.52313,3.96345A7.86969,7.86969,0,0,1,27.07781,27.33068Z"/><path d="M41.242,10.84458a23.38366,23.38366,0,0,1,.01518-3.17682c.05-.37627.63323-.72786.97347-1.09069.241.326.63253.61344.69671.98461a44.17733,44.17733,0,0,1,.60636,4.70645c.03238.50723-.38985,1.08255-.60412,1.62672-.36154-.35164-.84421-.63644-1.05648-1.07042A12.29623,12.29623,0,0,1,41.242,10.84458Z"/><path d="M66.15831,7.05009a8.75841,8.75841,0,0,1-.57373,1.17474c-.85663,1.24548-1.71693,2.49176-2.6464,3.68553-.23363.3001-.73014.40562-1.10583.60056-.08093-.40554-.37049-.91977-.20809-1.19856.89391-1.53441,1.87075-3.02921,2.89009-4.4916A1.51727,1.51727,0,0,1,65.57542,6.386C65.767,6.379,65.93779,6.78271,66.15831,7.05009Z"/><path d="M33.07451,42.08386c-1.32554.32449-1.8873-.53637-1.51076-1.82053a15.54589,15.54589,0,0,1,5.29475-8.19124c.90176-.70593,1.73359-1.52393,2.69113-2.12818.42913-.27079,1.089-.14147,1.64421-.19372a4.96236,4.96236,0,0,1-.7006,1.767,24.87757,24.87757,0,0,1-2.59142,1.968,9.17161,9.17161,0,0,0-4.04338,6.86906A5.14141,5.14141,0,0,1,33.07451,42.08386Z"/></svg>