<svg xmlns="http://www.w3.org/2000/svg" data-name="Слой 1" viewBox="0 0 100 100" x="0px" y="0px"><title>Безымянный-1_Монтажная область 1_Монтажная область 1_Монтажная область 1</title><path d="M53.66928,76.60353c-2.7843.55495-5.51839.6932-7.98791-1.26715-2.48973-1.97645-3.01122-4.86845-3.42461-7.64478-.50787-3.41077-.52244-6.87544-.89968-10.30557a4.69088,4.69088,0,0,0-1.20224-2.41262c-2.23648-2.46642-4.78374-4.68212-6.80714-7.30033A14.71858,14.71858,0,0,1,31.113,42.22565a17.57948,17.57948,0,0,1,1.45709-13.17517c3.15484-5.47811,7.87065-9.15386,14.57888-9.63318,2.28058-.163,4.568-.33923,6.85692-.31357a11.35578,11.35578,0,0,1,3.5272.73339c2.26581.793,4.73789.78728,6.8082,2.40736A21.28642,21.28642,0,0,1,69.86507,29.031c3.84652,7.03863,1.75,13.36658-1.87129,19.38992A18.42354,18.42354,0,0,1,64.128,52.46094a6.09056,6.09056,0,0,0-2.41139,5.34441c.16615,2.0142.41235,4.03144.443,6.0438.06049,3.97438-.63809,7.83466-3.40648,10.7133C57.56664,75.79624,53.73138,76.72739,53.66928,76.60353Zm.82432-36.03248A4.58632,4.58632,0,0,1,57.2462,39.412a3.28968,3.28968,0,0,1,2.84849,3.04058A4.22971,4.22971,0,0,1,58.07762,46.771c-2.69706,1.61639-3.51237,4.22686-3.72032,7.10391-.28807,3.98611-.39393,7.99193-.561,11.99061-.11676,2.79581-.52534,5.63274,1.53755,8.47051.92381-.78045,2.20719-1.387,2.75-2.40585,2.38066-4.4683,2.495-9.27216,1.21655-14.24244a3.60319,3.60319,0,0,1,.26986-2.68056,61.6249,61.6249,0,0,1,5.32023-6.41509,15.966,15.966,0,0,0,4.60515-13.76964A15.30729,15.30729,0,0,0,55.41185,21.40252a35.19086,35.19086,0,0,0-10.84589.61794A15.35051,15.35051,0,0,0,33.92127,31.115,17.45837,17.45837,0,0,0,32.525,38.55607c.07645,3.25484.67711,6.60571,3.22122,9.17682q2.45964,2.48573,5.02,4.87129c1.19835,1.11884,2.62753,1.97086,2.70935,3.91964.1365,3.24946.30878,6.51178.74187,9.74123A24.889,24.889,0,0,0,45.875,72.2338a3.27212,3.27212,0,0,0,3.48116,2.02873c.02622-1.57762.13376-3.1251.05951-4.67018-.13108-2.72638-.59283-5.46514-.51666-8.17359a40.54867,40.54867,0,0,0-1.13408-11.82762,1.43734,1.43734,0,0,0-.8203-.80131,8.98162,8.98162,0,0,1-5.2231-4.33039,9.06912,9.06912,0,0,1-.53116-2.55072,8.85981,8.85981,0,0,1,2.40666.14815c1.81166.62178,5.07231,4.00352,5.53871,4.2281a5.84564,5.84564,0,0,0,.23834-1.30787,17.462,17.462,0,0,1-.21109-3.25845,4.01879,4.01879,0,0,1,1.29453-2.565c.50266-.34244,1.69257.19047,2.53253.47365A7.415,7.415,0,0,1,54.4936,40.57105Zm-3.32666,28.272c.31293-6.72.40778-13.43342-1.27264-20.0914Q50.5306,58.79737,51.16694,68.84306Zm5.37635-27.47228c-.62249,1.496-1.1683,2.80769-1.71408,4.11936C58.238,44.23655,58.69958,43.13638,56.54329,41.37078Z"/><path d="M49.95187,90.01434c.58542.03465,1.1714.05794,1.7561.10716a5.73691,5.73691,0,0,1,1.72925.22646c.38632.16359.92322.7429.8733,1.029a1.96017,1.96017,0,0,1-.95307,1.13818,4.71489,4.71489,0,0,1-1.50766.27225,1.75,1.75,0,0,1-.01609.574c-.22506.625-.49105,1.234-.74147,1.84909a7.7023,7.7023,0,0,1-1.7026-1.51212c-1.20032-1.98611-1.486-4.46992-3.44673-6.05252a.58984.58984,0,0,1-.201-.26318c-.20611-.72941-.44229-1.45545-.58455-2.1959-.41434-2.15658-.97848-4.35019.68017-6.20677.16591-.18568.49479-.45.6445-.39144,2.54525.99531,4.76795-.72391,7.18187-.57186a17.05034,17.05034,0,0,1,4.26442.83816,2.06587,2.06587,0,0,1,1.05838,1.62743c-.03989.49406-.78347,1.098-1.35245,1.29352a10.44656,10.44656,0,0,1-2.49488.2573A17.35124,17.35124,0,0,1,57.78465,83.14a1.8258,1.8258,0,0,1,.82691,1.4042c-.08815.41983-.76687.83507-1.27591.99042-2.50439.76423-5.05709.36851-7.60844-.07457-.73383-.12745-1.4862-.12185-2.40714-.19043.431,1.28651.98971,1.66048,2.2123,1.48258a45.84165,45.84165,0,0,1,5.79846-.3476,2.30132,2.30132,0,0,1,1.46878.624c.3443.33405.70039,1.05129.563,1.38585a1.7813,1.7813,0,0,1-1.3066.83659c-2.01994.21041-4.05776.29234-6.089.42147ZM46.80126,82.469l3.31972-.522C48.95907,81.726,47.688,80.42052,46.80126,82.469Z"/><path d="M62.53427,12.99656c.03768-.54965-.10321-1.20786.14423-1.62994a57.649,57.649,0,0,1,3.3003-5.07421,1.63074,1.63074,0,0,1,1.59261-.29036c.76374.52606.36691,1.07945-.1669,1.71342-1.05335,1.2511-1.8831,2.68979-2.86344,4.00684a16.22161,16.22161,0,0,1-1.50867,1.56325Z"/><path d="M45.68007,5.03021c.081.34429.14159.54808.17567.75546.29584,1.801.67331,3.59718.83043,5.40727.05191.59826-.468,1.23294-.72648,1.851-.38527-.55889-.9821-1.07752-1.1159-1.6843a49.93191,49.93191,0,0,1-.84465-5.4094c-.03937-.36546.35275-.86091.68979-1.124C44.85725,4.69476,45.35036,4.95244,45.68007,5.03021Z"/><path d="M78.31113,18.27618c.524.39862,1.11346.63424,1.24829,1.01614a1.34524,1.34524,0,0,1-.53319,1.17835c-1.51608.95591-3.08417,1.8367-4.67288,2.67327a3.66351,3.66351,0,0,1-1.3186.13c-.00473-.55543-.24089-1.42449.02353-1.615C74.69893,20.47671,76.452,19.44686,78.31113,18.27618Z"/><path d="M77.9828,41.99854c-.22043-.11746-.76626-.2353-.86269-.50178-.13242-.36591-.061-1.13057.15934-1.22972,1.846-.83053,3.73427-1.57836,5.64393-2.26338.263-.09433.71313.29234,1.07662.45632-.14906.31286-.21243.788-.46082.91255C81.78017,40.2546,79.98327,41.06478,77.9828,41.99854Z"/><path d="M16.84173,35.95489c2.11605.3449,3.88853.60425,5.64675.95052.28128.05539.72236.53562.69458.75628-.04343.345-.44942.92961-.658.90443-2.08481-.25159-4.1629-.59231-6.234-.96793a.94885.94885,0,0,1-.26667-.80541A4.24153,4.24153,0,0,1,16.84173,35.95489Z"/><path d="M26.85178,19.58556c-.55437.1638-1.29121.64814-1.65993.44259a31.37832,31.37832,0,0,1-3.782-2.63062,1.06643,1.06643,0,0,1-.2571-.97574c.11235-.25482.69919-.56989.86333-.47423,1.55873.9083,3.073,1.89619,4.59291,2.87269C26.67732,18.86413,26.677,19.01827,26.85178,19.58556Z"/><path d="M23.19806,52.8737c.42273.33181.84639.53119,1.02472.86315.08336.15515-.24438.74682-.49438.83244-1.49967.51369-3.01826.9883-4.56188,1.35079a1.40985,1.40985,0,0,1-1.11908-.61422,1.15816,1.15816,0,0,1,.41706-1.04348C20.00671,53.736,21.59122,53.33008,23.19806,52.8737Z"/><path d="M80.70778,56.59893a3.78611,3.78611,0,0,1,.21129,1.323c-.03833.17191-.67311.40544-.91828.30682-1.47071-.59153-2.93019-1.225-4.33533-1.95968a1.40987,1.40987,0,0,1-.4454-1.19633,1.15814,1.15814,0,0,1,.99771-.51707C77.729,55.16542,79.19343,55.894,80.70778,56.59893Z"/></svg>