<svg xmlns="http://www.w3.org/2000/svg" data-name="Слой 1" viewBox="0 0 100 100" x="0px" y="0px"><title>Безымянный-1_Монтажная область 1_Монтажная область 1_Монтажная область 1_Монтажная область 1</title><path d="M52.92318,72.997c-3.29247.65625-6.52555.81972-9.44578-1.49841-2.94413-2.33717-3.5608-5.757-4.04964-9.04-.60055-4.03328-.61779-8.13028-1.06388-12.18644a5.5471,5.5471,0,0,0-1.42165-2.853c-2.64467-2.91656-5.65682-5.53665-8.04952-8.63271a17.40488,17.40488,0,0,1-2.64256-6.44163c-1.333-5.42667-.97719-10.89114,1.723-15.57977C31.7038,10.28717,37.2803,5.94057,45.21284,5.37377c2.69681-.1927,5.40172-.40114,8.10837-.37081a13.42862,13.42862,0,0,1,4.17094.86724c2.67936.93776,5.60261.931,8.05077,2.84673A25.17143,25.17143,0,0,1,72.07486,16.742c4.54854,8.32325,2.06942,15.80611-2.21282,22.92876a21.78588,21.78588,0,0,1-4.57128,4.77741A7.20218,7.20218,0,0,0,62.43927,50.768c.19647,2.38181.48761,4.76722.52387,7.14685.07153,4.69975-.75456,9.26456-4.0282,12.66858C57.53184,72.0424,52.99662,73.14349,52.92318,72.997ZM53.898,30.38827a5.42345,5.42345,0,0,1,3.255-1.37062,3.89009,3.89009,0,0,1,3.36837,3.59552,5.00167,5.00167,0,0,1-2.38521,5.10658c-3.18929,1.9114-4.15341,4.99831-4.39931,8.40044-.34064,4.71361-.46583,9.45054-.66341,14.179-.13807,3.30607-.62122,6.66076,1.81817,10.01645,1.09241-.92289,2.61-1.64016,3.25192-2.84494,2.81516-5.2838,2.95042-10.96441,1.43858-16.84182a4.26082,4.26082,0,0,1,.31912-3.16979,72.87247,72.87247,0,0,1,6.29122-7.5859A18.88,18.88,0,0,0,71.638,23.59048,18.101,18.101,0,0,0,54.98379,7.7213,41.61362,41.61362,0,0,0,42.15842,8.452C36.08165,9.92719,32.02827,13.81845,29.571,19.20642a20.64465,20.64465,0,0,0-1.65111,8.79912c.0904,3.84888.80068,7.81132,3.80912,10.85168q2.90855,2.9394,5.9362,5.76035c1.41707,1.323,3.10709,2.33056,3.20384,4.635.16141,3.84252.36514,7.70024.87727,11.5191a29.43078,29.43078,0,0,0,1.96006,7.0581,3.86932,3.86932,0,0,0,4.1165,2.399c.031-1.86555.15818-3.69546.07037-5.52254-.155-3.224-.701-6.46258-.611-9.66534a47.94969,47.94969,0,0,0-1.34106-13.98628,1.69964,1.69964,0,0,0-.97-.94756,10.62084,10.62084,0,0,1-6.17636-5.12073,10.72481,10.72481,0,0,1-.62811-3.01625,10.47668,10.47668,0,0,1,2.84591.17519c2.1423.73526,5.998,4.7342,6.54957,4.99977a6.91223,6.91223,0,0,0,.28184-1.54657,20.65013,20.65013,0,0,1-.24962-3.85315,4.75234,4.75234,0,0,1,1.5308-3.03309c.5944-.40493,2.00148.22523,2.99474.5601A8.76872,8.76872,0,0,1,53.898,30.38827ZM49.96414,63.8202c.37-7.94651.4822-15.88514-1.50491-23.75827Q49.21166,51.94106,49.96414,63.8202ZM56.32172,31.334c-.7361,1.76905-1.38153,3.32012-2.02691,4.87117C58.32572,34.72277,58.87156,33.4218,56.32172,31.334Z"/><path d="M48.52731,88.85544c.69226.041,1.38518.06851,2.07661.12671a6.78436,6.78436,0,0,1,2.04484.26779c.45684.19345,1.09173.87849,1.0327,1.21685a2.318,2.318,0,0,1-1.127,1.34592,5.57545,5.57545,0,0,1-1.78281.32193,2.06936,2.06936,0,0,1-.019.67879c-.26613.73905-.58067,1.4592-.8768,2.18657a9.10824,9.10824,0,0,1-2.01334-1.7881c-1.41939-2.3486-1.75722-5.28572-4.07579-7.15717a.69743.69743,0,0,1-.23766-.31121c-.24373-.86254-.523-1.72108-.69124-2.59666-.49-2.55018-1.157-5.14415.80432-7.33958.19618-.21956.58508-.53212.76212-.46288,3.00978,1.177,5.63815-.856,8.49263-.67623a20.16248,20.16248,0,0,1,5.04272.99114,2.44291,2.44291,0,0,1,1.25154,1.92445c-.04717.58422-.92646,1.2984-1.59928,1.5296a12.35278,12.35278,0,0,1-2.95022.30426,20.51877,20.51877,0,0,1,3.12806,1.30878,2.15907,2.15907,0,0,1,.97782,1.66049c-.10423.49645-.90683.98748-1.50877,1.17118-2.96147.90371-5.98006.43576-8.997-.08818-.86777-.15071-1.75745-.14408-2.84647-.22519.50972,1.52132,1.17033,1.96354,2.61606,1.75317a54.20945,54.20945,0,0,1,6.85674-.41105,2.72133,2.72133,0,0,1,1.73684.7379c.40715.395.82822,1.24316.66582,1.63878a2.1064,2.1064,0,0,1-1.54507.98927c-2.3886.24882-4.79834.3457-7.20028.49839Zm-3.72563-8.92239,3.9256-.61725C47.35331,79.05442,45.85024,77.51066,44.80168,79.93305Z"/></svg>