<svg xmlns="http://www.w3.org/2000/svg" data-name="Слой 1" viewBox="0 0 100 100" x="0px" y="0px"><title>doodle_Монтажная область 1_Монтажная область 1_Монтажная область 1_Монтажная область 1_Монтажная область 1</title><path d="M92,14.55874a17.24887,17.24887,0,0,1-1.46878,3.57417c-1.55323,2.22835-3.32943,4.30179-5.03019,6.426a1.54228,1.54228,0,0,1-.73046.567,2.38556,2.38556,0,0,0-1.84579,2.36358,1.44,1.44,0,0,1-.28659.69426c-1.58974,1.93111-3.12267,3.91687-4.82212,5.74749-1.36669,1.47218-3.02621,2.67171-4.40125,4.13718-1.74039,1.85488-3.329,3.85266-4.9742,5.79631-1.48861,1.75856-2.95034,3.54012-4.45015,5.289C59.28411,54.64122,54.649,60.193,49.82371,65.57417,46.33211,69.468,42.35,72.9373,39.01446,76.95133c-3.1,3.73067-7.54186,5.32683-11.21762,8.10307-2.17258,1.641-9.58829,5.85311-10.53575,5.909a1.61053,1.61053,0,0,0-.86852.56787c-1.69414,1.77447-8.00829,6.16713-8.36809,5.76246-.33085-.37216,2.77943-6.45437,4.06975-8.734.49547-.87538,8.20254-19.69732,8.627-20.09378a4.79439,4.79439,0,0,0,.8158-.70962,189.50079,189.50079,0,0,1,17.05232-21.7791c3.43349-3.87157,6.59864-7.98007,9.9201-11.95227,2.17636-2.60274,4.43113-5.13981,6.62093-7.73158,1.02964-1.21862,1.88842-2.59535,3.00028-3.728,2.49446-2.541,5.07837-4.99594,7.67045-7.43852.80829-.76162,1.80223-1.32385,2.63151-2.06628a5.07168,5.07168,0,0,0,1.5877-1.88224c.84949-2.63977,3.08262-4.02065,4.88624-5.81289a7.95588,7.95588,0,0,1,4.96422-2.64963,4.02073,4.02073,0,0,1,3.19195.82688c1.946,1.58135,3.97621,3.06531,5.85281,4.724A9.00973,9.00973,0,0,1,92,14.55874ZM63.52515,25.73958a100.52641,100.52641,0,0,0-7.522,6.94318c-3.81612,4.29575-7.27425,8.90749-11.017,13.27131-1.93833,2.26-4.21521,4.22606-6.24958,6.40835-2.56851,2.75528-5.05045,5.59148-7.56065,8.40091-1.66888,1.86778-3.32185,3.74977-4.93754,5.57522,2.079,1.07833,4.31594,1.85,6.04963,3.24648,1.75186,1.41113,3.005,3.44135,4.61451,5.36512.30643-.706.73251-1.22724.709-1.72745-.05164-1.102-.70982-2.42637,1.40258-2.02621.184.03481.49786-.48623.71367-.7771a19.15187,19.15187,0,0,0,1.26024-1.80308c.77194-1.33907,1.59043-1.95119,2.75856-.03782.81449-1.46,1.47209-2.71461,2.20505-3.92352.4332-.71448,1.18172-1.29063,1.43678-2.04751.34855-1.03442.84626-1.17078,1.75679-.86282.27369.09254.77163.06751.90268-.10471.15612-.20514.01421-.627.02638-.95412a3.54685,3.54685,0,0,1,.12223-1.45623,12.76884,12.76884,0,0,1,1.435-1.86308c1.706-2.08829,3.41735-4.17222,5.3204-6.49419l2.249.97827c-.279-1.29205-.53368-2.471-.68749-3.18313a15.61855,15.61855,0,0,0,1.95847-1.54888c1.02765-1.15969,1.85612-2.51509,2.97426-3.56958.99953-.94257.93741-3.05878,3.07079-2.837.22837.02372.711-.68825.77568-1.10543.24407-1.57449,1.39741-2.5702,2.18652-3.80573.645-1.00994.92367-2.27608,1.64881-3.20747,1.0873-1.39643.31871-2.43439-.17722-3.7426-1.37481,1.19632-2.59007,2.2538-3.80534,3.31127l-.38575-.387c1.01936-1.21066,1.98881-2.46846,3.074-3.61687.84957-.89906.56406-1.58436-.035-2.3181-2.05625,1.67381-4.03432,3.284-6.1987,5.04577.2713-1.2834-.62968-2.59256.8957-3.42711,1.12512-.61558,2.19146-1.33857,3.22734-1.97871-.23991-.13792-.78745-.45276-1.20513-.69289-1.21769,1.02624-2.333,1.96613-3.44827,2.90605l-.31617-.24831C62.96529,26.9767,63.17717,26.50855,63.52515,25.73958ZM15.17758,85.79764c-.09508.87137,2.3867,3.05586,3.10133,2.82045A1.74281,1.74281,0,0,0,18.66,88.344c2.69683-1.87506,5.38764-3.75886,8.09429-5.61963,1.40754-.96768,2.81721-1.78594,3.1809-3.77665.26144-1.43084.25389-2.64306-.9631-3.52706-1.09708-.79689-2.2178-1.57018-3.38154-2.26432-2.34638-1.39961-3.5489-1.1771-4.86236,1.17256-1.7325,3.09921-3.292,6.29613-4.8847,9.47171A13.67119,13.67119,0,0,0,15.17758,85.79764ZM62.07317,21.31733c7.08286.26453,11.42533,3.80049,14.4329,9.71,1.22458-2.08013,3.96808-2.58359,4.05315-5.30477l-1.51075-.09631a4.12568,4.12568,0,0,0-.10094-1.302c-.76369-1.69661-1.18334-3.88059-2.495-4.921-2.02479-1.606-4.66211-2.45321-7.07658-3.54024a1.58916,1.58916,0,0,0-1.37994.2152C66.08607,17.68923,64.24364,19.38027,62.07317,21.31733Zm17.33575-3.45182c.11014-.14834.48531-.52445.43178-.601-.94666-1.35469-1.9455-2.67293-2.95161-4.02392,1.686-.949,2.24375,2.28007,4.02346.91712-.34682-.73373-.668-1.41307-1.22012-2.58126.98983.36652,1.53.56652,2.08213.771.518-.60671,1.07359-1.25744,1.62921-1.90816l.38094.28451c-.10975.36483-.21951.72967-.29456.97929,1.06677,1.19418,2.08517,2.33424,3.10357,3.47429l.31258-.26437c-.80886-1.26086-1.61773-2.52172-2.46029-3.83507l3.029-.82071a4.1581,4.1581,0,0,0-.79011-1.20579,25.40671,25.40671,0,0,0-4.0964-2.81959c-2.27872-1.10538-3.83368-1.41242-6.321,1.41859-1.49955,1.70673-2.94845,3.4579-4.259,4.99958C74.40326,14.33774,76.858,16.06771,79.40892,17.86551ZM45.6898,43.32583l.26341.20826q3.219-4.06107,6.438-8.12207l-.32175-.25407Q48.87964,39.24188,45.6898,43.32583ZM40.19445,70.3532V73.473l1.556-1.28177C41.28263,71.63859,40.89949,71.18605,40.19445,70.3532ZM62.14637,47.43971l-.60707-.34682L60.176,49.78513l.43182.23665Q61.37711,48.73072,62.14637,47.43971Z"/></svg>