<svg xmlns="http://www.w3.org/2000/svg" data-name="Слой 1" viewBox="0 0 100 100" x="0px" y="0px"><title>Безымянный-1-01-01-01-01-01-01-01-01-01-01-01-01-01-01-01-01-01-01-01-01-01-01-01-01-01-01-01-01-01-01-01-01-01-01-01-01-01-01-01</title><path d="M44.50175,65.66126c-0.34658,3.00582-.79814,5.95445-1.006,8.93266-0.39079,5.5998-.66853,11.214-0.92282,16.829a13.525,13.525,0,0,0,.41489,2.925c0.26708,1.471-.129,2.68469-1.638,2.90562a52.44959,52.44959,0,0,1-8.43575.74245,4.33671,4.33671,0,0,1-3.00423-2.05963c-0.65973-1.259.58444-2.2572,1.63879-2.80909a8.93837,8.93837,0,0,1,7.20036-.85816c1.31969,0.442,1.83138.13191,1.90018-1.22912,0.13989-2.76663.37691-5.52327,0.571-8.28439,0.32754-4.66075.58354-9.33162,1.00557-13.97891a23.28923,23.28923,0,0,0-.97091-7.88527c-0.7768-3.06976-1.37511-6.17571-2.08709-9.43184-1.76135.92885-2.98981-.0435-4.13978-1.24028q-5.14815-5.35769-10.27988-10.731c-1.16606-1.22794-.62674-2.36475.37184-3.15274,1.82362-1.439,3.797-2.6917,5.67513-4.06532,4.29241-3.13926,8.56508-6.3046,12.97259-9.55284a11.23372,11.23372,0,0,0-1.46955-.95982c-3.39446-1.52286-5.22992-4.26611-6.47619-7.61934-1.08747-2.926.50652-5.15247,1.28585-7.59325,0.48838-1.52958,1.70658-2.13858,3.191-2.85927,4.87282-2.36569,9.903-1.95876,14.92337-.51111,5.604,1.61594,8.63406,6.213,7.298,11.38009A10.42529,10.42529,0,0,1,57.972,20.53361c-0.36073.24342-.73467,0.46807-1.231,0.78284,0.8272,0.58542,1.45955,1.12025,2.16519,1.51535,1.8413,1.031,2.30032,3.06314,3.51417,4.538,1.68965,2.053,3.40566,4.094,5.23406,6.024,1.92936,2.03659,4.05427,3.89037,5.96737,5.94068a1.94232,1.94232,0,0,1-.02858,1.90708,39.87349,39.87349,0,0,1-4.44324,3.924c-2.71032,2.05934-5.44532,4.09963-8.29775,5.96087-2.04415,1.33381-2.10947,3.51861-2.59711,5.52583a20.19721,20.19721,0,0,1-4.02757,8.5667c-0.81415.96706-.93778,2.833-0.79,4.25916,0.62926,6.07083,1.49333,12.1293,2.23555,18.19482,0.17534,1.43278.76155,1.64045,2.1231,1.37822,4.24884-.81833,7.85633,1.045,11.1179,3.71639a1.62774,1.62774,0,0,1-.65156,2.88112c-3.36812.88591-6.78326,1.84126-10.39622,1.1836-2.079-.37843-3.59418-2.60106-3.92912-5.5513q-1.36177-11.99508-2.62077-23.99618a1.28963,1.28963,0,0,0-1.46478-1.33927C48.23275,65.85573,46.61377,65.773,44.50175,65.66126ZM60.165,32.05987l-0.2824-.05925c-0.01832-.34971-0.03059-0.69953-0.05593-1.04909a8.40861,8.40861,0,0,0-3.04446-6.1797,7.90175,7.90175,0,0,0-7.53877-1.08565,62.95061,62.95061,0,0,0-6.20047,2.78161c-3.50551,1.68993-5.49654,6.45778-4.60536,10.39434,0.75061,3.31561,1.17555,6.68744,1.88847,10.01087,1.03037,4.80342,2.16154,9.59132,3.34049,14.368a2.08535,2.08535,0,0,0,1.32378,1.19938c1.8806,0.38662,3.79846.52574,5.68614,0.87724a2.30049,2.30049,0,0,0,2.75113-1.19985,17.8421,17.8421,0,0,0,1.68279-3.901c1.16614-4.89753,2.26267-9.8184,3.22723-14.76908C59.07125,39.68214,59.56468,35.858,60.165,32.05987Zm0.1-20.021c-0.07348-1.63183-1.21615-2.756-3.21313-2.62549A11.7151,11.7151,0,0,1,49.0981,7.11472a1.83907,1.83907,0,0,0-1.53429-.09138c-2.92526,1.2709-5.83421,2.58133-8.68433,3.9984a1.84527,1.84527,0,0,0-.6857,1.59238A9.07012,9.07012,0,0,0,44.6336,20.049,13.38993,13.38993,0,0,0,57.927,17.48667,6.06147,6.06147,0,0,0,60.26494,12.03887ZM35.75566,31.06463c-2.32277,1.65386-4.87125,3.51245-7.47092,5.29953-1.17446.80732-1.43758,1.605-.34383,2.79526,1.49348,1.6252,2.801,3.43793,4.40192,4.94188,1.77494,1.66745,3.79062,3.07761,5.921,4.77468C37.38855,42.66022,36.574,36.87567,35.75566,31.06463Zm26.9082,0.63444c-0.92517,6.03458-1.75774,11.46515-2.63925,17.21485,1.26705-.86089,2.29946-1.5278,3.29415-2.24517,2.24783-1.62107,4.49181-3.248,6.70547-4.91366,0.73151-.5504,1.21485-1.23567.30183-2.16936C67.87465,37.07874,65.43833,34.55707,62.66386,31.69907ZM66.10645,94.1149l0.02513-.89155c-2.58165-1.14289-5.07442-2.64993-8.06377-2.18614-1.684.26127-2.01344,1.158-.81231,2.45277a3.14587,3.14587,0,0,0,1.90872,1.0957C61.48657,94.55489,63.79366,94.29122,66.10645,94.1149ZM46.55615,5.442c-3.67541-.94156-6.58433.43887-7.57456,3.69656ZM31.9178,95.51507a21.85787,21.85787,0,0,0,8.3258-.24989A6.12142,6.12142,0,0,0,31.9178,95.51507ZM51.6484,4.91419c1.24729,1.43158,2.67628,2.12267,4.43533,1.31989Z"/></svg>