<svg xmlns="http://www.w3.org/2000/svg" data-name="Слой 1" viewBox="0 0 100 100" x="0px" y="0px"><title>Безымянный-1-01-01-01-01-01-01-01-01-01-01-01-01-01-01-01-01-01-01-01-01-01-01-01-01-01-01-01-01-01-01-01-01-01-01-01-01-01</title><g><path d="M22.7111,70.098c-0.32955,2.4823-.745,4.91736-0.95953,7.37686-0.40345,4.62449-.71374,9.26085-1.00468,13.89793a11.09366,11.09366,0,0,0,.30047,2.41559c0.19936,1.21481-.14525,2.2171-1.39458,2.39955a43.5124,43.5124,0,0,1-6.9772.61313,3.50036,3.50036,0,0,1-2.4513-1.7009c-0.52668-1.03968.51518-1.86406,1.39385-2.31984a7.42491,7.42491,0,0,1,5.95865-.70869c1.08347,0.365,1.51051.10894,1.58695-1.015,0.1554-2.28477.39089-4.56129,0.591-6.84151,0.33768-3.849.61642-7.70633,1.03193-11.54421a19.1208,19.1208,0,0,0-.68814-6.51189c-0.59726-2.5351-1.04658-5.10009-1.58762-7.7891-1.468.76707-2.46845-.03592-3.40088-1.02426q-4.17427-4.42454-8.33475-8.862c-0.94527-1.01407-.48349-1.95288.35253-2.60363,1.52675-1.18841,3.17445-2.22289,4.7453-3.35727,3.59006-2.59249,7.16418-5.20653,10.85086-7.889a9.05749,9.05749,0,0,0-1.19976-.79265c-2.7813-1.25762-4.25753-3.52308-5.2384-6.29228-0.85588-2.41635.49258-4.25507,1.17135-6.27074,0.42537-1.26318,1.44018-1.76611,2.67643-2.36127,4.05823-1.95366,8.20644-1.6176,12.33154-.42209,4.60464,1.33449,7.04071,5.13089,5.86286,9.398a8.82026,8.82026,0,0,1-3.84219,4.93748c-0.30141.201-.61346,0.38655-1.02785,0.6465,0.67469,0.48346,1.18919.92514,1.76623,1.25142,1.50574,0.8514,1.85552,2.52963,2.83669,3.74763,1.36577,1.69544,2.75349,3.38093,4.23561,4.97476,1.564,1.68188,3.29206,3.21279,4.8424,4.906a1.60581,1.60581,0,0,1-.05109,1.57492A33.79305,33.79305,0,0,1,43.36179,53.172c-2.268,1.70066-4.556,3.3856-6.93846,4.92267-1.70735,1.1015-1.79278,2.90578-2.22443,4.5634a17.01678,17.01678,0,0,1-3.44958,7.07464,5.21575,5.21575,0,0,0-.71376,3.51734c0.43215,5.01348,1.0584,10.01674,1.58391,15.02583,0.12415,1.18323.60526,1.35474,1.73346,1.13817,3.52062-.6758,6.47293.863,9.12793,3.0691a1.35379,1.35379,0,0,1-.57961,2.37932c-2.79427.73161-5.62836,1.52057-8.60258,0.97746-1.71144-.31252-2.93069-2.148-3.16476-4.58443q-0.95168-9.90591-1.8184-19.81678a1.04427,1.04427,0,0,0-1.19035-1.106C25.78947,70.25861,24.45365,70.19027,22.7111,70.098ZM36.13064,42.34895L35.89828,42.3c-0.01009-.2888-0.01518-0.57769-0.03107-0.86637a6.81074,6.81074,0,0,0-2.42513-5.10338,6.48123,6.48123,0,0,0-6.2101-.89656,53.00948,53.00948,0,0,0-5.16064,2.29714c-2.91931,1.3956-4.6323,5.333-3.95308,8.584,0.57208,2.73813.8744,5.5227,1.41525,8.26728,0.78167,3.96681,1.64681,7.9208,2.55156,11.86554a1.68067,1.68067,0,0,0,1.07593.99049c1.54749,0.31928,3.12931.43418,4.68314,0.72445a1.931,1.931,0,0,0,2.28926-.99087,15.02032,15.02032,0,0,0,1.44593-3.22156c1.03363-4.04453,2.01011-8.10833,2.878-12.19676C35.11752,48.64365,35.58014,45.48553,36.13064,42.34895ZM36.50178,25.815a2.187,2.187,0,0,0-2.61566-2.16821,9.54633,9.54633,0,0,1-6.53528-1.89831A1.51414,1.51414,0,0,0,26.0851,21.673c-2.43409,1.04954-4.85528,2.13174-7.22942,3.302a1.55152,1.55152,0,0,0-.58923,1.315,7.31934,7.31934,0,0,0,5.211,6.13992,11.15606,11.15606,0,0,0,11.015-2.116A5.09635,5.09635,0,0,0,36.50178,25.815ZM15.987,41.527c-1.94206,1.36581-4.07346,2.90069-6.24611,4.37651-0.98154.66671-1.21033,1.32549-.32424,2.30841,1.20993,1.34214,2.26357,2.83915,3.564,4.08115,1.44177,1.377,3.086,2.54158,4.82092,3.94308C17.16836,51.103,16.579,46.326,15.987,41.527ZM38.19948,42.051c-0.851,4.98354-1.61686,9.46827-2.42772,14.21655,1.05878-.71095,1.921-1.26171,2.75277-1.85413,1.8797-1.33873,3.7563-2.68233,5.60841-4.05785,0.612-.45454,1.02107-1.02045.28053-1.79153C42.42517,46.49368,40.44952,44.41122,38.19948,42.051Zm1.94328,51.54489,0.03361-.73627c-2.11553-.94383-4.15241-2.18839-6.6278-1.80538-1.39446.21576-1.67945,0.95628-.70619,2.02557a2.54256,2.54256,0,0,0,1.56049.90486C36.32118,93.95925,38.23024,93.7415,40.14276,93.59589Zm-14.867-73.22877c-3.02169-.77757-5.44387.36243-6.30859,3.05273ZM11.88855,94.75219a18.08006,18.08006,0,0,0,6.8793-.20637A5.06235,5.06235,0,0,0,11.88855,94.75219Zm17.60013-74.821c1.00941,1.18225,2.17956,1.753,3.6438,1.09Z"/><path d="M77.91554,3.2229A29.06888,29.06888,0,0,1,87.55082,4.614a6.64582,6.64582,0,0,1,3.961,3.55533c1.72528,2.98234,2.98141,6.12647,1.73528,9.4854a11.62628,11.62628,0,0,1-9.11028,7.56709,35.75453,35.75453,0,0,1-18.066-1.19216,0.8182,0.8182,0,0,1-.27469-0.09316c-2.19207-1.86924-4.16422-.72463-6.00574.37193a22.16764,22.16764,0,0,1-9.21057,2.74618,18.03228,18.03228,0,0,0-3.7565.87226,1.44256,1.44256,0,0,1-1.97475-.617,1.99251,1.99251,0,0,1,.57651-1.77076c1.98208-1.6643,4.07779-3.19481,6.12708-4.78048,0.41025-.31742.80553-0.65558,1.19-1.00352a3.20649,3.20649,0,0,0,.95837-3.76516C52.62215,12.4077,54.1802,9.66259,57.119,7.834a25.07354,25.07354,0,0,1,5.88313-2.73373A48.07956,48.07956,0,0,1,77.91554,3.2229ZM47.70385,25.6204L47.75206,25.818c0.86175-.23921,1.72945-0.46087,2.58392-0.72167,1.3608-.41536,2.79419-1.398,4.05041-1.16672,2.15388,0.39653,3.50912-.79081,5.1396-1.483,0.78284-.33236,1.49415-0.81991,2.25014-1.21476a3.3044,3.3044,0,0,1,3.25293.17472,25.29294,25.29294,0,0,0,5.841,2.02824,46.79843,46.79843,0,0,0,6.331.58736c4.39036,0.30227,8.52494-.21339,11.92562-3.24305a7.52285,7.52285,0,0,0,1.93852-7.69774c-0.34152-.90871-0.62021-1.842-1.00811-2.73124C89.213,8.41492,88.04156,6.6944,85.87562,6.15017a23.534,23.534,0,0,0-5.67922-.9381c-4.12371.01279-8.24333,0.25741-12.35052,0.54258a19.51741,19.51741,0,0,0-10.06806,3.5578A5.65575,5.65575,0,0,0,55.68805,16.584c0.94494,1.94434.87477,1.96256-.87067,3.30428C52.40317,21.7441,50.0711,23.70469,47.70385,25.6204Z"/><path d="M72.97288,17.347c0.5925-.95494,1.20863-2.10354,1.97684-3.1369,0.61469-.82689,1.50481-1.44711,2.10564-2.28189a1.61629,1.61629,0,0,0-.319-2.43164,2.60054,2.60054,0,0,0-2.12524-.43849,1.809,1.809,0,0,0-.87572,2.51851c0.23944,0.49868-.25349,1.32858-0.41275,2.00758a7.0973,7.0973,0,0,1-1.42424-1.08851,2.40189,2.40189,0,0,1,.31124-3.67507c0.38957-.34151.72884-0.74151,1.129-1.06906,2.18175-1.78562,3.18214-1.71351,5.17979.34512a3.52483,3.52483,0,0,1-.04038,5.17165c-0.689.77538-1.4847,1.45593-2.23885,2.17232a2.3824,2.3824,0,0,0-.74511,2.83048,3.32054,3.32054,0,0,1-.1935,1.459,8.37285,8.37285,0,0,1-1.68863-.85379A4.50707,4.50707,0,0,1,72.97288,17.347Z"/><path d="M75.28093,22.05357l1.07107-1.2744a2.30362,2.30362,0,0,1,.73145.81546,2.51859,2.51859,0,0,1-.80715,1.12164A5.07318,5.07318,0,0,1,75.28093,22.05357Z"/></g></svg>